<?xml version="1.0" standalone="no"?>
<!DOCTYPE svg PUBLIC "-//W3C//DTD SVG 20010904//EN"
 "http://www.w3.org/TR/2001/REC-SVG-20010904/DTD/svg10.dtd">
<svg version="1.0" xmlns="http://www.w3.org/2000/svg"
 width="282.000000pt" height="282.000000pt" viewBox="0 0 282.000000 282.000000"
 preserveAspectRatio="xMidYMid meet">
<metadata>
Created by potrace 1.11, written by Peter Selinger 2001-2013
</metadata>
<g transform="translate(0.000000,282.000000) scale(0.100000,-0.100000)"
fill="#000000" stroke="none">
<path d="M750 2507 c0 -5 -3 -7 -7 -4 -10 10 -35 -31 -27 -45 4 -6 3 -8 -3 -5
-9 6 -34 -56 -39 -95 -1 -10 -3 -19 -4 -20 -4 -5 -21 -151 -23 -210 -1 -21 -4
-38 -8 -38 -3 0 -6 -35 -7 -77 -1 -43 -5 -114 -8 -158 -4 -44 -8 -124 -8 -177
-1 -54 -4 -98 -7 -98 -3 0 -7 -42 -8 -92 -1 -51 -4 -131 -8 -178 -4 -47 -7
-118 -7 -158 -1 -39 -5 -72 -9 -72 -5 0 -6 -3 -4 -7 3 -5 1 -46 -5 -93 -5 -47
-12 -105 -14 -130 -6 -63 -28 -172 -34 -166 -3 2 -6 -8 -6 -22 -1 -15 -5 -40
-8 -57 -4 -16 -7 -36 -8 -42 -1 -7 -5 -13 -10 -13 -5 0 -7 -4 -4 -8 3 -5 -1
-20 -9 -35 -8 -15 -11 -27 -7 -27 4 0 0 -6 -8 -13 -8 -7 -17 -21 -18 -32 -2
-11 -16 -31 -31 -46 -24 -23 -34 -25 -84 -22 l-57 3 0 -40 c0 -39 1 -40 35
-40 36 0 39 -7 34 -67 -1 -12 43 -20 70 -13 20 5 25 13 25 41 l1 34 72 2 72 2
3 -41 c3 -39 5 -42 36 -43 39 -2 40 0 44 49 l2 37 71 -3 70 -3 5 -39 c5 -38 7
-40 40 -41 41 0 50 9 50 53 l0 32 63 0 c62 0 90 -9 86 -26 -1 -5 -1 -21 0 -35
1 -21 6 -25 29 -24 36 2 54 13 51 33 -2 10 0 26 4 37 6 18 14 20 70 17 49 -3
66 -8 75 -23 7 -10 8 -19 3 -19 -10 0 -9 -19 2 -36 7 -12 63 -12 74 0 6 5 10
27 12 64 1 17 125 17 138 -1 6 -6 9 -24 8 -39 -1 -16 2 -29 7 -29 32 -5 55 -4
67 2 18 8 24 39 8 39 -7 0 -5 5 3 10 8 5 11 10 5 10 -5 0 -3 5 5 10 21 14 127
12 136 -1 4 -7 7 -25 6 -40 0 -16 4 -30 9 -30 51 -7 69 -3 70 16 3 63 0 60 68
63 35 2 67 0 72 -5 4 -4 9 -23 11 -41 1 -17 5 -32 8 -33 67 -10 80 -5 80 37 0
39 17 47 96 42 l49 -3 5 -40 c5 -38 7 -40 39 -40 31 0 35 3 38 30 6 54 8 55
82 54 39 -1 70 -4 70 -7 -1 -4 -1 -23 0 -42 1 -35 2 -36 39 -34 20 1 40 3 44
3 4 1 7 9 6 18 -4 54 1 63 37 63 34 0 35 1 35 39 l0 39 -57 -2 c-61 -2 -98 9
-88 25 4 5 2 9 -2 9 -5 0 -17 13 -26 30 -10 16 -16 30 -13 30 3 0 -1 12 -9 27
-8 15 -12 30 -9 35 3 4 1 8 -4 8 -5 0 -18 35 -28 78 -10 42 -22 80 -28 84 -8
5 -7 8 1 8 6 0 9 9 6 20 -3 11 -10 20 -15 20 -5 0 -7 4 -4 9 3 5 1 42 -5 82
-5 41 -12 103 -15 139 -3 36 -7 72 -10 80 -3 8 -7 53 -9 100 -2 47 -5 121 -8
165 -5 81 -11 188 -22 395 -3 63 -7 138 -10 165 -2 28 -6 91 -8 140 -2 50 -5
90 -7 90 -1 0 -3 14 -5 30 -1 17 -4 31 -5 33 -1 1 -4 23 -5 50 -5 65 -18 150
-25 160 -2 1 -3 5 -4 10 -1 4 -5 13 -10 21 -7 10 -6 12 4 6 8 -5 5 6 -6 26
-10 19 -22 36 -26 37 -5 2 -8 10 -8 18 0 9 -4 12 -10 9 -5 -3 -10 -2 -10 3 0
17 -63 2 -77 -17 -7 -11 -20 -26 -28 -34 -8 -8 -11 -17 -8 -21 4 -3 2 -6 -4
-6 -9 0 -24 -34 -27 -62 -1 -3 -4 -10 -8 -14 -5 -4 -8 -16 -8 -26 0 -10 -4
-18 -10 -18 -5 0 -10 -13 -10 -28 0 -15 -4 -32 -10 -38 -5 -5 -12 -25 -14 -44
-2 -19 -8 -34 -13 -33 -5 1 -10 -7 -11 -18 -4 -41 -6 -49 -12 -49 -3 0 -6 -8
-7 -17 -1 -19 -10 -58 -13 -58 -1 0 -3 -7 -5 -15 -2 -8 -12 -40 -23 -70 -10
-30 -20 -57 -20 -60 -5 -31 -28 -100 -33 -100 -5 0 -6 -9 -4 -20 2 -11 1 -20
-3 -20 -4 0 -14 -21 -21 -47 -8 -27 -18 -54 -24 -60 -5 -7 -6 -13 -2 -13 4 0
2 -6 -4 -13 -6 -8 -8 -17 -4 -20 3 -4 1 -7 -4 -7 -6 0 -14 -18 -18 -40 -4 -22
-11 -40 -17 -40 -6 0 -8 -6 -5 -14 3 -8 -1 -20 -9 -26 -8 -7 -14 -9 -15 -4 -5
57 -11 161 -11 207 -1 31 -4 57 -8 57 -3 0 -7 26 -7 58 -2 56 -9 159 -19 257
-3 28 -6 65 -7 83 -1 17 -4 32 -7 32 -4 0 -7 12 -8 28 0 15 -4 43 -7 62 -3 19
-6 46 -8 60 -1 14 -6 28 -12 32 -5 4 -9 17 -10 30 0 29 -35 108 -47 108 -5 0
-7 4 -3 10 9 15 -39 40 -71 38 -25 -2 -84 -50 -82 -67 1 -15 -15 -51 -23 -51
-5 0 -6 -7 -3 -15 3 -8 2 -20 -2 -27 -10 -16 -15 -37 -15 -60 0 -10 -4 -18 -9
-18 -4 0 -6 -13 -4 -30 3 -16 1 -30 -3 -30 -5 0 -9 -21 -8 -46 0 -25 -3 -48
-7 -50 -4 -2 -5 -16 -2 -29 2 -14 1 -25 -4 -25 -5 0 -9 -21 -10 -47 0 -27 -3
-77 -7 -113 -3 -36 -7 -92 -9 -125 -2 -33 -5 -60 -6 -60 -1 0 -4 -29 -6 -65
-4 -66 -12 -187 -13 -205 -2 -18 -19 10 -39 65 -11 30 -26 69 -33 85 -6 17
-13 37 -14 45 -2 8 -14 43 -28 78 -14 34 -26 65 -27 67 0 3 -2 10 -5 17 -2 7
-10 33 -16 58 -15 54 -14 51 -22 70 -16 41 -36 109 -44 153 -3 15 -9 27 -14
27 -5 0 -8 3 -7 8 4 11 -24 102 -31 102 -3 0 -7 10 -7 23 -2 25 -7 42 -21 77
-6 14 -19 44 -28 68 -9 23 -21 42 -27 42 -5 0 -7 4 -4 9 10 15 -40 59 -73 64
-18 3 -31 1 -31 -6z"/>
</g>
</svg>
