<?xml version="1.0" encoding="UTF-8" standalone="no"?>
<!-- This is a Stata 15.1 generated SVG file (http://www.stata.com) -->

<svg version="1.1" width="5.00in" height="6.00in" viewBox="0 0 3600 4320" xmlns="http://www.w3.org/2000/svg" xmlns:xlink="http://www.w3.org/1999/xlink">
	<desc>Stata Graph - Graph</desc>
	<rect x="0" y="0" width="3600" height="4320" style="fill:#FFFFFF;stroke:none"/>
	<rect x="0.00" y="0.14" width="3600.00" height="4319.86" style="fill:#FFFFFF"/>
	<rect x="3.60" y="3.74" width="3592.80" height="4312.66" style="fill:none;stroke:#FFFFFF;stroke-width:7.20"/>
	<rect x="687.44" y="344.25" width="2786.60" height="2324.70" style="fill:#FFFFFF"/>
	<rect x="691.04" y="347.85" width="2779.40" height="2317.50" style="fill:none;stroke:#FFFFFF;stroke-width:7.20"/>
	<line x1="687.44" y1="2647.35" x2="3474.04" y2="2647.35" style="stroke:#FFFFFF;stroke-width:10.80"/>
	<line x1="687.44" y1="2088.59" x2="3474.04" y2="2088.59" style="stroke:#FFFFFF;stroke-width:10.80"/>
	<line x1="687.44" y1="1529.68" x2="3474.04" y2="1529.68" style="stroke:#FFFFFF;stroke-width:10.80"/>
	<line x1="687.44" y1="970.78" x2="3474.04" y2="970.78" style="stroke:#FFFFFF;stroke-width:10.80"/>
	<line x1="687.44" y1="412.02" x2="3474.04" y2="412.02" style="stroke:#FFFFFF;stroke-width:10.80"/>
	<path d=" M797.46 2643.03 L885.89 2640.47 L974.45 2639.11 L1062.88 2637.90 L1151.44 2633.72" stroke-linecap="round" stroke-linejoin="round" style="fill:none;stroke:#396AB1;stroke-width:16.20"/>
	<circle cx="797.46" cy="2643.03" r="17.42" style="fill:#396AB1"/>
	<circle cx="797.46" cy="2643.03" r="9.32" style="fill:none;stroke:#396AB1;stroke-width:16.20"/>
	<circle cx="885.89" cy="2640.47" r="17.42" style="fill:#396AB1"/>
	<circle cx="885.89" cy="2640.47" r="9.32" style="fill:none;stroke:#396AB1;stroke-width:16.20"/>
	<circle cx="974.45" cy="2639.11" r="17.42" style="fill:#396AB1"/>
	<circle cx="974.45" cy="2639.11" r="9.32" style="fill:none;stroke:#396AB1;stroke-width:16.20"/>
	<circle cx="1062.88" cy="2637.90" r="17.42" style="fill:#396AB1"/>
	<circle cx="1062.88" cy="2637.90" r="9.32" style="fill:none;stroke:#396AB1;stroke-width:16.20"/>
	<circle cx="1151.44" cy="2633.72" r="17.42" style="fill:#396AB1"/>
	<circle cx="1151.44" cy="2633.72" r="9.32" style="fill:none;stroke:#396AB1;stroke-width:16.20"/>
	<path d=" M797.46 2643.57 L885.89 2641.55 L974.45 2637.09 L1062.88 2628.72 L1151.44 2626.56 L1239.87 2622.91 L1328.43 2613.33 L1416.86 2597.67 L1505.42 2585.93" stroke-linecap="round" stroke-linejoin="round" style="fill:none;stroke:#DA7C30;stroke-width:16.20"/>
	<circle cx="797.46" cy="2643.57" r="17.42" style="fill:#DA7C30"/>
	<circle cx="797.46" cy="2643.57" r="9.32" style="fill:none;stroke:#DA7C30;stroke-width:16.20"/>
	<circle cx="885.89" cy="2641.55" r="17.42" style="fill:#DA7C30"/>
	<circle cx="885.89" cy="2641.55" r="9.32" style="fill:none;stroke:#DA7C30;stroke-width:16.20"/>
	<circle cx="974.45" cy="2637.09" r="17.42" style="fill:#DA7C30"/>
	<circle cx="974.45" cy="2637.09" r="9.32" style="fill:none;stroke:#DA7C30;stroke-width:16.20"/>
	<circle cx="1062.88" cy="2628.72" r="17.42" style="fill:#DA7C30"/>
	<circle cx="1062.88" cy="2628.72" r="9.32" style="fill:none;stroke:#DA7C30;stroke-width:16.20"/>
	<circle cx="1151.44" cy="2626.56" r="17.42" style="fill:#DA7C30"/>
	<circle cx="1151.44" cy="2626.56" r="9.32" style="fill:none;stroke:#DA7C30;stroke-width:16.20"/>
	<circle cx="1239.87" cy="2622.91" r="17.42" style="fill:#DA7C30"/>
	<circle cx="1239.87" cy="2622.91" r="9.32" style="fill:none;stroke:#DA7C30;stroke-width:16.20"/>
	<circle cx="1328.43" cy="2613.33" r="17.42" style="fill:#DA7C30"/>
	<circle cx="1328.43" cy="2613.33" r="9.32" style="fill:none;stroke:#DA7C30;stroke-width:16.20"/>
	<circle cx="1416.86" cy="2597.67" r="17.42" style="fill:#DA7C30"/>
	<circle cx="1416.86" cy="2597.67" r="9.32" style="fill:none;stroke:#DA7C30;stroke-width:16.20"/>
	<circle cx="1505.42" cy="2585.93" r="17.42" style="fill:#DA7C30"/>
	<circle cx="1505.42" cy="2585.93" r="9.32" style="fill:none;stroke:#DA7C30;stroke-width:16.20"/>
	<path d=" M797.46 2644.65 L885.89 2642.22 L974.45 2639.11 L1062.88 2638.31 L1151.44 2633.98 L1239.87 2630.47 L1328.43 2625.35 L1416.86 2621.97 L1505.42 2611.98 L1593.85 2606.18 L1682.41 2598.61 L1770.97 2579.31 L1859.40 2543.53 L1947.96 2521.66 L2036.39 2490.48 L2124.95 2459.16 L2213.38 2407.18 L2301.94 2340.09 L2390.37 2275.56 L2478.93 2173.50" stroke-linecap="round" stroke-linejoin="round" style="fill:none;stroke:#3E9651;stroke-width:16.20"/>
	<circle cx="797.46" cy="2644.65" r="17.42" style="fill:#3E9651"/>
	<circle cx="797.46" cy="2644.65" r="9.32" style="fill:none;stroke:#3E9651;stroke-width:16.20"/>
	<circle cx="885.89" cy="2642.22" r="17.42" style="fill:#3E9651"/>
	<circle cx="885.89" cy="2642.22" r="9.32" style="fill:none;stroke:#3E9651;stroke-width:16.20"/>
	<circle cx="974.45" cy="2639.11" r="17.42" style="fill:#3E9651"/>
	<circle cx="974.45" cy="2639.11" r="9.32" style="fill:none;stroke:#3E9651;stroke-width:16.20"/>
	<circle cx="1062.88" cy="2638.31" r="17.42" style="fill:#3E9651"/>
	<circle cx="1062.88" cy="2638.31" r="9.32" style="fill:none;stroke:#3E9651;stroke-width:16.20"/>
	<circle cx="1151.44" cy="2633.98" r="17.42" style="fill:#3E9651"/>
	<circle cx="1151.44" cy="2633.98" r="9.32" style="fill:none;stroke:#3E9651;stroke-width:16.20"/>
	<circle cx="1239.87" cy="2630.47" r="17.42" style="fill:#3E9651"/>
	<circle cx="1239.87" cy="2630.47" r="9.32" style="fill:none;stroke:#3E9651;stroke-width:16.20"/>
	<circle cx="1328.43" cy="2625.35" r="17.42" style="fill:#3E9651"/>
	<circle cx="1328.43" cy="2625.35" r="9.32" style="fill:none;stroke:#3E9651;stroke-width:16.20"/>
	<circle cx="1416.86" cy="2621.97" r="17.42" style="fill:#3E9651"/>
	<circle cx="1416.86" cy="2621.97" r="9.32" style="fill:none;stroke:#3E9651;stroke-width:16.20"/>
	<circle cx="1505.42" cy="2611.98" r="17.42" style="fill:#3E9651"/>
	<circle cx="1505.42" cy="2611.98" r="9.32" style="fill:none;stroke:#3E9651;stroke-width:16.20"/>
	<circle cx="1593.85" cy="2606.18" r="17.42" style="fill:#3E9651"/>
	<circle cx="1593.85" cy="2606.18" r="9.32" style="fill:none;stroke:#3E9651;stroke-width:16.20"/>
	<circle cx="1682.41" cy="2598.61" r="17.42" style="fill:#3E9651"/>
	<circle cx="1682.41" cy="2598.61" r="9.32" style="fill:none;stroke:#3E9651;stroke-width:16.20"/>
	<circle cx="1770.97" cy="2579.31" r="17.42" style="fill:#3E9651"/>
	<circle cx="1770.97" cy="2579.31" r="9.32" style="fill:none;stroke:#3E9651;stroke-width:16.20"/>
	<circle cx="1859.40" cy="2543.53" r="17.42" style="fill:#3E9651"/>
	<circle cx="1859.40" cy="2543.53" r="9.32" style="fill:none;stroke:#3E9651;stroke-width:16.20"/>
	<circle cx="1947.96" cy="2521.66" r="17.42" style="fill:#3E9651"/>
	<circle cx="1947.96" cy="2521.66" r="9.32" style="fill:none;stroke:#3E9651;stroke-width:16.20"/>
	<circle cx="2036.39" cy="2490.48" r="17.42" style="fill:#3E9651"/>
	<circle cx="2036.39" cy="2490.48" r="9.32" style="fill:none;stroke:#3E9651;stroke-width:16.20"/>
	<circle cx="2124.95" cy="2459.16" r="17.42" style="fill:#3E9651"/>
	<circle cx="2124.95" cy="2459.16" r="9.32" style="fill:none;stroke:#3E9651;stroke-width:16.20"/>
	<circle cx="2213.38" cy="2407.18" r="17.42" style="fill:#3E9651"/>
	<circle cx="2213.38" cy="2407.18" r="9.32" style="fill:none;stroke:#3E9651;stroke-width:16.20"/>
	<circle cx="2301.94" cy="2340.09" r="17.42" style="fill:#3E9651"/>
	<circle cx="2301.94" cy="2340.09" r="9.32" style="fill:none;stroke:#3E9651;stroke-width:16.20"/>
	<circle cx="2390.37" cy="2275.56" r="17.42" style="fill:#3E9651"/>
	<circle cx="2390.37" cy="2275.56" r="9.32" style="fill:none;stroke:#3E9651;stroke-width:16.20"/>
	<circle cx="2478.93" cy="2173.50" r="17.42" style="fill:#3E9651"/>
	<circle cx="2478.93" cy="2173.50" r="9.32" style="fill:none;stroke:#3E9651;stroke-width:16.20"/>
	<path d=" M797.46 2644.11 L885.89 2643.84 L974.45 2643.84 L1062.88 2643.84 L1151.44 2635.47 L1239.87 2634.93 L1328.43 2628.72 L1416.86 2621.16 L1505.42 2612.25 L1593.85 2605.77 L1682.41 2592.14 L1770.97 2576.74" stroke-linecap="round" stroke-linejoin="round" style="fill:none;stroke:#CC2529;stroke-width:16.20"/>
	<circle cx="797.46" cy="2644.11" r="17.42" style="fill:#CC2529"/>
	<circle cx="797.46" cy="2644.11" r="9.32" style="fill:none;stroke:#CC2529;stroke-width:16.20"/>
	<circle cx="885.89" cy="2643.84" r="17.42" style="fill:#CC2529"/>
	<circle cx="885.89" cy="2643.84" r="9.32" style="fill:none;stroke:#CC2529;stroke-width:16.20"/>
	<circle cx="974.45" cy="2643.84" r="17.42" style="fill:#CC2529"/>
	<circle cx="974.45" cy="2643.84" r="9.32" style="fill:none;stroke:#CC2529;stroke-width:16.20"/>
	<circle cx="1062.88" cy="2643.84" r="17.42" style="fill:#CC2529"/>
	<circle cx="1062.88" cy="2643.84" r="9.32" style="fill:none;stroke:#CC2529;stroke-width:16.20"/>
	<circle cx="1151.44" cy="2635.47" r="17.42" style="fill:#CC2529"/>
	<circle cx="1151.44" cy="2635.47" r="9.32" style="fill:none;stroke:#CC2529;stroke-width:16.20"/>
	<circle cx="1239.87" cy="2634.93" r="17.42" style="fill:#CC2529"/>
	<circle cx="1239.87" cy="2634.93" r="9.32" style="fill:none;stroke:#CC2529;stroke-width:16.20"/>
	<circle cx="1328.43" cy="2628.72" r="17.42" style="fill:#CC2529"/>
	<circle cx="1328.43" cy="2628.72" r="9.32" style="fill:none;stroke:#CC2529;stroke-width:16.20"/>
	<circle cx="1416.86" cy="2621.16" r="17.42" style="fill:#CC2529"/>
	<circle cx="1416.86" cy="2621.16" r="9.32" style="fill:none;stroke:#CC2529;stroke-width:16.20"/>
	<circle cx="1505.42" cy="2612.25" r="17.42" style="fill:#CC2529"/>
	<circle cx="1505.42" cy="2612.25" r="9.32" style="fill:none;stroke:#CC2529;stroke-width:16.20"/>
	<circle cx="1593.85" cy="2605.77" r="17.42" style="fill:#CC2529"/>
	<circle cx="1593.85" cy="2605.77" r="9.32" style="fill:none;stroke:#CC2529;stroke-width:16.20"/>
	<circle cx="1682.41" cy="2592.14" r="17.42" style="fill:#CC2529"/>
	<circle cx="1682.41" cy="2592.14" r="9.32" style="fill:none;stroke:#CC2529;stroke-width:16.20"/>
	<circle cx="1770.97" cy="2576.74" r="17.42" style="fill:#CC2529"/>
	<circle cx="1770.97" cy="2576.74" r="9.32" style="fill:none;stroke:#CC2529;stroke-width:16.20"/>
	<path d=" M797.46 2644.38 L885.89 2644.11 L974.45 2642.76 L1062.88 2641.55 L1151.44 2639.39 L1239.87 2637.63 L1328.43 2632.90 L1416.86 2625.07 L1505.42 2617.52 L1593.85 2606.18 L1682.41 2592.40 L1770.97 2582.41 L1859.40 2545.15 L1947.96 2517.75 L2036.39 2471.18 L2124.95 2416.36 L2213.38 2363.58 L2301.94 2293.11 L2390.37 2244.78 L2478.93 2141.37 L2567.36 2044.44 L2655.92 1947.51 L2744.35 1815.34 L2832.91 1695.47 L2921.34 1520.78 L3009.90 1298.70 L3098.33 1117.39 L3186.89 949.45 L3275.32 741.82 L3363.88 550.39 L3452.31 365.99" stroke-linecap="round" stroke-linejoin="round" style="fill:none;stroke:#535154;stroke-width:16.20"/>
	<circle cx="797.46" cy="2644.38" r="17.42" style="fill:#535154"/>
	<circle cx="797.46" cy="2644.38" r="9.32" style="fill:none;stroke:#535154;stroke-width:16.20"/>
	<circle cx="885.89" cy="2644.11" r="17.42" style="fill:#535154"/>
	<circle cx="885.89" cy="2644.11" r="9.32" style="fill:none;stroke:#535154;stroke-width:16.20"/>
	<circle cx="974.45" cy="2642.76" r="17.42" style="fill:#535154"/>
	<circle cx="974.45" cy="2642.76" r="9.32" style="fill:none;stroke:#535154;stroke-width:16.20"/>
	<circle cx="1062.88" cy="2641.55" r="17.42" style="fill:#535154"/>
	<circle cx="1062.88" cy="2641.55" r="9.32" style="fill:none;stroke:#535154;stroke-width:16.20"/>
	<circle cx="1151.44" cy="2639.39" r="17.42" style="fill:#535154"/>
	<circle cx="1151.44" cy="2639.39" r="9.32" style="fill:none;stroke:#535154;stroke-width:16.20"/>
	<circle cx="1239.87" cy="2637.63" r="17.42" style="fill:#535154"/>
	<circle cx="1239.87" cy="2637.63" r="9.32" style="fill:none;stroke:#535154;stroke-width:16.20"/>
	<circle cx="1328.43" cy="2632.90" r="17.42" style="fill:#535154"/>
	<circle cx="1328.43" cy="2632.90" r="9.32" style="fill:none;stroke:#535154;stroke-width:16.20"/>
	<circle cx="1416.86" cy="2625.07" r="17.42" style="fill:#535154"/>
	<circle cx="1416.86" cy="2625.07" r="9.32" style="fill:none;stroke:#535154;stroke-width:16.20"/>
	<circle cx="1505.42" cy="2617.52" r="17.42" style="fill:#535154"/>
	<circle cx="1505.42" cy="2617.52" r="9.32" style="fill:none;stroke:#535154;stroke-width:16.20"/>
	<circle cx="1593.85" cy="2606.18" r="17.42" style="fill:#535154"/>
	<circle cx="1593.85" cy="2606.18" r="9.32" style="fill:none;stroke:#535154;stroke-width:16.20"/>
	<circle cx="1682.41" cy="2592.40" r="17.42" style="fill:#535154"/>
	<circle cx="1682.41" cy="2592.40" r="9.32" style="fill:none;stroke:#535154;stroke-width:16.20"/>
	<circle cx="1770.97" cy="2582.41" r="17.42" style="fill:#535154"/>
	<circle cx="1770.97" cy="2582.41" r="9.32" style="fill:none;stroke:#535154;stroke-width:16.20"/>
	<circle cx="1859.40" cy="2545.15" r="17.42" style="fill:#535154"/>
	<circle cx="1859.40" cy="2545.15" r="9.32" style="fill:none;stroke:#535154;stroke-width:16.20"/>
	<circle cx="1947.96" cy="2517.75" r="17.42" style="fill:#535154"/>
	<circle cx="1947.96" cy="2517.75" r="9.32" style="fill:none;stroke:#535154;stroke-width:16.20"/>
	<circle cx="2036.39" cy="2471.18" r="17.42" style="fill:#535154"/>
	<circle cx="2036.39" cy="2471.18" r="9.32" style="fill:none;stroke:#535154;stroke-width:16.20"/>
	<circle cx="2124.95" cy="2416.36" r="17.42" style="fill:#535154"/>
	<circle cx="2124.95" cy="2416.36" r="9.32" style="fill:none;stroke:#535154;stroke-width:16.20"/>
	<circle cx="2213.38" cy="2363.58" r="17.42" style="fill:#535154"/>
	<circle cx="2213.38" cy="2363.58" r="9.32" style="fill:none;stroke:#535154;stroke-width:16.20"/>
	<circle cx="2301.94" cy="2293.11" r="17.42" style="fill:#535154"/>
	<circle cx="2301.94" cy="2293.11" r="9.32" style="fill:none;stroke:#535154;stroke-width:16.20"/>
	<circle cx="2390.37" cy="2244.78" r="17.42" style="fill:#535154"/>
	<circle cx="2390.37" cy="2244.78" r="9.32" style="fill:none;stroke:#535154;stroke-width:16.20"/>
	<circle cx="2478.93" cy="2141.37" r="17.42" style="fill:#535154"/>
	<circle cx="2478.93" cy="2141.37" r="9.32" style="fill:none;stroke:#535154;stroke-width:16.20"/>
	<circle cx="2567.36" cy="2044.44" r="17.42" style="fill:#535154"/>
	<circle cx="2567.36" cy="2044.44" r="9.32" style="fill:none;stroke:#535154;stroke-width:16.20"/>
	<circle cx="2655.92" cy="1947.51" r="17.42" style="fill:#535154"/>
	<circle cx="2655.92" cy="1947.51" r="9.32" style="fill:none;stroke:#535154;stroke-width:16.20"/>
	<circle cx="2744.35" cy="1815.34" r="17.42" style="fill:#535154"/>
	<circle cx="2744.35" cy="1815.34" r="9.32" style="fill:none;stroke:#535154;stroke-width:16.20"/>
	<circle cx="2832.91" cy="1695.47" r="17.42" style="fill:#535154"/>
	<circle cx="2832.91" cy="1695.47" r="9.32" style="fill:none;stroke:#535154;stroke-width:16.20"/>
	<circle cx="2921.34" cy="1520.78" r="17.42" style="fill:#535154"/>
	<circle cx="2921.34" cy="1520.78" r="9.32" style="fill:none;stroke:#535154;stroke-width:16.20"/>
	<circle cx="3009.90" cy="1298.70" r="17.42" style="fill:#535154"/>
	<circle cx="3009.90" cy="1298.70" r="9.32" style="fill:none;stroke:#535154;stroke-width:16.20"/>
	<circle cx="3098.33" cy="1117.39" r="17.42" style="fill:#535154"/>
	<circle cx="3098.33" cy="1117.39" r="9.32" style="fill:none;stroke:#535154;stroke-width:16.20"/>
	<circle cx="3186.89" cy="949.45" r="17.42" style="fill:#535154"/>
	<circle cx="3186.89" cy="949.45" r="9.32" style="fill:none;stroke:#535154;stroke-width:16.20"/>
	<circle cx="3275.32" cy="741.82" r="17.42" style="fill:#535154"/>
	<circle cx="3275.32" cy="741.82" r="9.32" style="fill:none;stroke:#535154;stroke-width:16.20"/>
	<circle cx="3363.88" cy="550.39" r="17.42" style="fill:#535154"/>
	<circle cx="3363.88" cy="550.39" r="9.32" style="fill:none;stroke:#535154;stroke-width:16.20"/>
	<circle cx="3452.31" cy="365.99" r="17.42" style="fill:#535154"/>
	<circle cx="3452.31" cy="365.99" r="9.32" style="fill:none;stroke:#535154;stroke-width:16.20"/>
	<path d=" M797.46 2644.11 L885.89 2641.82 L974.45 2640.73 L1062.88 2635.47 L1151.44 2631.28 L1239.87 2626.29 L1328.43 2617.78 L1416.86 2609.41 L1505.42 2597.40 L1593.85 2587.95 L1682.41 2570.40 L1770.97 2547.99 L1859.40 2526.26" stroke-linecap="round" stroke-linejoin="round" style="fill:none;stroke:#6B4C9A;stroke-width:16.20"/>
	<circle cx="797.46" cy="2644.11" r="17.42" style="fill:#6B4C9A"/>
	<circle cx="797.46" cy="2644.11" r="9.32" style="fill:none;stroke:#6B4C9A;stroke-width:16.20"/>
	<circle cx="885.89" cy="2641.82" r="17.42" style="fill:#6B4C9A"/>
	<circle cx="885.89" cy="2641.82" r="9.32" style="fill:none;stroke:#6B4C9A;stroke-width:16.20"/>
	<circle cx="974.45" cy="2640.73" r="17.42" style="fill:#6B4C9A"/>
	<circle cx="974.45" cy="2640.73" r="9.32" style="fill:none;stroke:#6B4C9A;stroke-width:16.20"/>
	<circle cx="1062.88" cy="2635.47" r="17.42" style="fill:#6B4C9A"/>
	<circle cx="1062.88" cy="2635.47" r="9.32" style="fill:none;stroke:#6B4C9A;stroke-width:16.20"/>
	<circle cx="1151.44" cy="2631.28" r="17.42" style="fill:#6B4C9A"/>
	<circle cx="1151.44" cy="2631.28" r="9.32" style="fill:none;stroke:#6B4C9A;stroke-width:16.20"/>
	<circle cx="1239.87" cy="2626.29" r="17.42" style="fill:#6B4C9A"/>
	<circle cx="1239.87" cy="2626.29" r="9.32" style="fill:none;stroke:#6B4C9A;stroke-width:16.20"/>
	<circle cx="1328.43" cy="2617.78" r="17.42" style="fill:#6B4C9A"/>
	<circle cx="1328.43" cy="2617.78" r="9.32" style="fill:none;stroke:#6B4C9A;stroke-width:16.20"/>
	<circle cx="1416.86" cy="2609.41" r="17.42" style="fill:#6B4C9A"/>
	<circle cx="1416.86" cy="2609.41" r="9.32" style="fill:none;stroke:#6B4C9A;stroke-width:16.20"/>
	<circle cx="1505.42" cy="2597.40" r="17.42" style="fill:#6B4C9A"/>
	<circle cx="1505.42" cy="2597.40" r="9.32" style="fill:none;stroke:#6B4C9A;stroke-width:16.20"/>
	<circle cx="1593.85" cy="2587.95" r="17.42" style="fill:#6B4C9A"/>
	<circle cx="1593.85" cy="2587.95" r="9.32" style="fill:none;stroke:#6B4C9A;stroke-width:16.20"/>
	<circle cx="1682.41" cy="2570.40" r="17.42" style="fill:#6B4C9A"/>
	<circle cx="1682.41" cy="2570.40" r="9.32" style="fill:none;stroke:#6B4C9A;stroke-width:16.20"/>
	<circle cx="1770.97" cy="2547.99" r="17.42" style="fill:#6B4C9A"/>
	<circle cx="1770.97" cy="2547.99" r="9.32" style="fill:none;stroke:#6B4C9A;stroke-width:16.20"/>
	<circle cx="1859.40" cy="2526.26" r="17.42" style="fill:#6B4C9A"/>
	<circle cx="1859.40" cy="2526.26" r="9.32" style="fill:none;stroke:#6B4C9A;stroke-width:16.20"/>
	<path d=" M797.46 2644.11 L885.89 2643.57 L974.45 2641.01 L1062.88 2638.31 L1151.44 2635.47 L1239.87 2630.74" stroke-linecap="round" stroke-linejoin="round" style="fill:none;stroke:#920328;stroke-width:16.20"/>
	<circle cx="797.46" cy="2644.11" r="17.42" style="fill:#920328"/>
	<circle cx="797.46" cy="2644.11" r="9.32" style="fill:none;stroke:#920328;stroke-width:16.20"/>
	<circle cx="885.89" cy="2643.57" r="17.42" style="fill:#920328"/>
	<circle cx="885.89" cy="2643.57" r="9.32" style="fill:none;stroke:#920328;stroke-width:16.20"/>
	<circle cx="974.45" cy="2641.01" r="17.42" style="fill:#920328"/>
	<circle cx="974.45" cy="2641.01" r="9.32" style="fill:none;stroke:#920328;stroke-width:16.20"/>
	<circle cx="1062.88" cy="2638.31" r="17.42" style="fill:#920328"/>
	<circle cx="1062.88" cy="2638.31" r="9.32" style="fill:none;stroke:#920328;stroke-width:16.20"/>
	<circle cx="1151.44" cy="2635.47" r="17.42" style="fill:#920328"/>
	<circle cx="1151.44" cy="2635.47" r="9.32" style="fill:none;stroke:#920328;stroke-width:16.20"/>
	<circle cx="1239.87" cy="2630.74" r="17.42" style="fill:#920328"/>
	<circle cx="1239.87" cy="2630.74" r="9.32" style="fill:none;stroke:#920328;stroke-width:16.20"/>
	<path d=" M797.46 2639.65 L885.89 2637.63 L974.45 2634.39 L1062.88 2623.99 L1151.44 2613.60 L1239.87 2609.41 L1328.43 2567.03 L1416.86 2561.09 L1505.42 2510.32 L1593.85 2480.36 L1682.41 2433.11 L1770.97 2367.49 L1859.40 2276.91 L1947.96 2166.89 L2036.39 2037.82 L2124.95 1894.18 L2213.38 1687.91 L2301.94 1504.84" stroke-linecap="round" stroke-linejoin="round" style="fill:none;stroke:#948BA1;stroke-width:16.20"/>
	<circle cx="797.46" cy="2639.65" r="17.42" style="fill:#948BA1"/>
	<circle cx="797.46" cy="2639.65" r="9.32" style="fill:none;stroke:#948BA1;stroke-width:16.20"/>
	<circle cx="885.89" cy="2637.63" r="17.42" style="fill:#948BA1"/>
	<circle cx="885.89" cy="2637.63" r="9.32" style="fill:none;stroke:#948BA1;stroke-width:16.20"/>
	<circle cx="974.45" cy="2634.39" r="17.42" style="fill:#948BA1"/>
	<circle cx="974.45" cy="2634.39" r="9.32" style="fill:none;stroke:#948BA1;stroke-width:16.20"/>
	<circle cx="1062.88" cy="2623.99" r="17.42" style="fill:#948BA1"/>
	<circle cx="1062.88" cy="2623.99" r="9.32" style="fill:none;stroke:#948BA1;stroke-width:16.20"/>
	<circle cx="1151.44" cy="2613.60" r="17.42" style="fill:#948BA1"/>
	<circle cx="1151.44" cy="2613.60" r="9.32" style="fill:none;stroke:#948BA1;stroke-width:16.20"/>
	<circle cx="1239.87" cy="2609.41" r="17.42" style="fill:#948BA1"/>
	<circle cx="1239.87" cy="2609.41" r="9.32" style="fill:none;stroke:#948BA1;stroke-width:16.20"/>
	<circle cx="1328.43" cy="2567.03" r="17.42" style="fill:#948BA1"/>
	<circle cx="1328.43" cy="2567.03" r="9.32" style="fill:none;stroke:#948BA1;stroke-width:16.20"/>
	<circle cx="1416.86" cy="2561.09" r="17.42" style="fill:#948BA1"/>
	<circle cx="1416.86" cy="2561.09" r="9.32" style="fill:none;stroke:#948BA1;stroke-width:16.20"/>
	<circle cx="1505.42" cy="2510.32" r="17.42" style="fill:#948BA1"/>
	<circle cx="1505.42" cy="2510.32" r="9.32" style="fill:none;stroke:#948BA1;stroke-width:16.20"/>
	<circle cx="1593.85" cy="2480.36" r="17.42" style="fill:#948BA1"/>
	<circle cx="1593.85" cy="2480.36" r="9.32" style="fill:none;stroke:#948BA1;stroke-width:16.20"/>
	<circle cx="1682.41" cy="2433.11" r="17.42" style="fill:#948BA1"/>
	<circle cx="1682.41" cy="2433.11" r="9.32" style="fill:none;stroke:#948BA1;stroke-width:16.20"/>
	<circle cx="1770.97" cy="2367.49" r="17.42" style="fill:#948BA1"/>
	<circle cx="1770.97" cy="2367.49" r="9.32" style="fill:none;stroke:#948BA1;stroke-width:16.20"/>
	<circle cx="1859.40" cy="2276.91" r="17.42" style="fill:#948BA1"/>
	<circle cx="1859.40" cy="2276.91" r="9.32" style="fill:none;stroke:#948BA1;stroke-width:16.20"/>
	<circle cx="1947.96" cy="2166.89" r="17.42" style="fill:#948BA1"/>
	<circle cx="1947.96" cy="2166.89" r="9.32" style="fill:none;stroke:#948BA1;stroke-width:16.20"/>
	<circle cx="2036.39" cy="2037.82" r="17.42" style="fill:#948BA1"/>
	<circle cx="2036.39" cy="2037.82" r="9.32" style="fill:none;stroke:#948BA1;stroke-width:16.20"/>
	<circle cx="2124.95" cy="1894.18" r="17.42" style="fill:#948BA1"/>
	<circle cx="2124.95" cy="1894.18" r="9.32" style="fill:none;stroke:#948BA1;stroke-width:16.20"/>
	<circle cx="2213.38" cy="1687.91" r="17.42" style="fill:#948BA1"/>
	<circle cx="2213.38" cy="1687.91" r="9.32" style="fill:none;stroke:#948BA1;stroke-width:16.20"/>
	<circle cx="2301.94" cy="1504.84" r="17.42" style="fill:#948BA1"/>
	<circle cx="2301.94" cy="1504.84" r="9.32" style="fill:none;stroke:#948BA1;stroke-width:16.20"/>
	<path d=" M797.46 2644.65 L885.89 2644.65 L974.45 2643.03 L1062.88 2641.82 L1151.44 2641.55 L1239.87 2640.47 L1328.43 2637.36 L1416.86 2635.74 L1505.42 2628.99" stroke-linecap="round" stroke-linejoin="round" style="fill:none;stroke:#7293CB;stroke-width:16.20"/>
	<circle cx="797.46" cy="2644.65" r="17.42" style="fill:#7293CB"/>
	<circle cx="797.46" cy="2644.65" r="9.32" style="fill:none;stroke:#7293CB;stroke-width:16.20"/>
	<circle cx="885.89" cy="2644.65" r="17.42" style="fill:#7293CB"/>
	<circle cx="885.89" cy="2644.65" r="9.32" style="fill:none;stroke:#7293CB;stroke-width:16.20"/>
	<circle cx="974.45" cy="2643.03" r="17.42" style="fill:#7293CB"/>
	<circle cx="974.45" cy="2643.03" r="9.32" style="fill:none;stroke:#7293CB;stroke-width:16.20"/>
	<circle cx="1062.88" cy="2641.82" r="17.42" style="fill:#7293CB"/>
	<circle cx="1062.88" cy="2641.82" r="9.32" style="fill:none;stroke:#7293CB;stroke-width:16.20"/>
	<circle cx="1151.44" cy="2641.55" r="17.42" style="fill:#7293CB"/>
	<circle cx="1151.44" cy="2641.55" r="9.32" style="fill:none;stroke:#7293CB;stroke-width:16.20"/>
	<circle cx="1239.87" cy="2640.47" r="17.42" style="fill:#7293CB"/>
	<circle cx="1239.87" cy="2640.47" r="9.32" style="fill:none;stroke:#7293CB;stroke-width:16.20"/>
	<circle cx="1328.43" cy="2637.36" r="17.42" style="fill:#7293CB"/>
	<circle cx="1328.43" cy="2637.36" r="9.32" style="fill:none;stroke:#7293CB;stroke-width:16.20"/>
	<circle cx="1416.86" cy="2635.74" r="17.42" style="fill:#7293CB"/>
	<circle cx="1416.86" cy="2635.74" r="9.32" style="fill:none;stroke:#7293CB;stroke-width:16.20"/>
	<circle cx="1505.42" cy="2628.99" r="17.42" style="fill:#7293CB"/>
	<circle cx="1505.42" cy="2628.99" r="9.32" style="fill:none;stroke:#7293CB;stroke-width:16.20"/>
	<path d=" M797.46 2644.65 L885.89 2644.65 L974.45 2641.55 L1062.88 2637.63 L1151.44 2632.10 L1239.87 2630.74 L1328.43 2618.73 L1416.86 2607.26 L1505.42 2597.94 L1593.85 2582.41 L1682.41 2568.91 L1770.97 2553.80 L1859.40 2529.49 L1947.96 2518.15 L2036.39 2485.89" stroke-linecap="round" stroke-linejoin="round" style="fill:none;stroke:#E1974C;stroke-width:16.20"/>
	<circle cx="797.46" cy="2644.65" r="17.42" style="fill:#E1974C"/>
	<circle cx="797.46" cy="2644.65" r="9.32" style="fill:none;stroke:#E1974C;stroke-width:16.20"/>
	<circle cx="885.89" cy="2644.65" r="17.42" style="fill:#E1974C"/>
	<circle cx="885.89" cy="2644.65" r="9.32" style="fill:none;stroke:#E1974C;stroke-width:16.20"/>
	<circle cx="974.45" cy="2641.55" r="17.42" style="fill:#E1974C"/>
	<circle cx="974.45" cy="2641.55" r="9.32" style="fill:none;stroke:#E1974C;stroke-width:16.20"/>
	<circle cx="1062.88" cy="2637.63" r="17.42" style="fill:#E1974C"/>
	<circle cx="1062.88" cy="2637.63" r="9.32" style="fill:none;stroke:#E1974C;stroke-width:16.20"/>
	<circle cx="1151.44" cy="2632.10" r="17.42" style="fill:#E1974C"/>
	<circle cx="1151.44" cy="2632.10" r="9.32" style="fill:none;stroke:#E1974C;stroke-width:16.20"/>
	<circle cx="1239.87" cy="2630.74" r="17.42" style="fill:#E1974C"/>
	<circle cx="1239.87" cy="2630.74" r="9.32" style="fill:none;stroke:#E1974C;stroke-width:16.20"/>
	<circle cx="1328.43" cy="2618.73" r="17.42" style="fill:#E1974C"/>
	<circle cx="1328.43" cy="2618.73" r="9.32" style="fill:none;stroke:#E1974C;stroke-width:16.20"/>
	<circle cx="1416.86" cy="2607.26" r="17.42" style="fill:#E1974C"/>
	<circle cx="1416.86" cy="2607.26" r="9.32" style="fill:none;stroke:#E1974C;stroke-width:16.20"/>
	<circle cx="1505.42" cy="2597.94" r="17.42" style="fill:#E1974C"/>
	<circle cx="1505.42" cy="2597.94" r="9.32" style="fill:none;stroke:#E1974C;stroke-width:16.20"/>
	<circle cx="1593.85" cy="2582.41" r="17.42" style="fill:#E1974C"/>
	<circle cx="1593.85" cy="2582.41" r="9.32" style="fill:none;stroke:#E1974C;stroke-width:16.20"/>
	<circle cx="1682.41" cy="2568.91" r="17.42" style="fill:#E1974C"/>
	<circle cx="1682.41" cy="2568.91" r="9.32" style="fill:none;stroke:#E1974C;stroke-width:16.20"/>
	<circle cx="1770.97" cy="2553.80" r="17.42" style="fill:#E1974C"/>
	<circle cx="1770.97" cy="2553.80" r="9.32" style="fill:none;stroke:#E1974C;stroke-width:16.20"/>
	<circle cx="1859.40" cy="2529.49" r="17.42" style="fill:#E1974C"/>
	<circle cx="1859.40" cy="2529.49" r="9.32" style="fill:none;stroke:#E1974C;stroke-width:16.20"/>
	<circle cx="1947.96" cy="2518.15" r="17.42" style="fill:#E1974C"/>
	<circle cx="1947.96" cy="2518.15" r="9.32" style="fill:none;stroke:#E1974C;stroke-width:16.20"/>
	<circle cx="2036.39" cy="2485.89" r="17.42" style="fill:#E1974C"/>
	<circle cx="2036.39" cy="2485.89" r="9.32" style="fill:none;stroke:#E1974C;stroke-width:16.20"/>
	<line x1="687.44" y1="2668.95" x2="687.44" y2="344.25" style="stroke:#000000;stroke-width:7.20"/>
	<line x1="687.44" y1="2647.35" x2="637.49" y2="2647.35" style="stroke:#000000;stroke-width:7.20"/>
	<text x="612.38" y="2691.14" style="font-family:'Helvetica';font-size:125.01px;fill:#000000" text-anchor="end">0</text>
	<line x1="687.44" y1="2088.59" x2="637.49" y2="2088.59" style="stroke:#000000;stroke-width:7.20"/>
	<text x="612.38" y="2132.37" style="font-family:'Helvetica';font-size:125.01px;fill:#000000" text-anchor="end">2000</text>
	<line x1="687.44" y1="1529.68" x2="637.49" y2="1529.68" style="stroke:#000000;stroke-width:7.20"/>
	<text x="612.38" y="1573.47" style="font-family:'Helvetica';font-size:125.01px;fill:#000000" text-anchor="end">4000</text>
	<line x1="687.44" y1="970.78" x2="637.49" y2="970.78" style="stroke:#000000;stroke-width:7.20"/>
	<text x="612.38" y="1014.57" style="font-family:'Helvetica';font-size:125.01px;fill:#000000" text-anchor="end">6000</text>
	<line x1="687.44" y1="412.02" x2="637.49" y2="412.02" style="stroke:#000000;stroke-width:7.20"/>
	<text x="612.38" y="455.81" style="font-family:'Helvetica';font-size:125.01px;fill:#000000" text-anchor="end">8000</text>
	<text x="238.38" y="1506.60" style="font-family:'Helvetica';font-size:125.01px;fill:#000000" transform="rotate(-90 238.38,1506.60)" text-anchor="middle">Number of cases</text>
	<line x1="687.44" y1="2668.95" x2="3474.04" y2="2668.95" style="stroke:#000000;stroke-width:7.20"/>
	<line x1="709.04" y1="2668.95" x2="709.04" y2="2719.03" style="stroke:#000000;stroke-width:7.20"/>
	<text x="709.04" y="2831.45" style="font-family:'Helvetica';font-size:125.01px;fill:#000000" text-anchor="middle">0</text>
	<line x1="1593.98" y1="2668.95" x2="1593.98" y2="2719.03" style="stroke:#000000;stroke-width:7.20"/>
	<text x="1593.98" y="2831.45" style="font-family:'Helvetica';font-size:125.01px;fill:#000000" text-anchor="middle">10</text>
	<line x1="2478.93" y1="2668.95" x2="2478.93" y2="2719.03" style="stroke:#000000;stroke-width:7.20"/>
	<text x="2478.93" y="2831.45" style="font-family:'Helvetica';font-size:125.01px;fill:#000000" text-anchor="middle">20</text>
	<line x1="3363.88" y1="2668.95" x2="3363.88" y2="2719.03" style="stroke:#000000;stroke-width:7.20"/>
	<text x="3363.88" y="2831.45" style="font-family:'Helvetica';font-size:125.01px;fill:#000000" text-anchor="middle">30</text>
	<text x="2080.67" y="2968.88" style="font-family:'Helvetica';font-size:125.01px;fill:#000000" text-anchor="middle">Days since 100th case</text>
	<rect x="888.59" y="3074.62" width="2384.29" height="932.99" style="fill:#FFFFFF"/>
	<rect x="892.19" y="3078.22" width="2377.09" height="925.79" style="fill:none;stroke:#000000;stroke-width:7.20"/>
	<line x1="942.59" y1="3191.13" x2="1410.52" y2="3191.13" style="stroke:#396AB1;stroke-width:16.20"/>
	<circle cx="1176.55" cy="3191.13" r="17.42" style="fill:#396AB1"/>
	<circle cx="1176.55" cy="3191.13" r="9.32" style="fill:none;stroke:#396AB1;stroke-width:16.20"/>
	<line x1="2080.67" y1="3191.13" x2="2548.73" y2="3191.13" style="stroke:#DA7C30;stroke-width:16.20"/>
	<circle cx="2314.63" cy="3191.13" r="17.42" style="fill:#DA7C30"/>
	<circle cx="2314.63" cy="3191.13" r="9.32" style="fill:none;stroke:#DA7C30;stroke-width:16.20"/>
	<line x1="942.59" y1="3366.22" x2="1410.52" y2="3366.22" style="stroke:#3E9651;stroke-width:16.20"/>
	<circle cx="1176.55" cy="3366.22" r="17.42" style="fill:#3E9651"/>
	<circle cx="1176.55" cy="3366.22" r="9.32" style="fill:none;stroke:#3E9651;stroke-width:16.20"/>
	<line x1="2080.67" y1="3366.22" x2="2548.73" y2="3366.22" style="stroke:#CC2529;stroke-width:16.20"/>
	<circle cx="2314.63" cy="3366.22" r="17.42" style="fill:#CC2529"/>
	<circle cx="2314.63" cy="3366.22" r="9.32" style="fill:none;stroke:#CC2529;stroke-width:16.20"/>
	<line x1="942.59" y1="3541.18" x2="1410.52" y2="3541.18" style="stroke:#535154;stroke-width:16.20"/>
	<circle cx="1176.55" cy="3541.18" r="17.42" style="fill:#535154"/>
	<circle cx="1176.55" cy="3541.18" r="9.32" style="fill:none;stroke:#535154;stroke-width:16.20"/>
	<line x1="2080.67" y1="3541.18" x2="2548.73" y2="3541.18" style="stroke:#6B4C9A;stroke-width:16.20"/>
	<circle cx="2314.63" cy="3541.18" r="17.42" style="fill:#6B4C9A"/>
	<circle cx="2314.63" cy="3541.18" r="9.32" style="fill:none;stroke:#6B4C9A;stroke-width:16.20"/>
	<line x1="942.59" y1="3716.14" x2="1410.52" y2="3716.14" style="stroke:#920328;stroke-width:16.20"/>
	<circle cx="1176.55" cy="3716.14" r="17.42" style="fill:#920328"/>
	<circle cx="1176.55" cy="3716.14" r="9.32" style="fill:none;stroke:#920328;stroke-width:16.20"/>
	<line x1="2080.67" y1="3716.14" x2="2548.73" y2="3716.14" style="stroke:#948BA1;stroke-width:16.20"/>
	<circle cx="2314.63" cy="3716.14" r="17.42" style="fill:#948BA1"/>
	<circle cx="2314.63" cy="3716.14" r="9.32" style="fill:none;stroke:#948BA1;stroke-width:16.20"/>
	<line x1="942.59" y1="3891.11" x2="1410.52" y2="3891.11" style="stroke:#7293CB;stroke-width:16.20"/>
	<circle cx="1176.55" cy="3891.11" r="17.42" style="fill:#7293CB"/>
	<circle cx="1176.55" cy="3891.11" r="9.32" style="fill:none;stroke:#7293CB;stroke-width:16.20"/>
	<line x1="2080.67" y1="3891.11" x2="2548.73" y2="3891.11" style="stroke:#E1974C;stroke-width:16.20"/>
	<circle cx="2314.63" cy="3891.11" r="17.42" style="fill:#E1974C"/>
	<circle cx="2314.63" cy="3891.11" r="9.32" style="fill:none;stroke:#E1974C;stroke-width:16.20"/>
	<text x="1485.58" y="3226.18" style="font-family:'Helvetica';font-size:100.04px;fill:#000000"> Austria</text>
	<text x="2623.66" y="3226.18" style="font-family:'Helvetica';font-size:100.04px;fill:#000000"> Belgium</text>
	<text x="1485.58" y="3401.27" style="font-family:'Helvetica';font-size:100.04px;fill:#000000"> France</text>
	<text x="2623.66" y="3401.27" style="font-family:'Helvetica';font-size:100.04px;fill:#000000"> Germany</text>
	<text x="1485.58" y="3576.23" style="font-family:'Helvetica';font-size:100.04px;fill:#000000"> Italy</text>
	<text x="2623.66" y="3576.23" style="font-family:'Helvetica';font-size:100.04px;fill:#000000"> Netherlands</text>
	<text x="1485.58" y="3751.19" style="font-family:'Helvetica';font-size:100.04px;fill:#000000"> Portugal</text>
	<text x="2623.66" y="3751.19" style="font-family:'Helvetica';font-size:100.04px;fill:#000000"> Spain</text>
	<text x="1485.58" y="3926.15" style="font-family:'Helvetica';font-size:100.04px;fill:#000000"> Sweden</text>
	<text x="2623.66" y="3926.15" style="font-family:'Helvetica';font-size:100.04px;fill:#000000"> UK</text>
	<text x="709.04" y="4142.37" style="font-family:'Helvetica';font-size:100.04px;fill:#000000">Source: Learning from the curve. Data: ww.ecdc.europa.eu.</text>
	<text x="2080.67" y="270.09" style="font-family:'Helvetica';font-size:174.96px;fill:#000000" text-anchor="middle">Cumulative deaths</text>
</svg>
