<?xml version="1.0" encoding="UTF-8" standalone="no"?>
<!-- This is a Stata 15.1 generated SVG file (http://www.stata.com) -->

<svg version="1.1" width="5.50in" height="6.00in" viewBox="0 0 3800 4320" xmlns="http://www.w3.org/2000/svg" xmlns:xlink="http://www.w3.org/1999/xlink">
	<desc>Stata Graph - Graph</desc>
	<rect x="0" y="0" width="3800" height="4320" style="fill:#FFFFFF;stroke:none"/>
	<rect x="0.00" y="0.14" width="3600.00" height="4319.86" style="fill:#FFFFFF"/>
	<rect x="3.60" y="3.74" width="3592.80" height="4312.66" style="fill:none;stroke:#FFFFFF;stroke-width:7.20"/>
	<rect x="545.14" y="344.25" width="2928.90" height="2324.70" style="fill:#FFFFFF"/>
	<rect x="548.74" y="347.85" width="2921.70" height="2317.50" style="fill:none;stroke:#FFFFFF;stroke-width:7.20"/>
	<line x1="545.14" y1="2647.35" x2="3474.04" y2="2647.35" style="stroke:#FFFFFF;stroke-width:10.80"/>
	<line x1="545.14" y1="1886.89" x2="3474.04" y2="1886.89" style="stroke:#FFFFFF;stroke-width:10.80"/>
	<line x1="545.14" y1="1126.44" x2="3474.04" y2="1126.44" style="stroke:#FFFFFF;stroke-width:10.80"/>
	<line x1="545.14" y1="365.85" x2="3474.04" y2="365.85" style="stroke:#FFFFFF;stroke-width:10.80"/>
	<path d=" M635.46 2628.99 L704.04 2619.81 L772.76 2598.75 L841.48 2559.19 L910.19 2548.66 L978.91 2531.52 L1047.63 2486.70 L1116.34 2412.86 L1185.06 2357.51" stroke-linecap="round" stroke-linejoin="round" style="fill:none;stroke:#396AB1;stroke-width:16.20"/>
	<circle cx="635.46" cy="2628.99" r="17.42" style="fill:#396AB1"/>
	<circle cx="635.46" cy="2628.99" r="9.32" style="fill:none;stroke:#396AB1;stroke-width:16.20"/>
	<circle cx="704.04" cy="2619.81" r="17.42" style="fill:#396AB1"/>
	<circle cx="704.04" cy="2619.81" r="9.32" style="fill:none;stroke:#396AB1;stroke-width:16.20"/>
	<circle cx="772.76" cy="2598.75" r="17.42" style="fill:#396AB1"/>
	<circle cx="772.76" cy="2598.75" r="9.32" style="fill:none;stroke:#396AB1;stroke-width:16.20"/>
	<circle cx="841.48" cy="2559.19" r="17.42" style="fill:#396AB1"/>
	<circle cx="841.48" cy="2559.19" r="9.32" style="fill:none;stroke:#396AB1;stroke-width:16.20"/>
	<circle cx="910.19" cy="2548.66" r="17.42" style="fill:#396AB1"/>
	<circle cx="910.19" cy="2548.66" r="9.32" style="fill:none;stroke:#396AB1;stroke-width:16.20"/>
	<circle cx="978.91" cy="2531.52" r="17.42" style="fill:#396AB1"/>
	<circle cx="978.91" cy="2531.52" r="9.32" style="fill:none;stroke:#396AB1;stroke-width:16.20"/>
	<circle cx="1047.63" cy="2486.70" r="17.42" style="fill:#396AB1"/>
	<circle cx="1047.63" cy="2486.70" r="9.32" style="fill:none;stroke:#396AB1;stroke-width:16.20"/>
	<circle cx="1116.34" cy="2412.86" r="17.42" style="fill:#396AB1"/>
	<circle cx="1116.34" cy="2412.86" r="9.32" style="fill:none;stroke:#396AB1;stroke-width:16.20"/>
	<circle cx="1185.06" cy="2357.51" r="17.42" style="fill:#396AB1"/>
	<circle cx="1185.06" cy="2357.51" r="9.32" style="fill:none;stroke:#396AB1;stroke-width:16.20"/>
	<path d=" M635.46 2631.28 L704.04 2629.80 L772.76 2628.72 L841.48 2627.64 L910.19 2626.15 L978.91 2624.94 L1047.63 2623.72 L1116.34 2622.51 L1185.06 2621.57 L1253.78 2619.94 L1322.49 2619.14 L1391.21 2618.60 L1459.93 2618.32 L1528.51 2617.92 L1597.22 2617.38 L1665.94 2616.97 L1734.66 2616.57 L1803.38 2616.16 L1872.09 2615.76 L1940.81 2615.49 L2009.53 2615.22 L2078.24 2614.82 L2146.96 2614.55 L2215.68 2614.41 L2284.39 2614.14 L2353.11 2613.87 L2421.69 2613.87 L2490.41 2613.73 L2559.12 2613.60 L2627.84 2613.47 L2696.56 2613.33 L2765.27 2613.19 L2833.99 2613.06 L2902.71 2612.93 L2971.42 2612.93 L3040.14 2612.93 L3108.86 2612.79 L3177.57 2612.65 L3246.16 2612.65 L3314.87 2612.65 L3383.59 2612.52 L3452.31 2612.52" stroke-linecap="round" stroke-linejoin="round" style="fill:none;stroke:#DA7C30;stroke-width:16.20"/>
	<circle cx="635.46" cy="2631.28" r="17.42" style="fill:#DA7C30"/>
	<circle cx="635.46" cy="2631.28" r="9.32" style="fill:none;stroke:#DA7C30;stroke-width:16.20"/>
	<circle cx="704.04" cy="2629.80" r="17.42" style="fill:#DA7C30"/>
	<circle cx="704.04" cy="2629.80" r="9.32" style="fill:none;stroke:#DA7C30;stroke-width:16.20"/>
	<circle cx="772.76" cy="2628.72" r="17.42" style="fill:#DA7C30"/>
	<circle cx="772.76" cy="2628.72" r="9.32" style="fill:none;stroke:#DA7C30;stroke-width:16.20"/>
	<circle cx="841.48" cy="2627.64" r="17.42" style="fill:#DA7C30"/>
	<circle cx="841.48" cy="2627.64" r="9.32" style="fill:none;stroke:#DA7C30;stroke-width:16.20"/>
	<circle cx="910.19" cy="2626.15" r="17.42" style="fill:#DA7C30"/>
	<circle cx="910.19" cy="2626.15" r="9.32" style="fill:none;stroke:#DA7C30;stroke-width:16.20"/>
	<circle cx="978.91" cy="2624.94" r="17.42" style="fill:#DA7C30"/>
	<circle cx="978.91" cy="2624.94" r="9.32" style="fill:none;stroke:#DA7C30;stroke-width:16.20"/>
	<circle cx="1047.63" cy="2623.72" r="17.42" style="fill:#DA7C30"/>
	<circle cx="1047.63" cy="2623.72" r="9.32" style="fill:none;stroke:#DA7C30;stroke-width:16.20"/>
	<circle cx="1116.34" cy="2622.51" r="17.42" style="fill:#DA7C30"/>
	<circle cx="1116.34" cy="2622.51" r="9.32" style="fill:none;stroke:#DA7C30;stroke-width:16.20"/>
	<circle cx="1185.06" cy="2621.57" r="17.42" style="fill:#DA7C30"/>
	<circle cx="1185.06" cy="2621.57" r="9.32" style="fill:none;stroke:#DA7C30;stroke-width:16.20"/>
	<circle cx="1253.78" cy="2619.94" r="17.42" style="fill:#DA7C30"/>
	<circle cx="1253.78" cy="2619.94" r="9.32" style="fill:none;stroke:#DA7C30;stroke-width:16.20"/>
	<circle cx="1322.49" cy="2619.14" r="17.42" style="fill:#DA7C30"/>
	<circle cx="1322.49" cy="2619.14" r="9.32" style="fill:none;stroke:#DA7C30;stroke-width:16.20"/>
	<circle cx="1391.21" cy="2618.60" r="17.42" style="fill:#DA7C30"/>
	<circle cx="1391.21" cy="2618.60" r="9.32" style="fill:none;stroke:#DA7C30;stroke-width:16.20"/>
	<circle cx="1459.93" cy="2618.32" r="17.42" style="fill:#DA7C30"/>
	<circle cx="1459.93" cy="2618.32" r="9.32" style="fill:none;stroke:#DA7C30;stroke-width:16.20"/>
	<circle cx="1528.51" cy="2617.92" r="17.42" style="fill:#DA7C30"/>
	<circle cx="1528.51" cy="2617.92" r="9.32" style="fill:none;stroke:#DA7C30;stroke-width:16.20"/>
	<circle cx="1597.22" cy="2617.38" r="17.42" style="fill:#DA7C30"/>
	<circle cx="1597.22" cy="2617.38" r="9.32" style="fill:none;stroke:#DA7C30;stroke-width:16.20"/>
	<circle cx="1665.94" cy="2616.97" r="17.42" style="fill:#DA7C30"/>
	<circle cx="1665.94" cy="2616.97" r="9.32" style="fill:none;stroke:#DA7C30;stroke-width:16.20"/>
	<circle cx="1734.66" cy="2616.57" r="17.42" style="fill:#DA7C30"/>
	<circle cx="1734.66" cy="2616.57" r="9.32" style="fill:none;stroke:#DA7C30;stroke-width:16.20"/>
	<circle cx="1803.38" cy="2616.16" r="17.42" style="fill:#DA7C30"/>
	<circle cx="1803.38" cy="2616.16" r="9.32" style="fill:none;stroke:#DA7C30;stroke-width:16.20"/>
	<circle cx="1872.09" cy="2615.76" r="17.42" style="fill:#DA7C30"/>
	<circle cx="1872.09" cy="2615.76" r="9.32" style="fill:none;stroke:#DA7C30;stroke-width:16.20"/>
	<circle cx="1940.81" cy="2615.49" r="17.42" style="fill:#DA7C30"/>
	<circle cx="1940.81" cy="2615.49" r="9.32" style="fill:none;stroke:#DA7C30;stroke-width:16.20"/>
	<circle cx="2009.53" cy="2615.22" r="17.42" style="fill:#DA7C30"/>
	<circle cx="2009.53" cy="2615.22" r="9.32" style="fill:none;stroke:#DA7C30;stroke-width:16.20"/>
	<circle cx="2078.24" cy="2614.82" r="17.42" style="fill:#DA7C30"/>
	<circle cx="2078.24" cy="2614.82" r="9.32" style="fill:none;stroke:#DA7C30;stroke-width:16.20"/>
	<circle cx="2146.96" cy="2614.55" r="17.42" style="fill:#DA7C30"/>
	<circle cx="2146.96" cy="2614.55" r="9.32" style="fill:none;stroke:#DA7C30;stroke-width:16.20"/>
	<circle cx="2215.68" cy="2614.41" r="17.42" style="fill:#DA7C30"/>
	<circle cx="2215.68" cy="2614.41" r="9.32" style="fill:none;stroke:#DA7C30;stroke-width:16.20"/>
	<circle cx="2284.39" cy="2614.14" r="17.42" style="fill:#DA7C30"/>
	<circle cx="2284.39" cy="2614.14" r="9.32" style="fill:none;stroke:#DA7C30;stroke-width:16.20"/>
	<circle cx="2353.11" cy="2613.87" r="17.42" style="fill:#DA7C30"/>
	<circle cx="2353.11" cy="2613.87" r="9.32" style="fill:none;stroke:#DA7C30;stroke-width:16.20"/>
	<circle cx="2421.69" cy="2613.87" r="17.42" style="fill:#DA7C30"/>
	<circle cx="2421.69" cy="2613.87" r="9.32" style="fill:none;stroke:#DA7C30;stroke-width:16.20"/>
	<circle cx="2490.41" cy="2613.73" r="17.42" style="fill:#DA7C30"/>
	<circle cx="2490.41" cy="2613.73" r="9.32" style="fill:none;stroke:#DA7C30;stroke-width:16.20"/>
	<circle cx="2559.12" cy="2613.60" r="17.42" style="fill:#DA7C30"/>
	<circle cx="2559.12" cy="2613.60" r="9.32" style="fill:none;stroke:#DA7C30;stroke-width:16.20"/>
	<circle cx="2627.84" cy="2613.47" r="17.42" style="fill:#DA7C30"/>
	<circle cx="2627.84" cy="2613.47" r="9.32" style="fill:none;stroke:#DA7C30;stroke-width:16.20"/>
	<circle cx="2696.56" cy="2613.33" r="17.42" style="fill:#DA7C30"/>
	<circle cx="2696.56" cy="2613.33" r="9.32" style="fill:none;stroke:#DA7C30;stroke-width:16.20"/>
	<circle cx="2765.27" cy="2613.19" r="17.42" style="fill:#DA7C30"/>
	<circle cx="2765.27" cy="2613.19" r="9.32" style="fill:none;stroke:#DA7C30;stroke-width:16.20"/>
	<circle cx="2833.99" cy="2613.06" r="17.42" style="fill:#DA7C30"/>
	<circle cx="2833.99" cy="2613.06" r="9.32" style="fill:none;stroke:#DA7C30;stroke-width:16.20"/>
	<circle cx="2902.71" cy="2612.93" r="17.42" style="fill:#DA7C30"/>
	<circle cx="2902.71" cy="2612.93" r="9.32" style="fill:none;stroke:#DA7C30;stroke-width:16.20"/>
	<circle cx="2971.42" cy="2612.93" r="17.42" style="fill:#DA7C30"/>
	<circle cx="2971.42" cy="2612.93" r="9.32" style="fill:none;stroke:#DA7C30;stroke-width:16.20"/>
	<circle cx="3040.14" cy="2612.93" r="17.42" style="fill:#DA7C30"/>
	<circle cx="3040.14" cy="2612.93" r="9.32" style="fill:none;stroke:#DA7C30;stroke-width:16.20"/>
	<circle cx="3108.86" cy="2612.79" r="17.42" style="fill:#DA7C30"/>
	<circle cx="3108.86" cy="2612.79" r="9.32" style="fill:none;stroke:#DA7C30;stroke-width:16.20"/>
	<circle cx="3177.57" cy="2612.65" r="17.42" style="fill:#DA7C30"/>
	<circle cx="3177.57" cy="2612.65" r="9.32" style="fill:none;stroke:#DA7C30;stroke-width:16.20"/>
	<circle cx="3246.16" cy="2612.65" r="17.42" style="fill:#DA7C30"/>
	<circle cx="3246.16" cy="2612.65" r="9.32" style="fill:none;stroke:#DA7C30;stroke-width:16.20"/>
	<circle cx="3314.87" cy="2612.65" r="17.42" style="fill:#DA7C30"/>
	<circle cx="3314.87" cy="2612.65" r="9.32" style="fill:none;stroke:#DA7C30;stroke-width:16.20"/>
	<circle cx="3383.59" cy="2612.52" r="17.42" style="fill:#DA7C30"/>
	<circle cx="3383.59" cy="2612.52" r="9.32" style="fill:none;stroke:#DA7C30;stroke-width:16.20"/>
	<circle cx="3452.31" cy="2612.52" r="17.42" style="fill:#DA7C30"/>
	<circle cx="3452.31" cy="2612.52" r="9.32" style="fill:none;stroke:#DA7C30;stroke-width:16.20"/>
	<path d=" M635.46 2628.99 L704.04 2626.15 L772.76 2617.78 L841.48 2612.93 L910.19 2606.58 L978.91 2590.52 L1047.63 2560.55 L1116.34 2542.32 L1185.06 2516.27 L1253.78 2490.07 L1322.49 2446.61 L1391.21 2390.58 L1459.93 2336.58 L1528.51 2251.39" stroke-linecap="round" stroke-linejoin="round" style="fill:none;stroke:#3E9651;stroke-width:16.20"/>
	<circle cx="635.46" cy="2628.99" r="17.42" style="fill:#3E9651"/>
	<circle cx="635.46" cy="2628.99" r="9.32" style="fill:none;stroke:#3E9651;stroke-width:16.20"/>
	<circle cx="704.04" cy="2626.15" r="17.42" style="fill:#3E9651"/>
	<circle cx="704.04" cy="2626.15" r="9.32" style="fill:none;stroke:#3E9651;stroke-width:16.20"/>
	<circle cx="772.76" cy="2617.78" r="17.42" style="fill:#3E9651"/>
	<circle cx="772.76" cy="2617.78" r="9.32" style="fill:none;stroke:#3E9651;stroke-width:16.20"/>
	<circle cx="841.48" cy="2612.93" r="17.42" style="fill:#3E9651"/>
	<circle cx="841.48" cy="2612.93" r="9.32" style="fill:none;stroke:#3E9651;stroke-width:16.20"/>
	<circle cx="910.19" cy="2606.58" r="17.42" style="fill:#3E9651"/>
	<circle cx="910.19" cy="2606.58" r="9.32" style="fill:none;stroke:#3E9651;stroke-width:16.20"/>
	<circle cx="978.91" cy="2590.52" r="17.42" style="fill:#3E9651"/>
	<circle cx="978.91" cy="2590.52" r="9.32" style="fill:none;stroke:#3E9651;stroke-width:16.20"/>
	<circle cx="1047.63" cy="2560.55" r="17.42" style="fill:#3E9651"/>
	<circle cx="1047.63" cy="2560.55" r="9.32" style="fill:none;stroke:#3E9651;stroke-width:16.20"/>
	<circle cx="1116.34" cy="2542.32" r="17.42" style="fill:#3E9651"/>
	<circle cx="1116.34" cy="2542.32" r="9.32" style="fill:none;stroke:#3E9651;stroke-width:16.20"/>
	<circle cx="1185.06" cy="2516.27" r="17.42" style="fill:#3E9651"/>
	<circle cx="1185.06" cy="2516.27" r="9.32" style="fill:none;stroke:#3E9651;stroke-width:16.20"/>
	<circle cx="1253.78" cy="2490.07" r="17.42" style="fill:#3E9651"/>
	<circle cx="1253.78" cy="2490.07" r="9.32" style="fill:none;stroke:#3E9651;stroke-width:16.20"/>
	<circle cx="1322.49" cy="2446.61" r="17.42" style="fill:#3E9651"/>
	<circle cx="1322.49" cy="2446.61" r="9.32" style="fill:none;stroke:#3E9651;stroke-width:16.20"/>
	<circle cx="1391.21" cy="2390.58" r="17.42" style="fill:#3E9651"/>
	<circle cx="1391.21" cy="2390.58" r="9.32" style="fill:none;stroke:#3E9651;stroke-width:16.20"/>
	<circle cx="1459.93" cy="2336.58" r="17.42" style="fill:#3E9651"/>
	<circle cx="1459.93" cy="2336.58" r="9.32" style="fill:none;stroke:#3E9651;stroke-width:16.20"/>
	<circle cx="1528.51" cy="2251.39" r="17.42" style="fill:#3E9651"/>
	<circle cx="1528.51" cy="2251.39" r="9.32" style="fill:none;stroke:#3E9651;stroke-width:16.20"/>
	<path d=" M635.46 2630.34 L704.04 2624.53 L772.76 2620.35 L841.48 2611.44 L910.19 2601.45" stroke-linecap="round" stroke-linejoin="round" style="fill:none;stroke:#CC2529;stroke-width:16.20"/>
	<circle cx="635.46" cy="2630.34" r="17.42" style="fill:#CC2529"/>
	<circle cx="635.46" cy="2630.34" r="9.32" style="fill:none;stroke:#CC2529;stroke-width:16.20"/>
	<circle cx="704.04" cy="2624.53" r="17.42" style="fill:#CC2529"/>
	<circle cx="704.04" cy="2624.53" r="9.32" style="fill:none;stroke:#CC2529;stroke-width:16.20"/>
	<circle cx="772.76" cy="2620.35" r="17.42" style="fill:#CC2529"/>
	<circle cx="772.76" cy="2620.35" r="9.32" style="fill:none;stroke:#CC2529;stroke-width:16.20"/>
	<circle cx="841.48" cy="2611.44" r="17.42" style="fill:#CC2529"/>
	<circle cx="841.48" cy="2611.44" r="9.32" style="fill:none;stroke:#CC2529;stroke-width:16.20"/>
	<circle cx="910.19" cy="2601.45" r="17.42" style="fill:#CC2529"/>
	<circle cx="910.19" cy="2601.45" r="9.32" style="fill:none;stroke:#CC2529;stroke-width:16.20"/>
	<path d=" M635.46 2630.61 L704.04 2627.78 L772.76 2624.67 L841.48 2620.89 L910.19 2611.85 L978.91 2604.02 L1047.63 2594.03 L1116.34 2582.55 L1185.06 2568.78 L1253.78 2553.12 L1322.49 2535.43 L1391.21 2514.64 L1459.93 2491.02 L1528.51 2466.18 L1597.22 2439.32 L1665.94 2411.91 L1734.66 2384.64 L1803.38 2361.96 L1872.09 2338.34 L1940.81 2315.11 L2009.53 2292.70 L2078.24 2266.51 L2146.96 2237.62" stroke-linecap="round" stroke-linejoin="round" style="fill:none;stroke:#535154;stroke-width:16.20"/>
	<circle cx="635.46" cy="2630.61" r="17.42" style="fill:#535154"/>
	<circle cx="635.46" cy="2630.61" r="9.32" style="fill:none;stroke:#535154;stroke-width:16.20"/>
	<circle cx="704.04" cy="2627.78" r="17.42" style="fill:#535154"/>
	<circle cx="704.04" cy="2627.78" r="9.32" style="fill:none;stroke:#535154;stroke-width:16.20"/>
	<circle cx="772.76" cy="2624.67" r="17.42" style="fill:#535154"/>
	<circle cx="772.76" cy="2624.67" r="9.32" style="fill:none;stroke:#535154;stroke-width:16.20"/>
	<circle cx="841.48" cy="2620.89" r="17.42" style="fill:#535154"/>
	<circle cx="841.48" cy="2620.89" r="9.32" style="fill:none;stroke:#535154;stroke-width:16.20"/>
	<circle cx="910.19" cy="2611.85" r="17.42" style="fill:#535154"/>
	<circle cx="910.19" cy="2611.85" r="9.32" style="fill:none;stroke:#535154;stroke-width:16.20"/>
	<circle cx="978.91" cy="2604.02" r="17.42" style="fill:#535154"/>
	<circle cx="978.91" cy="2604.02" r="9.32" style="fill:none;stroke:#535154;stroke-width:16.20"/>
	<circle cx="1047.63" cy="2594.03" r="17.42" style="fill:#535154"/>
	<circle cx="1047.63" cy="2594.03" r="9.32" style="fill:none;stroke:#535154;stroke-width:16.20"/>
	<circle cx="1116.34" cy="2582.55" r="17.42" style="fill:#535154"/>
	<circle cx="1116.34" cy="2582.55" r="9.32" style="fill:none;stroke:#535154;stroke-width:16.20"/>
	<circle cx="1185.06" cy="2568.78" r="17.42" style="fill:#535154"/>
	<circle cx="1185.06" cy="2568.78" r="9.32" style="fill:none;stroke:#535154;stroke-width:16.20"/>
	<circle cx="1253.78" cy="2553.12" r="17.42" style="fill:#535154"/>
	<circle cx="1253.78" cy="2553.12" r="9.32" style="fill:none;stroke:#535154;stroke-width:16.20"/>
	<circle cx="1322.49" cy="2535.43" r="17.42" style="fill:#535154"/>
	<circle cx="1322.49" cy="2535.43" r="9.32" style="fill:none;stroke:#535154;stroke-width:16.20"/>
	<circle cx="1391.21" cy="2514.64" r="17.42" style="fill:#535154"/>
	<circle cx="1391.21" cy="2514.64" r="9.32" style="fill:none;stroke:#535154;stroke-width:16.20"/>
	<circle cx="1459.93" cy="2491.02" r="17.42" style="fill:#535154"/>
	<circle cx="1459.93" cy="2491.02" r="9.32" style="fill:none;stroke:#535154;stroke-width:16.20"/>
	<circle cx="1528.51" cy="2466.18" r="17.42" style="fill:#535154"/>
	<circle cx="1528.51" cy="2466.18" r="9.32" style="fill:none;stroke:#535154;stroke-width:16.20"/>
	<circle cx="1597.22" cy="2439.32" r="17.42" style="fill:#535154"/>
	<circle cx="1597.22" cy="2439.32" r="9.32" style="fill:none;stroke:#535154;stroke-width:16.20"/>
	<circle cx="1665.94" cy="2411.91" r="17.42" style="fill:#535154"/>
	<circle cx="1665.94" cy="2411.91" r="9.32" style="fill:none;stroke:#535154;stroke-width:16.20"/>
	<circle cx="1734.66" cy="2384.64" r="17.42" style="fill:#535154"/>
	<circle cx="1734.66" cy="2384.64" r="9.32" style="fill:none;stroke:#535154;stroke-width:16.20"/>
	<circle cx="1803.38" cy="2361.96" r="17.42" style="fill:#535154"/>
	<circle cx="1803.38" cy="2361.96" r="9.32" style="fill:none;stroke:#535154;stroke-width:16.20"/>
	<circle cx="1872.09" cy="2338.34" r="17.42" style="fill:#535154"/>
	<circle cx="1872.09" cy="2338.34" r="9.32" style="fill:none;stroke:#535154;stroke-width:16.20"/>
	<circle cx="1940.81" cy="2315.11" r="17.42" style="fill:#535154"/>
	<circle cx="1940.81" cy="2315.11" r="9.32" style="fill:none;stroke:#535154;stroke-width:16.20"/>
	<circle cx="2009.53" cy="2292.70" r="17.42" style="fill:#535154"/>
	<circle cx="2009.53" cy="2292.70" r="9.32" style="fill:none;stroke:#535154;stroke-width:16.20"/>
	<circle cx="2078.24" cy="2266.51" r="17.42" style="fill:#535154"/>
	<circle cx="2078.24" cy="2266.51" r="9.32" style="fill:none;stroke:#535154;stroke-width:16.20"/>
	<circle cx="2146.96" cy="2237.62" r="17.42" style="fill:#535154"/>
	<circle cx="2146.96" cy="2237.62" r="9.32" style="fill:none;stroke:#535154;stroke-width:16.20"/>
	<path d=" M635.46 2627.37 L704.04 2620.62 L772.76 2610.22 L841.48 2597.94 L910.19 2588.89 L978.91 2555.55 L1047.63 2530.85 L1116.34 2488.99 L1185.06 2439.72 L1253.78 2392.20 L1322.49 2328.89 L1391.21 2285.55 L1459.93 2192.53 L1528.51 2105.32 L1597.22 2018.25 L1665.94 1899.45 L1734.66 1791.59 L1803.38 1634.58 L1872.09 1434.91 L1940.81 1271.97 L2009.53 1120.91 L2078.24 934.34 L2146.96 762.21 L2215.68 596.43" stroke-linecap="round" stroke-linejoin="round" style="fill:none;stroke:#6B4C9A;stroke-width:16.20"/>
	<circle cx="635.46" cy="2627.37" r="17.42" style="fill:#6B4C9A"/>
	<circle cx="635.46" cy="2627.37" r="9.32" style="fill:none;stroke:#6B4C9A;stroke-width:16.20"/>
	<circle cx="704.04" cy="2620.62" r="17.42" style="fill:#6B4C9A"/>
	<circle cx="704.04" cy="2620.62" r="9.32" style="fill:none;stroke:#6B4C9A;stroke-width:16.20"/>
	<circle cx="772.76" cy="2610.22" r="17.42" style="fill:#6B4C9A"/>
	<circle cx="772.76" cy="2610.22" r="9.32" style="fill:none;stroke:#6B4C9A;stroke-width:16.20"/>
	<circle cx="841.48" cy="2597.94" r="17.42" style="fill:#6B4C9A"/>
	<circle cx="841.48" cy="2597.94" r="9.32" style="fill:none;stroke:#6B4C9A;stroke-width:16.20"/>
	<circle cx="910.19" cy="2588.89" r="17.42" style="fill:#6B4C9A"/>
	<circle cx="910.19" cy="2588.89" r="9.32" style="fill:none;stroke:#6B4C9A;stroke-width:16.20"/>
	<circle cx="978.91" cy="2555.55" r="17.42" style="fill:#6B4C9A"/>
	<circle cx="978.91" cy="2555.55" r="9.32" style="fill:none;stroke:#6B4C9A;stroke-width:16.20"/>
	<circle cx="1047.63" cy="2530.85" r="17.42" style="fill:#6B4C9A"/>
	<circle cx="1047.63" cy="2530.85" r="9.32" style="fill:none;stroke:#6B4C9A;stroke-width:16.20"/>
	<circle cx="1116.34" cy="2488.99" r="17.42" style="fill:#6B4C9A"/>
	<circle cx="1116.34" cy="2488.99" r="9.32" style="fill:none;stroke:#6B4C9A;stroke-width:16.20"/>
	<circle cx="1185.06" cy="2439.72" r="17.42" style="fill:#6B4C9A"/>
	<circle cx="1185.06" cy="2439.72" r="9.32" style="fill:none;stroke:#6B4C9A;stroke-width:16.20"/>
	<circle cx="1253.78" cy="2392.20" r="17.42" style="fill:#6B4C9A"/>
	<circle cx="1253.78" cy="2392.20" r="9.32" style="fill:none;stroke:#6B4C9A;stroke-width:16.20"/>
	<circle cx="1322.49" cy="2328.89" r="17.42" style="fill:#6B4C9A"/>
	<circle cx="1322.49" cy="2328.89" r="9.32" style="fill:none;stroke:#6B4C9A;stroke-width:16.20"/>
	<circle cx="1391.21" cy="2285.55" r="17.42" style="fill:#6B4C9A"/>
	<circle cx="1391.21" cy="2285.55" r="9.32" style="fill:none;stroke:#6B4C9A;stroke-width:16.20"/>
	<circle cx="1459.93" cy="2192.53" r="17.42" style="fill:#6B4C9A"/>
	<circle cx="1459.93" cy="2192.53" r="9.32" style="fill:none;stroke:#6B4C9A;stroke-width:16.20"/>
	<circle cx="1528.51" cy="2105.32" r="17.42" style="fill:#6B4C9A"/>
	<circle cx="1528.51" cy="2105.32" r="9.32" style="fill:none;stroke:#6B4C9A;stroke-width:16.20"/>
	<circle cx="1597.22" cy="2018.25" r="17.42" style="fill:#6B4C9A"/>
	<circle cx="1597.22" cy="2018.25" r="9.32" style="fill:none;stroke:#6B4C9A;stroke-width:16.20"/>
	<circle cx="1665.94" cy="1899.45" r="17.42" style="fill:#6B4C9A"/>
	<circle cx="1665.94" cy="1899.45" r="9.32" style="fill:none;stroke:#6B4C9A;stroke-width:16.20"/>
	<circle cx="1734.66" cy="1791.59" r="17.42" style="fill:#6B4C9A"/>
	<circle cx="1734.66" cy="1791.59" r="9.32" style="fill:none;stroke:#6B4C9A;stroke-width:16.20"/>
	<circle cx="1803.38" cy="1634.58" r="17.42" style="fill:#6B4C9A"/>
	<circle cx="1803.38" cy="1634.58" r="9.32" style="fill:none;stroke:#6B4C9A;stroke-width:16.20"/>
	<circle cx="1872.09" cy="1434.91" r="17.42" style="fill:#6B4C9A"/>
	<circle cx="1872.09" cy="1434.91" r="9.32" style="fill:none;stroke:#6B4C9A;stroke-width:16.20"/>
	<circle cx="1940.81" cy="1271.97" r="17.42" style="fill:#6B4C9A"/>
	<circle cx="1940.81" cy="1271.97" r="9.32" style="fill:none;stroke:#6B4C9A;stroke-width:16.20"/>
	<circle cx="2009.53" cy="1120.91" r="17.42" style="fill:#6B4C9A"/>
	<circle cx="2009.53" cy="1120.91" r="9.32" style="fill:none;stroke:#6B4C9A;stroke-width:16.20"/>
	<circle cx="2078.24" cy="934.34" r="17.42" style="fill:#6B4C9A"/>
	<circle cx="2078.24" cy="934.34" r="9.32" style="fill:none;stroke:#6B4C9A;stroke-width:16.20"/>
	<circle cx="2146.96" cy="762.21" r="17.42" style="fill:#6B4C9A"/>
	<circle cx="2146.96" cy="762.21" r="9.32" style="fill:none;stroke:#6B4C9A;stroke-width:16.20"/>
	<circle cx="2215.68" cy="596.43" r="17.42" style="fill:#6B4C9A"/>
	<circle cx="2215.68" cy="596.43" r="9.32" style="fill:none;stroke:#6B4C9A;stroke-width:16.20"/>
	<path d=" M635.46 2629.66 L704.04 2626.15 L772.76 2609.14 L841.48 2595.91 L910.19 2579.85 L978.91 2553.12 L1047.63 2526.53 L1116.34 2488.18 L1185.06 2457.94 L1253.78 2401.92 L1322.49 2330.78 L1391.21 2261.39" stroke-linecap="round" stroke-linejoin="round" style="fill:none;stroke:#920328;stroke-width:16.20"/>
	<circle cx="635.46" cy="2629.66" r="17.42" style="fill:#920328"/>
	<circle cx="635.46" cy="2629.66" r="9.32" style="fill:none;stroke:#920328;stroke-width:16.20"/>
	<circle cx="704.04" cy="2626.15" r="17.42" style="fill:#920328"/>
	<circle cx="704.04" cy="2626.15" r="9.32" style="fill:none;stroke:#920328;stroke-width:16.20"/>
	<circle cx="772.76" cy="2609.14" r="17.42" style="fill:#920328"/>
	<circle cx="772.76" cy="2609.14" r="9.32" style="fill:none;stroke:#920328;stroke-width:16.20"/>
	<circle cx="841.48" cy="2595.91" r="17.42" style="fill:#920328"/>
	<circle cx="841.48" cy="2595.91" r="9.32" style="fill:none;stroke:#920328;stroke-width:16.20"/>
	<circle cx="910.19" cy="2579.85" r="17.42" style="fill:#920328"/>
	<circle cx="910.19" cy="2579.85" r="9.32" style="fill:none;stroke:#920328;stroke-width:16.20"/>
	<circle cx="978.91" cy="2553.12" r="17.42" style="fill:#920328"/>
	<circle cx="978.91" cy="2553.12" r="9.32" style="fill:none;stroke:#920328;stroke-width:16.20"/>
	<circle cx="1047.63" cy="2526.53" r="17.42" style="fill:#920328"/>
	<circle cx="1047.63" cy="2526.53" r="9.32" style="fill:none;stroke:#920328;stroke-width:16.20"/>
	<circle cx="1116.34" cy="2488.18" r="17.42" style="fill:#920328"/>
	<circle cx="1116.34" cy="2488.18" r="9.32" style="fill:none;stroke:#920328;stroke-width:16.20"/>
	<circle cx="1185.06" cy="2457.94" r="17.42" style="fill:#920328"/>
	<circle cx="1185.06" cy="2457.94" r="9.32" style="fill:none;stroke:#920328;stroke-width:16.20"/>
	<circle cx="1253.78" cy="2401.92" r="17.42" style="fill:#920328"/>
	<circle cx="1253.78" cy="2401.92" r="9.32" style="fill:none;stroke:#920328;stroke-width:16.20"/>
	<circle cx="1322.49" cy="2330.78" r="17.42" style="fill:#920328"/>
	<circle cx="1322.49" cy="2330.78" r="9.32" style="fill:none;stroke:#920328;stroke-width:16.20"/>
	<circle cx="1391.21" cy="2261.39" r="17.42" style="fill:#920328"/>
	<circle cx="1391.21" cy="2261.39" r="9.32" style="fill:none;stroke:#920328;stroke-width:16.20"/>
	<path d=" M635.46 2632.23 L704.04 2620.08 L772.76 2608.07 L841.48 2603.20 L910.19 2553.80 L978.91 2546.91 L1047.63 2487.64 L1116.34 2452.82 L1185.06 2397.87 L1253.78 2321.32 L1322.49 2215.89 L1391.21 2087.64 L1459.93 1937.39 L1528.51 1770.12 L1597.22 1529.95 L1665.94 1316.79" stroke-linecap="round" stroke-linejoin="round" style="fill:none;stroke:#948BA1;stroke-width:16.20"/>
	<circle cx="635.46" cy="2632.23" r="17.42" style="fill:#948BA1"/>
	<circle cx="635.46" cy="2632.23" r="9.32" style="fill:none;stroke:#948BA1;stroke-width:16.20"/>
	<circle cx="704.04" cy="2620.08" r="17.42" style="fill:#948BA1"/>
	<circle cx="704.04" cy="2620.08" r="9.32" style="fill:none;stroke:#948BA1;stroke-width:16.20"/>
	<circle cx="772.76" cy="2608.07" r="17.42" style="fill:#948BA1"/>
	<circle cx="772.76" cy="2608.07" r="9.32" style="fill:none;stroke:#948BA1;stroke-width:16.20"/>
	<circle cx="841.48" cy="2603.20" r="17.42" style="fill:#948BA1"/>
	<circle cx="841.48" cy="2603.20" r="9.32" style="fill:none;stroke:#948BA1;stroke-width:16.20"/>
	<circle cx="910.19" cy="2553.80" r="17.42" style="fill:#948BA1"/>
	<circle cx="910.19" cy="2553.80" r="9.32" style="fill:none;stroke:#948BA1;stroke-width:16.20"/>
	<circle cx="978.91" cy="2546.91" r="17.42" style="fill:#948BA1"/>
	<circle cx="978.91" cy="2546.91" r="9.32" style="fill:none;stroke:#948BA1;stroke-width:16.20"/>
	<circle cx="1047.63" cy="2487.64" r="17.42" style="fill:#948BA1"/>
	<circle cx="1047.63" cy="2487.64" r="9.32" style="fill:none;stroke:#948BA1;stroke-width:16.20"/>
	<circle cx="1116.34" cy="2452.82" r="17.42" style="fill:#948BA1"/>
	<circle cx="1116.34" cy="2452.82" r="9.32" style="fill:none;stroke:#948BA1;stroke-width:16.20"/>
	<circle cx="1185.06" cy="2397.87" r="17.42" style="fill:#948BA1"/>
	<circle cx="1185.06" cy="2397.87" r="9.32" style="fill:none;stroke:#948BA1;stroke-width:16.20"/>
	<circle cx="1253.78" cy="2321.32" r="17.42" style="fill:#948BA1"/>
	<circle cx="1253.78" cy="2321.32" r="9.32" style="fill:none;stroke:#948BA1;stroke-width:16.20"/>
	<circle cx="1322.49" cy="2215.89" r="17.42" style="fill:#948BA1"/>
	<circle cx="1322.49" cy="2215.89" r="9.32" style="fill:none;stroke:#948BA1;stroke-width:16.20"/>
	<circle cx="1391.21" cy="2087.64" r="17.42" style="fill:#948BA1"/>
	<circle cx="1391.21" cy="2087.64" r="9.32" style="fill:none;stroke:#948BA1;stroke-width:16.20"/>
	<circle cx="1459.93" cy="1937.39" r="17.42" style="fill:#948BA1"/>
	<circle cx="1459.93" cy="1937.39" r="9.32" style="fill:none;stroke:#948BA1;stroke-width:16.20"/>
	<circle cx="1528.51" cy="1770.12" r="17.42" style="fill:#948BA1"/>
	<circle cx="1528.51" cy="1770.12" r="9.32" style="fill:none;stroke:#948BA1;stroke-width:16.20"/>
	<circle cx="1597.22" cy="1529.95" r="17.42" style="fill:#948BA1"/>
	<circle cx="1597.22" cy="1529.95" r="9.32" style="fill:none;stroke:#948BA1;stroke-width:16.20"/>
	<circle cx="1665.94" cy="1316.79" r="17.42" style="fill:#948BA1"/>
	<circle cx="1665.94" cy="1316.79" r="9.32" style="fill:none;stroke:#948BA1;stroke-width:16.20"/>
	<path d=" M635.46 2624.27 L704.04 2615.09 L772.76 2607.66 L841.48 2594.97 L910.19 2584.17 L978.91 2572.02 L1047.63 2552.44 L1116.34 2543.13 L1185.06 2517.35" stroke-linecap="round" stroke-linejoin="round" style="fill:none;stroke:#7293CB;stroke-width:16.20"/>
	<circle cx="635.46" cy="2624.27" r="17.42" style="fill:#7293CB"/>
	<circle cx="635.46" cy="2624.27" r="9.32" style="fill:none;stroke:#7293CB;stroke-width:16.20"/>
	<circle cx="704.04" cy="2615.09" r="17.42" style="fill:#7293CB"/>
	<circle cx="704.04" cy="2615.09" r="9.32" style="fill:none;stroke:#7293CB;stroke-width:16.20"/>
	<circle cx="772.76" cy="2607.66" r="17.42" style="fill:#7293CB"/>
	<circle cx="772.76" cy="2607.66" r="9.32" style="fill:none;stroke:#7293CB;stroke-width:16.20"/>
	<circle cx="841.48" cy="2594.97" r="17.42" style="fill:#7293CB"/>
	<circle cx="841.48" cy="2594.97" r="9.32" style="fill:none;stroke:#7293CB;stroke-width:16.20"/>
	<circle cx="910.19" cy="2584.17" r="17.42" style="fill:#7293CB"/>
	<circle cx="910.19" cy="2584.17" r="9.32" style="fill:none;stroke:#7293CB;stroke-width:16.20"/>
	<circle cx="978.91" cy="2572.02" r="17.42" style="fill:#7293CB"/>
	<circle cx="978.91" cy="2572.02" r="9.32" style="fill:none;stroke:#7293CB;stroke-width:16.20"/>
	<circle cx="1047.63" cy="2552.44" r="17.42" style="fill:#7293CB"/>
	<circle cx="1047.63" cy="2552.44" r="9.32" style="fill:none;stroke:#7293CB;stroke-width:16.20"/>
	<circle cx="1116.34" cy="2543.13" r="17.42" style="fill:#7293CB"/>
	<circle cx="1116.34" cy="2543.13" r="9.32" style="fill:none;stroke:#7293CB;stroke-width:16.20"/>
	<circle cx="1185.06" cy="2517.35" r="17.42" style="fill:#7293CB"/>
	<circle cx="1185.06" cy="2517.35" r="9.32" style="fill:none;stroke:#7293CB;stroke-width:16.20"/>
	<path d=" M635.46 2631.69 L704.04 2625.75 L772.76 2620.22 L841.48 2610.49 L910.19 2598.89 L978.91 2587.55" stroke-linecap="round" stroke-linejoin="round" style="fill:none;stroke:#E1974C;stroke-width:16.20"/>
	<circle cx="635.46" cy="2631.69" r="17.42" style="fill:#E1974C"/>
	<circle cx="635.46" cy="2631.69" r="9.32" style="fill:none;stroke:#E1974C;stroke-width:16.20"/>
	<circle cx="704.04" cy="2625.75" r="17.42" style="fill:#E1974C"/>
	<circle cx="704.04" cy="2625.75" r="9.32" style="fill:none;stroke:#E1974C;stroke-width:16.20"/>
	<circle cx="772.76" cy="2620.22" r="17.42" style="fill:#E1974C"/>
	<circle cx="772.76" cy="2620.22" r="9.32" style="fill:none;stroke:#E1974C;stroke-width:16.20"/>
	<circle cx="841.48" cy="2610.49" r="17.42" style="fill:#E1974C"/>
	<circle cx="841.48" cy="2610.49" r="9.32" style="fill:none;stroke:#E1974C;stroke-width:16.20"/>
	<circle cx="910.19" cy="2598.89" r="17.42" style="fill:#E1974C"/>
	<circle cx="910.19" cy="2598.89" r="9.32" style="fill:none;stroke:#E1974C;stroke-width:16.20"/>
	<circle cx="978.91" cy="2587.55" r="17.42" style="fill:#E1974C"/>
	<circle cx="978.91" cy="2587.55" r="9.32" style="fill:none;stroke:#E1974C;stroke-width:16.20"/>
	<line x1="545.14" y1="2668.95" x2="545.14" y2="344.25" style="stroke:#000000;stroke-width:7.20"/>
	<line x1="545.14" y1="2647.35" x2="495.19" y2="2647.35" style="stroke:#000000;stroke-width:7.20"/>
	<text x="470.22" y="2691.14" style="font-family:'Helvetica';font-size:125.01px;fill:#000000" text-anchor="end">0</text>
	<line x1="545.14" y1="1886.89" x2="495.19" y2="1886.89" style="stroke:#000000;stroke-width:7.20"/>
	<text x="470.22" y="1930.68" style="font-family:'Helvetica';font-size:125.01px;fill:#000000" text-anchor="end">50</text>
	<line x1="545.14" y1="1126.44" x2="495.19" y2="1126.44" style="stroke:#000000;stroke-width:7.20"/>
	<text x="470.22" y="1170.23" style="font-family:'Helvetica';font-size:125.01px;fill:#000000" text-anchor="end">100</text>
	<line x1="545.14" y1="365.85" x2="495.19" y2="365.85" style="stroke:#000000;stroke-width:7.20"/>
	<text x="470.22" y="409.64" style="font-family:'Helvetica';font-size:125.01px;fill:#000000" text-anchor="end">150</text>
	<text x="238.38" y="1506.60" style="font-family:'Helvetica';font-size:125.01px;fill:#000000" transform="rotate(-90 238.38,1506.60)" text-anchor="middle">Number of deaths, per million inhabitants</text>
	<line x1="545.14" y1="2668.95" x2="3474.04" y2="2668.95" style="stroke:#000000;stroke-width:7.20"/>
	<line x1="566.74" y1="2668.95" x2="566.74" y2="2719.03" style="stroke:#000000;stroke-width:7.20"/>
	<text x="566.74" y="2831.45" style="font-family:'Helvetica';font-size:125.01px;fill:#000000" text-anchor="middle">0</text>
	<line x1="1253.78" y1="2668.95" x2="1253.78" y2="2719.03" style="stroke:#000000;stroke-width:7.20"/>
	<text x="1253.78" y="2831.45" style="font-family:'Helvetica';font-size:125.01px;fill:#000000" text-anchor="middle">10</text>
	<line x1="1940.81" y1="2668.95" x2="1940.81" y2="2719.03" style="stroke:#000000;stroke-width:7.20"/>
	<text x="1940.81" y="2831.45" style="font-family:'Helvetica';font-size:125.01px;fill:#000000" text-anchor="middle">20</text>
	<line x1="2627.98" y1="2668.95" x2="2627.98" y2="2719.03" style="stroke:#000000;stroke-width:7.20"/>
	<text x="2627.98" y="2831.45" style="font-family:'Helvetica';font-size:125.01px;fill:#000000" text-anchor="middle">30</text>
	<line x1="3315.01" y1="2668.95" x2="3315.01" y2="2719.03" style="stroke:#000000;stroke-width:7.20"/>
	<text x="3315.01" y="2831.45" style="font-family:'Helvetica';font-size:125.01px;fill:#000000" text-anchor="middle">40</text>
	<text x="2009.53" y="2968.88" style="font-family:'Helvetica';font-size:125.01px;fill:#000000" text-anchor="middle">Days since 1st death per million</text>
	<rect x="797.06" y="3074.62" width="2425.07" height="932.99" style="fill:#FFFFFF"/>
	<rect x="800.66" y="3078.22" width="2417.87" height="925.79" style="fill:none;stroke:#000000;stroke-width:7.20"/>
	<line x1="851.06" y1="3191.13" x2="1319.12" y2="3191.13" style="stroke:#396AB1;stroke-width:16.20"/>
	<circle cx="1085.02" cy="3191.13" r="17.42" style="fill:#396AB1"/>
	<circle cx="1085.02" cy="3191.13" r="9.32" style="fill:none;stroke:#396AB1;stroke-width:16.20"/>
	<line x1="2164.24" y1="3191.13" x2="2632.30" y2="3191.13" style="stroke:#DA7C30;stroke-width:16.20"/>
	<circle cx="2398.20" cy="3191.13" r="17.42" style="fill:#DA7C30"/>
	<circle cx="2398.20" cy="3191.13" r="9.32" style="fill:none;stroke:#DA7C30;stroke-width:16.20"/>
	<line x1="851.06" y1="3366.22" x2="1319.12" y2="3366.22" style="stroke:#3E9651;stroke-width:16.20"/>
	<circle cx="1085.02" cy="3366.22" r="17.42" style="fill:#3E9651"/>
	<circle cx="1085.02" cy="3366.22" r="9.32" style="fill:none;stroke:#3E9651;stroke-width:16.20"/>
	<line x1="2164.24" y1="3366.22" x2="2632.30" y2="3366.22" style="stroke:#CC2529;stroke-width:16.20"/>
	<circle cx="2398.20" cy="3366.22" r="17.42" style="fill:#CC2529"/>
	<circle cx="2398.20" cy="3366.22" r="9.32" style="fill:none;stroke:#CC2529;stroke-width:16.20"/>
	<line x1="851.06" y1="3541.18" x2="1319.12" y2="3541.18" style="stroke:#535154;stroke-width:16.20"/>
	<circle cx="1085.02" cy="3541.18" r="17.42" style="fill:#535154"/>
	<circle cx="1085.02" cy="3541.18" r="9.32" style="fill:none;stroke:#535154;stroke-width:16.20"/>
	<line x1="2164.24" y1="3541.18" x2="2632.30" y2="3541.18" style="stroke:#6B4C9A;stroke-width:16.20"/>
	<circle cx="2398.20" cy="3541.18" r="17.42" style="fill:#6B4C9A"/>
	<circle cx="2398.20" cy="3541.18" r="9.32" style="fill:none;stroke:#6B4C9A;stroke-width:16.20"/>
	<line x1="851.06" y1="3716.14" x2="1319.12" y2="3716.14" style="stroke:#920328;stroke-width:16.20"/>
	<circle cx="1085.02" cy="3716.14" r="17.42" style="fill:#920328"/>
	<circle cx="1085.02" cy="3716.14" r="9.32" style="fill:none;stroke:#920328;stroke-width:16.20"/>
	<line x1="2164.24" y1="3716.14" x2="2632.30" y2="3716.14" style="stroke:#948BA1;stroke-width:16.20"/>
	<circle cx="2398.20" cy="3716.14" r="17.42" style="fill:#948BA1"/>
	<circle cx="2398.20" cy="3716.14" r="9.32" style="fill:none;stroke:#948BA1;stroke-width:16.20"/>
	<line x1="851.06" y1="3891.11" x2="1319.12" y2="3891.11" style="stroke:#7293CB;stroke-width:16.20"/>
	<circle cx="1085.02" cy="3891.11" r="17.42" style="fill:#7293CB"/>
	<circle cx="1085.02" cy="3891.11" r="9.32" style="fill:none;stroke:#7293CB;stroke-width:16.20"/>
	<line x1="2164.24" y1="3891.11" x2="2632.30" y2="3891.11" style="stroke:#E1974C;stroke-width:16.20"/>
	<circle cx="2398.20" cy="3891.11" r="17.42" style="fill:#E1974C"/>
	<circle cx="2398.20" cy="3891.11" r="9.32" style="fill:none;stroke:#E1974C;stroke-width:16.20"/>
	<text x="1394.04" y="3226.18" style="font-family:'Helvetica';font-size:100.04px;fill:#000000"> Belgium</text>
	<text x="2707.22" y="3226.18" style="font-family:'Helvetica';font-size:100.04px;fill:#000000"> China</text>
	<text x="1394.04" y="3401.27" style="font-family:'Helvetica';font-size:100.04px;fill:#000000"> France</text>
	<text x="2707.22" y="3401.27" style="font-family:'Helvetica';font-size:100.04px;fill:#000000"> Germany</text>
	<text x="1394.04" y="3576.23" style="font-family:'Helvetica';font-size:100.04px;fill:#000000"> Iran</text>
	<text x="2707.22" y="3576.23" style="font-family:'Helvetica';font-size:100.04px;fill:#000000"> Italy</text>
	<text x="1394.04" y="3751.19" style="font-family:'Helvetica';font-size:100.04px;fill:#000000"> Netherlands</text>
	<text x="2707.22" y="3751.19" style="font-family:'Helvetica';font-size:100.04px;fill:#000000"> Spain</text>
	<text x="1394.04" y="3926.15" style="font-family:'Helvetica';font-size:100.04px;fill:#000000"> UK</text>
	<text x="2707.22" y="3926.15" style="font-family:'Helvetica';font-size:100.04px;fill:#000000"> USA</text>
	<text x="566.74" y="4142.37" style="font-family:'Helvetica';font-size:100.04px;fill:#000000">Source: Learning from the curve. Data: ww.ecdc.europa.eu.</text>
	<text x="2009.53" y="270.09" style="font-family:'Helvetica';font-size:174.96px;fill:#000000" text-anchor="middle">Cumulative deaths, per million inhabitants</text>
</svg>
