<?xml version="1.0" encoding="UTF-8" standalone="no"?>
<!-- This is a Stata 15.1 generated SVG file (http://www.stata.com) -->

<svg version="1.1" width="5.50in" height="6.00in" viewBox="0 0 3800 4320" xmlns="http://www.w3.org/2000/svg" xmlns:xlink="http://www.w3.org/1999/xlink">
	<desc>Stata Graph - Graph</desc>
	<rect x="0" y="0" width="3800" height="4320" style="fill:#FFFFFF;stroke:none"/>
	<rect x="0.00" y="0.14" width="3600.00" height="4319.86" style="fill:#FFFFFF"/>
	<rect x="3.60" y="3.74" width="3592.80" height="4312.66" style="fill:none;stroke:#FFFFFF;stroke-width:7.20"/>
	<rect x="607.11" y="344.25" width="2866.93" height="2324.70" style="fill:#FFFFFF"/>
	<rect x="610.71" y="347.85" width="2859.73" height="2317.50" style="fill:none;stroke:#FFFFFF;stroke-width:7.20"/>
	<line x1="607.11" y1="2647.35" x2="3474.04" y2="2647.35" style="stroke:#FFFFFF;stroke-width:10.80"/>
	<line x1="607.11" y1="1886.89" x2="3474.04" y2="1886.89" style="stroke:#FFFFFF;stroke-width:10.80"/>
	<line x1="607.11" y1="1126.44" x2="3474.04" y2="1126.44" style="stroke:#FFFFFF;stroke-width:10.80"/>
	<line x1="607.11" y1="365.85" x2="3474.04" y2="365.85" style="stroke:#FFFFFF;stroke-width:10.80"/>
	<path d=" M769.79 2492.51 L911.00 2466.99 L1052.22 2434.18 L1193.29 2390.72 L1334.51 2352.91 L1475.72 2309.85 L1616.94 2273.40 L1758.15 2183.76 L1899.23 2126.66 L2040.44 2058.21 L2181.65 1966.55" stroke-linecap="round" stroke-linejoin="round" style="fill:none;stroke:#DA7C30;stroke-width:16.20"/>
	<circle cx="769.79" cy="2492.51" r="17.42" style="fill:#DA7C30"/>
	<circle cx="769.79" cy="2492.51" r="9.32" style="fill:none;stroke:#DA7C30;stroke-width:16.20"/>
	<circle cx="911.00" cy="2466.99" r="17.42" style="fill:#DA7C30"/>
	<circle cx="911.00" cy="2466.99" r="9.32" style="fill:none;stroke:#DA7C30;stroke-width:16.20"/>
	<circle cx="1052.22" cy="2434.18" r="17.42" style="fill:#DA7C30"/>
	<circle cx="1052.22" cy="2434.18" r="9.32" style="fill:none;stroke:#DA7C30;stroke-width:16.20"/>
	<circle cx="1193.29" cy="2390.72" r="17.42" style="fill:#DA7C30"/>
	<circle cx="1193.29" cy="2390.72" r="9.32" style="fill:none;stroke:#DA7C30;stroke-width:16.20"/>
	<circle cx="1334.51" cy="2352.91" r="17.42" style="fill:#DA7C30"/>
	<circle cx="1334.51" cy="2352.91" r="9.32" style="fill:none;stroke:#DA7C30;stroke-width:16.20"/>
	<circle cx="1475.72" cy="2309.85" r="17.42" style="fill:#DA7C30"/>
	<circle cx="1475.72" cy="2309.85" r="9.32" style="fill:none;stroke:#DA7C30;stroke-width:16.20"/>
	<circle cx="1616.94" cy="2273.40" r="17.42" style="fill:#DA7C30"/>
	<circle cx="1616.94" cy="2273.40" r="9.32" style="fill:none;stroke:#DA7C30;stroke-width:16.20"/>
	<circle cx="1758.15" cy="2183.76" r="17.42" style="fill:#DA7C30"/>
	<circle cx="1758.15" cy="2183.76" r="9.32" style="fill:none;stroke:#DA7C30;stroke-width:16.20"/>
	<circle cx="1899.23" cy="2126.66" r="17.42" style="fill:#DA7C30"/>
	<circle cx="1899.23" cy="2126.66" r="9.32" style="fill:none;stroke:#DA7C30;stroke-width:16.20"/>
	<circle cx="2040.44" cy="2058.21" r="17.42" style="fill:#DA7C30"/>
	<circle cx="2040.44" cy="2058.21" r="9.32" style="fill:none;stroke:#DA7C30;stroke-width:16.20"/>
	<circle cx="2181.65" cy="1966.55" r="17.42" style="fill:#DA7C30"/>
	<circle cx="2181.65" cy="1966.55" r="9.32" style="fill:none;stroke:#DA7C30;stroke-width:16.20"/>
	<path d=" M769.79 2390.04 L911.00 2316.19 L1052.22 2256.53 L1193.29 2196.32 L1334.51 2115.45 L1475.72 2072.79 L1616.94 1982.61 L1758.15 1877.31" stroke-linecap="round" stroke-linejoin="round" style="fill:none;stroke:#3E9651;stroke-width:16.20"/>
	<circle cx="769.79" cy="2390.04" r="17.42" style="fill:#3E9651"/>
	<circle cx="769.79" cy="2390.04" r="9.32" style="fill:none;stroke:#3E9651;stroke-width:16.20"/>
	<circle cx="911.00" cy="2316.19" r="17.42" style="fill:#3E9651"/>
	<circle cx="911.00" cy="2316.19" r="9.32" style="fill:none;stroke:#3E9651;stroke-width:16.20"/>
	<circle cx="1052.22" cy="2256.53" r="17.42" style="fill:#3E9651"/>
	<circle cx="1052.22" cy="2256.53" r="9.32" style="fill:none;stroke:#3E9651;stroke-width:16.20"/>
	<circle cx="1193.29" cy="2196.32" r="17.42" style="fill:#3E9651"/>
	<circle cx="1193.29" cy="2196.32" r="9.32" style="fill:none;stroke:#3E9651;stroke-width:16.20"/>
	<circle cx="1334.51" cy="2115.45" r="17.42" style="fill:#3E9651"/>
	<circle cx="1334.51" cy="2115.45" r="9.32" style="fill:none;stroke:#3E9651;stroke-width:16.20"/>
	<circle cx="1475.72" cy="2072.79" r="17.42" style="fill:#3E9651"/>
	<circle cx="1475.72" cy="2072.79" r="9.32" style="fill:none;stroke:#3E9651;stroke-width:16.20"/>
	<circle cx="1616.94" cy="1982.61" r="17.42" style="fill:#3E9651"/>
	<circle cx="1616.94" cy="1982.61" r="9.32" style="fill:none;stroke:#3E9651;stroke-width:16.20"/>
	<circle cx="1758.15" cy="1877.31" r="17.42" style="fill:#3E9651"/>
	<circle cx="1758.15" cy="1877.31" r="9.32" style="fill:none;stroke:#3E9651;stroke-width:16.20"/>
	<path d=" M769.79 2482.38 L911.00 2462.67 L1052.22 2439.05 L1193.29 2413.93 L1334.51 2391.80 L1475.72 2372.49 L1616.94 2350.89 L1758.15 2329.02 L1899.23 2309.85 L2040.44 2287.17 L2181.65 2269.35 L2322.87 2250.59 L2464.08 2224.66 L2605.16 2192.26 L2746.37 2151.90 L2887.59 2108.03" stroke-linecap="round" stroke-linejoin="round" style="fill:none;stroke:#CC2529;stroke-width:16.20"/>
	<circle cx="769.79" cy="2482.38" r="17.42" style="fill:#CC2529"/>
	<circle cx="769.79" cy="2482.38" r="9.32" style="fill:none;stroke:#CC2529;stroke-width:16.20"/>
	<circle cx="911.00" cy="2462.67" r="17.42" style="fill:#CC2529"/>
	<circle cx="911.00" cy="2462.67" r="9.32" style="fill:none;stroke:#CC2529;stroke-width:16.20"/>
	<circle cx="1052.22" cy="2439.05" r="17.42" style="fill:#CC2529"/>
	<circle cx="1052.22" cy="2439.05" r="9.32" style="fill:none;stroke:#CC2529;stroke-width:16.20"/>
	<circle cx="1193.29" cy="2413.93" r="17.42" style="fill:#CC2529"/>
	<circle cx="1193.29" cy="2413.93" r="9.32" style="fill:none;stroke:#CC2529;stroke-width:16.20"/>
	<circle cx="1334.51" cy="2391.80" r="17.42" style="fill:#CC2529"/>
	<circle cx="1334.51" cy="2391.80" r="9.32" style="fill:none;stroke:#CC2529;stroke-width:16.20"/>
	<circle cx="1475.72" cy="2372.49" r="17.42" style="fill:#CC2529"/>
	<circle cx="1475.72" cy="2372.49" r="9.32" style="fill:none;stroke:#CC2529;stroke-width:16.20"/>
	<circle cx="1616.94" cy="2350.89" r="17.42" style="fill:#CC2529"/>
	<circle cx="1616.94" cy="2350.89" r="9.32" style="fill:none;stroke:#CC2529;stroke-width:16.20"/>
	<circle cx="1758.15" cy="2329.02" r="17.42" style="fill:#CC2529"/>
	<circle cx="1758.15" cy="2329.02" r="9.32" style="fill:none;stroke:#CC2529;stroke-width:16.20"/>
	<circle cx="1899.23" cy="2309.85" r="17.42" style="fill:#CC2529"/>
	<circle cx="1899.23" cy="2309.85" r="9.32" style="fill:none;stroke:#CC2529;stroke-width:16.20"/>
	<circle cx="2040.44" cy="2287.17" r="17.42" style="fill:#CC2529"/>
	<circle cx="2040.44" cy="2287.17" r="9.32" style="fill:none;stroke:#CC2529;stroke-width:16.20"/>
	<circle cx="2181.65" cy="2269.35" r="17.42" style="fill:#CC2529"/>
	<circle cx="2181.65" cy="2269.35" r="9.32" style="fill:none;stroke:#CC2529;stroke-width:16.20"/>
	<circle cx="2322.87" cy="2250.59" r="17.42" style="fill:#CC2529"/>
	<circle cx="2322.87" cy="2250.59" r="9.32" style="fill:none;stroke:#CC2529;stroke-width:16.20"/>
	<circle cx="2464.08" cy="2224.66" r="17.42" style="fill:#CC2529"/>
	<circle cx="2464.08" cy="2224.66" r="9.32" style="fill:none;stroke:#CC2529;stroke-width:16.20"/>
	<circle cx="2605.16" cy="2192.26" r="17.42" style="fill:#CC2529"/>
	<circle cx="2605.16" cy="2192.26" r="9.32" style="fill:none;stroke:#CC2529;stroke-width:16.20"/>
	<circle cx="2746.37" cy="2151.90" r="17.42" style="fill:#CC2529"/>
	<circle cx="2746.37" cy="2151.90" r="9.32" style="fill:none;stroke:#CC2529;stroke-width:16.20"/>
	<circle cx="2887.59" cy="2108.03" r="17.42" style="fill:#CC2529"/>
	<circle cx="2887.59" cy="2108.03" r="9.32" style="fill:none;stroke:#CC2529;stroke-width:16.20"/>
	<path d=" M769.79 2462.27 L911.00 2417.04 L1052.22 2392.47 L1193.29 2334.42 L1334.51 2267.86 L1475.72 2203.88 L1616.94 2201.58 L1758.15 2045.11 L1899.23 1944.68 L2040.44 1855.98 L2181.65 1750.41 L2322.87 1616.62 L2464.08 1466.37 L2605.16 1301.53 L2746.37 1161.95 L2887.59 1041.66 L3028.80 909.76 L3170.01 778.95 L3311.09 624.38" stroke-linecap="round" stroke-linejoin="round" style="fill:none;stroke:#535154;stroke-width:16.20"/>
	<circle cx="769.79" cy="2462.27" r="17.42" style="fill:#535154"/>
	<circle cx="769.79" cy="2462.27" r="9.32" style="fill:none;stroke:#535154;stroke-width:16.20"/>
	<circle cx="911.00" cy="2417.04" r="17.42" style="fill:#535154"/>
	<circle cx="911.00" cy="2417.04" r="9.32" style="fill:none;stroke:#535154;stroke-width:16.20"/>
	<circle cx="1052.22" cy="2392.47" r="17.42" style="fill:#535154"/>
	<circle cx="1052.22" cy="2392.47" r="9.32" style="fill:none;stroke:#535154;stroke-width:16.20"/>
	<circle cx="1193.29" cy="2334.42" r="17.42" style="fill:#535154"/>
	<circle cx="1193.29" cy="2334.42" r="9.32" style="fill:none;stroke:#535154;stroke-width:16.20"/>
	<circle cx="1334.51" cy="2267.86" r="17.42" style="fill:#535154"/>
	<circle cx="1334.51" cy="2267.86" r="9.32" style="fill:none;stroke:#535154;stroke-width:16.20"/>
	<circle cx="1475.72" cy="2203.88" r="17.42" style="fill:#535154"/>
	<circle cx="1475.72" cy="2203.88" r="9.32" style="fill:none;stroke:#535154;stroke-width:16.20"/>
	<circle cx="1616.94" cy="2201.58" r="17.42" style="fill:#535154"/>
	<circle cx="1616.94" cy="2201.58" r="9.32" style="fill:none;stroke:#535154;stroke-width:16.20"/>
	<circle cx="1758.15" cy="2045.11" r="17.42" style="fill:#535154"/>
	<circle cx="1758.15" cy="2045.11" r="9.32" style="fill:none;stroke:#535154;stroke-width:16.20"/>
	<circle cx="1899.23" cy="1944.68" r="17.42" style="fill:#535154"/>
	<circle cx="1899.23" cy="1944.68" r="9.32" style="fill:none;stroke:#535154;stroke-width:16.20"/>
	<circle cx="2040.44" cy="1855.98" r="17.42" style="fill:#535154"/>
	<circle cx="2040.44" cy="1855.98" r="9.32" style="fill:none;stroke:#535154;stroke-width:16.20"/>
	<circle cx="2181.65" cy="1750.41" r="17.42" style="fill:#535154"/>
	<circle cx="2181.65" cy="1750.41" r="9.32" style="fill:none;stroke:#535154;stroke-width:16.20"/>
	<circle cx="2322.87" cy="1616.62" r="17.42" style="fill:#535154"/>
	<circle cx="2322.87" cy="1616.62" r="9.32" style="fill:none;stroke:#535154;stroke-width:16.20"/>
	<circle cx="2464.08" cy="1466.37" r="17.42" style="fill:#535154"/>
	<circle cx="2464.08" cy="1466.37" r="9.32" style="fill:none;stroke:#535154;stroke-width:16.20"/>
	<circle cx="2605.16" cy="1301.53" r="17.42" style="fill:#535154"/>
	<circle cx="2605.16" cy="1301.53" r="9.32" style="fill:none;stroke:#535154;stroke-width:16.20"/>
	<circle cx="2746.37" cy="1161.95" r="17.42" style="fill:#535154"/>
	<circle cx="2746.37" cy="1161.95" r="9.32" style="fill:none;stroke:#535154;stroke-width:16.20"/>
	<circle cx="2887.59" cy="1041.66" r="17.42" style="fill:#535154"/>
	<circle cx="2887.59" cy="1041.66" r="9.32" style="fill:none;stroke:#535154;stroke-width:16.20"/>
	<circle cx="3028.80" cy="909.76" r="17.42" style="fill:#535154"/>
	<circle cx="3028.80" cy="909.76" r="9.32" style="fill:none;stroke:#535154;stroke-width:16.20"/>
	<circle cx="3170.01" cy="778.95" r="17.42" style="fill:#535154"/>
	<circle cx="3170.01" cy="778.95" r="9.32" style="fill:none;stroke:#535154;stroke-width:16.20"/>
	<circle cx="3311.09" cy="624.38" r="17.42" style="fill:#535154"/>
	<circle cx="3311.09" cy="624.38" r="9.32" style="fill:none;stroke:#535154;stroke-width:16.20"/>
	<path d=" M769.79 2460.24 L911.00 2395.17 L1052.22 2348.32 L1193.29 2283.66 L1334.51 2201.04 L1475.72 2089.39 L1616.94 1997.19 L1758.15 1836.27 L1899.23 1717.61 L2040.44 1570.59 L2181.65 1356.34 L2322.87 1098.09 L2464.08 818.91" stroke-linecap="round" stroke-linejoin="round" style="fill:none;stroke:#920328;stroke-width:16.20"/>
	<circle cx="769.79" cy="2460.24" r="17.42" style="fill:#920328"/>
	<circle cx="769.79" cy="2460.24" r="9.32" style="fill:none;stroke:#920328;stroke-width:16.20"/>
	<circle cx="911.00" cy="2395.17" r="17.42" style="fill:#920328"/>
	<circle cx="911.00" cy="2395.17" r="9.32" style="fill:none;stroke:#920328;stroke-width:16.20"/>
	<circle cx="1052.22" cy="2348.32" r="17.42" style="fill:#920328"/>
	<circle cx="1052.22" cy="2348.32" r="9.32" style="fill:none;stroke:#920328;stroke-width:16.20"/>
	<circle cx="1193.29" cy="2283.66" r="17.42" style="fill:#920328"/>
	<circle cx="1193.29" cy="2283.66" r="9.32" style="fill:none;stroke:#920328;stroke-width:16.20"/>
	<circle cx="1334.51" cy="2201.04" r="17.42" style="fill:#920328"/>
	<circle cx="1334.51" cy="2201.04" r="9.32" style="fill:none;stroke:#920328;stroke-width:16.20"/>
	<circle cx="1475.72" cy="2089.39" r="17.42" style="fill:#920328"/>
	<circle cx="1475.72" cy="2089.39" r="9.32" style="fill:none;stroke:#920328;stroke-width:16.20"/>
	<circle cx="1616.94" cy="1997.19" r="17.42" style="fill:#920328"/>
	<circle cx="1616.94" cy="1997.19" r="9.32" style="fill:none;stroke:#920328;stroke-width:16.20"/>
	<circle cx="1758.15" cy="1836.27" r="17.42" style="fill:#920328"/>
	<circle cx="1758.15" cy="1836.27" r="9.32" style="fill:none;stroke:#920328;stroke-width:16.20"/>
	<circle cx="1899.23" cy="1717.61" r="17.42" style="fill:#920328"/>
	<circle cx="1899.23" cy="1717.61" r="9.32" style="fill:none;stroke:#920328;stroke-width:16.20"/>
	<circle cx="2040.44" cy="1570.59" r="17.42" style="fill:#920328"/>
	<circle cx="2040.44" cy="1570.59" r="9.32" style="fill:none;stroke:#920328;stroke-width:16.20"/>
	<circle cx="2181.65" cy="1356.34" r="17.42" style="fill:#920328"/>
	<circle cx="2181.65" cy="1356.34" r="9.32" style="fill:none;stroke:#920328;stroke-width:16.20"/>
	<circle cx="2322.87" cy="1098.09" r="17.42" style="fill:#920328"/>
	<circle cx="2322.87" cy="1098.09" r="9.32" style="fill:none;stroke:#920328;stroke-width:16.20"/>
	<circle cx="2464.08" cy="818.91" r="17.42" style="fill:#920328"/>
	<circle cx="2464.08" cy="818.91" r="9.32" style="fill:none;stroke:#920328;stroke-width:16.20"/>
	<path d=" M769.79 2449.03 L911.00 2406.91 L1052.22 2258.01 L1193.29 2258.01 L1334.51 2178.36 L1475.72 2114.64 L1616.94 1959.12 L1758.15 1790.64 L1899.23 1571.67 L2040.44 1413.32 L2181.65 1228.50 L2322.87 1091.47 L2464.08 927.72 L2605.16 750.74" stroke-linecap="round" stroke-linejoin="round" style="fill:none;stroke:#948BA1;stroke-width:16.20"/>
	<circle cx="769.79" cy="2449.03" r="17.42" style="fill:#948BA1"/>
	<circle cx="769.79" cy="2449.03" r="9.32" style="fill:none;stroke:#948BA1;stroke-width:16.20"/>
	<circle cx="911.00" cy="2406.91" r="17.42" style="fill:#948BA1"/>
	<circle cx="911.00" cy="2406.91" r="9.32" style="fill:none;stroke:#948BA1;stroke-width:16.20"/>
	<circle cx="1052.22" cy="2258.01" r="17.42" style="fill:#948BA1"/>
	<circle cx="1052.22" cy="2258.01" r="9.32" style="fill:none;stroke:#948BA1;stroke-width:16.20"/>
	<circle cx="1193.29" cy="2258.01" r="17.42" style="fill:#948BA1"/>
	<circle cx="1193.29" cy="2258.01" r="9.32" style="fill:none;stroke:#948BA1;stroke-width:16.20"/>
	<circle cx="1334.51" cy="2178.36" r="17.42" style="fill:#948BA1"/>
	<circle cx="1334.51" cy="2178.36" r="9.32" style="fill:none;stroke:#948BA1;stroke-width:16.20"/>
	<circle cx="1475.72" cy="2114.64" r="17.42" style="fill:#948BA1"/>
	<circle cx="1475.72" cy="2114.64" r="9.32" style="fill:none;stroke:#948BA1;stroke-width:16.20"/>
	<circle cx="1616.94" cy="1959.12" r="17.42" style="fill:#948BA1"/>
	<circle cx="1616.94" cy="1959.12" r="9.32" style="fill:none;stroke:#948BA1;stroke-width:16.20"/>
	<circle cx="1758.15" cy="1790.64" r="17.42" style="fill:#948BA1"/>
	<circle cx="1758.15" cy="1790.64" r="9.32" style="fill:none;stroke:#948BA1;stroke-width:16.20"/>
	<circle cx="1899.23" cy="1571.67" r="17.42" style="fill:#948BA1"/>
	<circle cx="1899.23" cy="1571.67" r="9.32" style="fill:none;stroke:#948BA1;stroke-width:16.20"/>
	<circle cx="2040.44" cy="1413.32" r="17.42" style="fill:#948BA1"/>
	<circle cx="2040.44" cy="1413.32" r="9.32" style="fill:none;stroke:#948BA1;stroke-width:16.20"/>
	<circle cx="2181.65" cy="1228.50" r="17.42" style="fill:#948BA1"/>
	<circle cx="2181.65" cy="1228.50" r="9.32" style="fill:none;stroke:#948BA1;stroke-width:16.20"/>
	<circle cx="2322.87" cy="1091.47" r="17.42" style="fill:#948BA1"/>
	<circle cx="2322.87" cy="1091.47" r="9.32" style="fill:none;stroke:#948BA1;stroke-width:16.20"/>
	<circle cx="2464.08" cy="927.72" r="17.42" style="fill:#948BA1"/>
	<circle cx="2464.08" cy="927.72" r="9.32" style="fill:none;stroke:#948BA1;stroke-width:16.20"/>
	<circle cx="2605.16" cy="750.74" r="17.42" style="fill:#948BA1"/>
	<circle cx="2605.16" cy="750.74" r="9.32" style="fill:none;stroke:#948BA1;stroke-width:16.20"/>
	<path d=" M769.79 2465.51 L911.00 2432.84 L1052.22 2384.91" stroke-linecap="round" stroke-linejoin="round" style="fill:none;stroke:#7293CB;stroke-width:16.20"/>
	<circle cx="769.79" cy="2465.51" r="17.42" style="fill:#7293CB"/>
	<circle cx="769.79" cy="2465.51" r="9.32" style="fill:none;stroke:#7293CB;stroke-width:16.20"/>
	<circle cx="911.00" cy="2432.84" r="17.42" style="fill:#7293CB"/>
	<circle cx="911.00" cy="2432.84" r="9.32" style="fill:none;stroke:#7293CB;stroke-width:16.20"/>
	<circle cx="1052.22" cy="2384.91" r="17.42" style="fill:#7293CB"/>
	<circle cx="1052.22" cy="2384.91" r="9.32" style="fill:none;stroke:#7293CB;stroke-width:16.20"/>
	<path d=" M769.79 2484.68 L911.00 2432.84 L1052.22 2392.20 L1193.29 2327.67 L1334.51 2250.05" stroke-linecap="round" stroke-linejoin="round" style="fill:none;stroke:#E1974C;stroke-width:16.20"/>
	<circle cx="769.79" cy="2484.68" r="17.42" style="fill:#E1974C"/>
	<circle cx="769.79" cy="2484.68" r="9.32" style="fill:none;stroke:#E1974C;stroke-width:16.20"/>
	<circle cx="911.00" cy="2432.84" r="17.42" style="fill:#E1974C"/>
	<circle cx="911.00" cy="2432.84" r="9.32" style="fill:none;stroke:#E1974C;stroke-width:16.20"/>
	<circle cx="1052.22" cy="2392.20" r="17.42" style="fill:#E1974C"/>
	<circle cx="1052.22" cy="2392.20" r="9.32" style="fill:none;stroke:#E1974C;stroke-width:16.20"/>
	<circle cx="1193.29" cy="2327.67" r="17.42" style="fill:#E1974C"/>
	<circle cx="1193.29" cy="2327.67" r="9.32" style="fill:none;stroke:#E1974C;stroke-width:16.20"/>
	<circle cx="1334.51" cy="2250.05" r="17.42" style="fill:#E1974C"/>
	<circle cx="1334.51" cy="2250.05" r="9.32" style="fill:none;stroke:#E1974C;stroke-width:16.20"/>
	<line x1="607.11" y1="2668.95" x2="607.11" y2="344.25" style="stroke:#000000;stroke-width:7.20"/>
	<line x1="607.11" y1="2647.35" x2="557.02" y2="2647.35" style="stroke:#000000;stroke-width:7.20"/>
	<text x="532.05" y="2691.14" style="font-family:'Helvetica';font-size:125.01px;fill:#000000" text-anchor="end">0</text>
	<line x1="607.11" y1="1886.89" x2="557.02" y2="1886.89" style="stroke:#000000;stroke-width:7.20"/>
	<text x="532.05" y="1930.68" style="font-family:'Helvetica';font-size:125.01px;fill:#000000" text-anchor="end">500</text>
	<line x1="607.11" y1="1126.44" x2="557.02" y2="1126.44" style="stroke:#000000;stroke-width:7.20"/>
	<text x="532.05" y="1170.23" style="font-family:'Helvetica';font-size:125.01px;fill:#000000" text-anchor="end">1000</text>
	<line x1="607.11" y1="365.85" x2="557.02" y2="365.85" style="stroke:#000000;stroke-width:7.20"/>
	<text x="532.05" y="409.64" style="font-family:'Helvetica';font-size:125.01px;fill:#000000" text-anchor="end">1500</text>
	<text x="238.38" y="1506.60" style="font-family:'Helvetica';font-size:125.01px;fill:#000000" transform="rotate(-90 238.38,1506.60)" text-anchor="middle">Number of cases, per million inhabitants</text>
	<line x1="607.11" y1="2668.95" x2="3474.04" y2="2668.95" style="stroke:#000000;stroke-width:7.20"/>
	<line x1="628.71" y1="2668.95" x2="628.71" y2="2719.03" style="stroke:#000000;stroke-width:7.20"/>
	<text x="628.71" y="2831.45" style="font-family:'Helvetica';font-size:125.01px;fill:#000000" text-anchor="middle">0</text>
	<line x1="1334.64" y1="2668.95" x2="1334.64" y2="2719.03" style="stroke:#000000;stroke-width:7.20"/>
	<text x="1334.64" y="2831.45" style="font-family:'Helvetica';font-size:125.01px;fill:#000000" text-anchor="middle">5</text>
	<line x1="2040.58" y1="2668.95" x2="2040.58" y2="2719.03" style="stroke:#000000;stroke-width:7.20"/>
	<text x="2040.58" y="2831.45" style="font-family:'Helvetica';font-size:125.01px;fill:#000000" text-anchor="middle">10</text>
	<line x1="2746.51" y1="2668.95" x2="2746.51" y2="2719.03" style="stroke:#000000;stroke-width:7.20"/>
	<text x="2746.51" y="2831.45" style="font-family:'Helvetica';font-size:125.01px;fill:#000000" text-anchor="middle">15</text>
	<line x1="3452.44" y1="2668.95" x2="3452.44" y2="2719.03" style="stroke:#000000;stroke-width:7.20"/>
	<text x="3452.44" y="2831.45" style="font-family:'Helvetica';font-size:125.01px;fill:#000000" text-anchor="middle">20</text>
	<text x="2040.58" y="2968.88" style="font-family:'Helvetica';font-size:125.01px;fill:#000000" text-anchor="middle">Days since 100th case per million</text>
	<rect x="833.78" y="3074.62" width="2413.46" height="932.99" style="fill:#FFFFFF"/>
	<rect x="837.38" y="3078.22" width="2406.26" height="925.79" style="fill:none;stroke:#000000;stroke-width:7.20"/>
	<line x1="887.78" y1="3191.13" x2="1355.84" y2="3191.13" style="stroke:#396AB1;stroke-width:16.20"/>
	<circle cx="1121.88" cy="3191.13" r="17.42" style="fill:#396AB1"/>
	<circle cx="1121.88" cy="3191.13" r="9.32" style="fill:none;stroke:#396AB1;stroke-width:16.20"/>
	<line x1="2066.63" y1="3191.13" x2="2534.69" y2="3191.13" style="stroke:#DA7C30;stroke-width:16.20"/>
	<circle cx="2300.59" cy="3191.13" r="17.42" style="fill:#DA7C30"/>
	<circle cx="2300.59" cy="3191.13" r="9.32" style="fill:none;stroke:#DA7C30;stroke-width:16.20"/>
	<line x1="887.78" y1="3366.22" x2="1355.84" y2="3366.22" style="stroke:#3E9651;stroke-width:16.20"/>
	<circle cx="1121.88" cy="3366.22" r="17.42" style="fill:#3E9651"/>
	<circle cx="1121.88" cy="3366.22" r="9.32" style="fill:none;stroke:#3E9651;stroke-width:16.20"/>
	<line x1="2066.63" y1="3366.22" x2="2534.69" y2="3366.22" style="stroke:#CC2529;stroke-width:16.20"/>
	<circle cx="2300.59" cy="3366.22" r="17.42" style="fill:#CC2529"/>
	<circle cx="2300.59" cy="3366.22" r="9.32" style="fill:none;stroke:#CC2529;stroke-width:16.20"/>
	<line x1="887.78" y1="3541.18" x2="1355.84" y2="3541.18" style="stroke:#535154;stroke-width:16.20"/>
	<circle cx="1121.88" cy="3541.18" r="17.42" style="fill:#535154"/>
	<circle cx="1121.88" cy="3541.18" r="9.32" style="fill:none;stroke:#535154;stroke-width:16.20"/>
	<line x1="2066.63" y1="3541.18" x2="2534.69" y2="3541.18" style="stroke:#6B4C9A;stroke-width:16.20"/>
	<circle cx="2300.59" cy="3541.18" r="17.42" style="fill:#6B4C9A"/>
	<circle cx="2300.59" cy="3541.18" r="9.32" style="fill:none;stroke:#6B4C9A;stroke-width:16.20"/>
	<line x1="887.78" y1="3716.14" x2="1355.84" y2="3716.14" style="stroke:#920328;stroke-width:16.20"/>
	<circle cx="1121.88" cy="3716.14" r="17.42" style="fill:#920328"/>
	<circle cx="1121.88" cy="3716.14" r="9.32" style="fill:none;stroke:#920328;stroke-width:16.20"/>
	<line x1="2066.63" y1="3716.14" x2="2534.69" y2="3716.14" style="stroke:#948BA1;stroke-width:16.20"/>
	<circle cx="2300.59" cy="3716.14" r="17.42" style="fill:#948BA1"/>
	<circle cx="2300.59" cy="3716.14" r="9.32" style="fill:none;stroke:#948BA1;stroke-width:16.20"/>
	<line x1="887.78" y1="3891.11" x2="1355.84" y2="3891.11" style="stroke:#7293CB;stroke-width:16.20"/>
	<circle cx="1121.88" cy="3891.11" r="17.42" style="fill:#7293CB"/>
	<circle cx="1121.88" cy="3891.11" r="9.32" style="fill:none;stroke:#7293CB;stroke-width:16.20"/>
	<line x1="2066.63" y1="3891.11" x2="2534.69" y2="3891.11" style="stroke:#E1974C;stroke-width:16.20"/>
	<circle cx="2300.59" cy="3891.11" r="17.42" style="fill:#E1974C"/>
	<circle cx="2300.59" cy="3891.11" r="9.32" style="fill:none;stroke:#E1974C;stroke-width:16.20"/>
	<text x="1430.77" y="3226.18" style="font-family:'Helvetica';font-size:100.04px;fill:#000000"> China</text>
	<text x="2609.62" y="3226.18" style="font-family:'Helvetica';font-size:100.04px;fill:#000000"> France</text>
	<text x="1430.77" y="3401.27" style="font-family:'Helvetica';font-size:100.04px;fill:#000000"> Germany</text>
	<text x="2609.62" y="3401.27" style="font-family:'Helvetica';font-size:100.04px;fill:#000000"> Iran</text>
	<text x="1430.77" y="3576.23" style="font-family:'Helvetica';font-size:100.04px;fill:#000000"> Italy</text>
	<text x="2609.62" y="3576.23" style="font-family:'Helvetica';font-size:100.04px;fill:#000000"> SouthKorea</text>
	<text x="1430.77" y="3751.19" style="font-family:'Helvetica';font-size:100.04px;fill:#000000"> Spain</text>
	<text x="2609.62" y="3751.19" style="font-family:'Helvetica';font-size:100.04px;fill:#000000"> Switzerland</text>
	<text x="1430.77" y="3926.15" style="font-family:'Helvetica';font-size:100.04px;fill:#000000"> UK</text>
	<text x="2609.62" y="3926.15" style="font-family:'Helvetica';font-size:100.04px;fill:#000000"> USA</text>
	<text x="628.71" y="4142.37" style="font-family:'Helvetica';font-size:100.04px;fill:#000000">Source: Learning from the curve. Data: ww.ecdc.europa.eu.</text>
	<text x="2040.58" y="270.09" style="font-family:'Helvetica';font-size:174.96px;fill:#000000" text-anchor="middle">Cumulative cases, per million inhabitants</text>
</svg>
