<?xml version="1.0" encoding="UTF-8" standalone="no"?>
<!-- This is a Stata 15.1 generated SVG file (http://www.stata.com) -->

<svg version="1.1" width="5.50in" height="6.00in" viewBox="0 0 3800 4320" xmlns="http://www.w3.org/2000/svg" xmlns:xlink="http://www.w3.org/1999/xlink">
	<desc>Stata Graph - Graph</desc>
	<rect x="0" y="0" width="3800" height="4320" style="fill:#FFFFFF;stroke:none"/>
	<rect x="0.00" y="0.14" width="3600.00" height="4319.86" style="fill:#FFFFFF"/>
	<rect x="3.60" y="3.74" width="3592.80" height="4312.66" style="fill:none;stroke:#FFFFFF;stroke-width:7.20"/>
	<rect x="545.14" y="344.25" width="2928.90" height="2324.70" style="fill:#FFFFFF"/>
	<rect x="548.74" y="347.85" width="2921.70" height="2317.50" style="fill:none;stroke:#FFFFFF;stroke-width:7.20"/>
	<line x1="545.14" y1="2647.35" x2="3474.04" y2="2647.35" style="stroke:#FFFFFF;stroke-width:10.80"/>
	<line x1="545.14" y1="1886.89" x2="3474.04" y2="1886.89" style="stroke:#FFFFFF;stroke-width:10.80"/>
	<line x1="545.14" y1="1126.44" x2="3474.04" y2="1126.44" style="stroke:#FFFFFF;stroke-width:10.80"/>
	<line x1="545.14" y1="365.85" x2="3474.04" y2="365.85" style="stroke:#FFFFFF;stroke-width:10.80"/>
	<path d=" M682.17 2620.35 L797.60 2604.96 L913.03 2596.45 L1028.46 2589.70 L1143.88 2564.19" stroke-linecap="round" stroke-linejoin="round" style="fill:none;stroke:#396AB1;stroke-width:16.20"/>
	<circle cx="682.17" cy="2620.35" r="17.42" style="fill:#396AB1"/>
	<circle cx="682.17" cy="2620.35" r="9.32" style="fill:none;stroke:#396AB1;stroke-width:16.20"/>
	<circle cx="797.60" cy="2604.96" r="17.42" style="fill:#396AB1"/>
	<circle cx="797.60" cy="2604.96" r="9.32" style="fill:none;stroke:#396AB1;stroke-width:16.20"/>
	<circle cx="913.03" cy="2596.45" r="17.42" style="fill:#396AB1"/>
	<circle cx="913.03" cy="2596.45" r="9.32" style="fill:none;stroke:#396AB1;stroke-width:16.20"/>
	<circle cx="1028.46" cy="2589.70" r="17.42" style="fill:#396AB1"/>
	<circle cx="1028.46" cy="2589.70" r="9.32" style="fill:none;stroke:#396AB1;stroke-width:16.20"/>
	<circle cx="1143.88" cy="2564.19" r="17.42" style="fill:#396AB1"/>
	<circle cx="1143.88" cy="2564.19" r="9.32" style="fill:none;stroke:#396AB1;stroke-width:16.20"/>
	<path d=" M682.17 2628.99 L797.60 2619.81 L913.03 2598.75 L1028.46 2559.19 L1143.88 2548.66 L1259.31 2531.52 L1374.74 2486.70 L1490.03 2412.86 L1605.46 2357.51" stroke-linecap="round" stroke-linejoin="round" style="fill:none;stroke:#DA7C30;stroke-width:16.20"/>
	<circle cx="682.17" cy="2628.99" r="17.42" style="fill:#DA7C30"/>
	<circle cx="682.17" cy="2628.99" r="9.32" style="fill:none;stroke:#DA7C30;stroke-width:16.20"/>
	<circle cx="797.60" cy="2619.81" r="17.42" style="fill:#DA7C30"/>
	<circle cx="797.60" cy="2619.81" r="9.32" style="fill:none;stroke:#DA7C30;stroke-width:16.20"/>
	<circle cx="913.03" cy="2598.75" r="17.42" style="fill:#DA7C30"/>
	<circle cx="913.03" cy="2598.75" r="9.32" style="fill:none;stroke:#DA7C30;stroke-width:16.20"/>
	<circle cx="1028.46" cy="2559.19" r="17.42" style="fill:#DA7C30"/>
	<circle cx="1028.46" cy="2559.19" r="9.32" style="fill:none;stroke:#DA7C30;stroke-width:16.20"/>
	<circle cx="1143.88" cy="2548.66" r="17.42" style="fill:#DA7C30"/>
	<circle cx="1143.88" cy="2548.66" r="9.32" style="fill:none;stroke:#DA7C30;stroke-width:16.20"/>
	<circle cx="1259.31" cy="2531.52" r="17.42" style="fill:#DA7C30"/>
	<circle cx="1259.31" cy="2531.52" r="9.32" style="fill:none;stroke:#DA7C30;stroke-width:16.20"/>
	<circle cx="1374.74" cy="2486.70" r="17.42" style="fill:#DA7C30"/>
	<circle cx="1374.74" cy="2486.70" r="9.32" style="fill:none;stroke:#DA7C30;stroke-width:16.20"/>
	<circle cx="1490.03" cy="2412.86" r="17.42" style="fill:#DA7C30"/>
	<circle cx="1490.03" cy="2412.86" r="9.32" style="fill:none;stroke:#DA7C30;stroke-width:16.20"/>
	<circle cx="1605.46" cy="2357.51" r="17.42" style="fill:#DA7C30"/>
	<circle cx="1605.46" cy="2357.51" r="9.32" style="fill:none;stroke:#DA7C30;stroke-width:16.20"/>
	<path d=" M682.17 2628.99 L797.60 2626.15 L913.03 2617.78 L1028.46 2612.93 L1143.88 2606.58 L1259.31 2590.52 L1374.74 2560.55 L1490.03 2542.32 L1605.46 2516.27 L1720.89 2490.07 L1836.32 2446.61 L1951.74 2390.58 L2067.17 2336.58 L2182.60 2251.39" stroke-linecap="round" stroke-linejoin="round" style="fill:none;stroke:#3E9651;stroke-width:16.20"/>
	<circle cx="682.17" cy="2628.99" r="17.42" style="fill:#3E9651"/>
	<circle cx="682.17" cy="2628.99" r="9.32" style="fill:none;stroke:#3E9651;stroke-width:16.20"/>
	<circle cx="797.60" cy="2626.15" r="17.42" style="fill:#3E9651"/>
	<circle cx="797.60" cy="2626.15" r="9.32" style="fill:none;stroke:#3E9651;stroke-width:16.20"/>
	<circle cx="913.03" cy="2617.78" r="17.42" style="fill:#3E9651"/>
	<circle cx="913.03" cy="2617.78" r="9.32" style="fill:none;stroke:#3E9651;stroke-width:16.20"/>
	<circle cx="1028.46" cy="2612.93" r="17.42" style="fill:#3E9651"/>
	<circle cx="1028.46" cy="2612.93" r="9.32" style="fill:none;stroke:#3E9651;stroke-width:16.20"/>
	<circle cx="1143.88" cy="2606.58" r="17.42" style="fill:#3E9651"/>
	<circle cx="1143.88" cy="2606.58" r="9.32" style="fill:none;stroke:#3E9651;stroke-width:16.20"/>
	<circle cx="1259.31" cy="2590.52" r="17.42" style="fill:#3E9651"/>
	<circle cx="1259.31" cy="2590.52" r="9.32" style="fill:none;stroke:#3E9651;stroke-width:16.20"/>
	<circle cx="1374.74" cy="2560.55" r="17.42" style="fill:#3E9651"/>
	<circle cx="1374.74" cy="2560.55" r="9.32" style="fill:none;stroke:#3E9651;stroke-width:16.20"/>
	<circle cx="1490.03" cy="2542.32" r="17.42" style="fill:#3E9651"/>
	<circle cx="1490.03" cy="2542.32" r="9.32" style="fill:none;stroke:#3E9651;stroke-width:16.20"/>
	<circle cx="1605.46" cy="2516.27" r="17.42" style="fill:#3E9651"/>
	<circle cx="1605.46" cy="2516.27" r="9.32" style="fill:none;stroke:#3E9651;stroke-width:16.20"/>
	<circle cx="1720.89" cy="2490.07" r="17.42" style="fill:#3E9651"/>
	<circle cx="1720.89" cy="2490.07" r="9.32" style="fill:none;stroke:#3E9651;stroke-width:16.20"/>
	<circle cx="1836.32" cy="2446.61" r="17.42" style="fill:#3E9651"/>
	<circle cx="1836.32" cy="2446.61" r="9.32" style="fill:none;stroke:#3E9651;stroke-width:16.20"/>
	<circle cx="1951.74" cy="2390.58" r="17.42" style="fill:#3E9651"/>
	<circle cx="1951.74" cy="2390.58" r="9.32" style="fill:none;stroke:#3E9651;stroke-width:16.20"/>
	<circle cx="2067.17" cy="2336.58" r="17.42" style="fill:#3E9651"/>
	<circle cx="2067.17" cy="2336.58" r="9.32" style="fill:none;stroke:#3E9651;stroke-width:16.20"/>
	<circle cx="2182.60" cy="2251.39" r="17.42" style="fill:#3E9651"/>
	<circle cx="2182.60" cy="2251.39" r="9.32" style="fill:none;stroke:#3E9651;stroke-width:16.20"/>
	<path d=" M682.17 2630.34 L797.60 2624.53 L913.03 2620.35 L1028.46 2611.44 L1143.88 2601.45" stroke-linecap="round" stroke-linejoin="round" style="fill:none;stroke:#CC2529;stroke-width:16.20"/>
	<circle cx="682.17" cy="2630.34" r="17.42" style="fill:#CC2529"/>
	<circle cx="682.17" cy="2630.34" r="9.32" style="fill:none;stroke:#CC2529;stroke-width:16.20"/>
	<circle cx="797.60" cy="2624.53" r="17.42" style="fill:#CC2529"/>
	<circle cx="797.60" cy="2624.53" r="9.32" style="fill:none;stroke:#CC2529;stroke-width:16.20"/>
	<circle cx="913.03" cy="2620.35" r="17.42" style="fill:#CC2529"/>
	<circle cx="913.03" cy="2620.35" r="9.32" style="fill:none;stroke:#CC2529;stroke-width:16.20"/>
	<circle cx="1028.46" cy="2611.44" r="17.42" style="fill:#CC2529"/>
	<circle cx="1028.46" cy="2611.44" r="9.32" style="fill:none;stroke:#CC2529;stroke-width:16.20"/>
	<circle cx="1143.88" cy="2601.45" r="17.42" style="fill:#CC2529"/>
	<circle cx="1143.88" cy="2601.45" r="9.32" style="fill:none;stroke:#CC2529;stroke-width:16.20"/>
	<path d=" M682.17 2627.37 L797.60 2620.62 L913.03 2610.22 L1028.46 2597.94 L1143.88 2588.89 L1259.31 2555.55 L1374.74 2530.85 L1490.03 2488.99 L1605.46 2439.72 L1720.89 2392.20 L1836.32 2328.89 L1951.74 2285.55 L2067.17 2192.53 L2182.60 2105.32 L2298.03 2018.25 L2413.46 1899.45 L2528.88 1791.59 L2644.31 1634.58 L2759.74 1434.91 L2875.17 1271.97 L2990.59 1120.91 L3106.02 934.34 L3221.45 762.21 L3336.88 596.43" stroke-linecap="round" stroke-linejoin="round" style="fill:none;stroke:#535154;stroke-width:16.20"/>
	<circle cx="682.17" cy="2627.37" r="17.42" style="fill:#535154"/>
	<circle cx="682.17" cy="2627.37" r="9.32" style="fill:none;stroke:#535154;stroke-width:16.20"/>
	<circle cx="797.60" cy="2620.62" r="17.42" style="fill:#535154"/>
	<circle cx="797.60" cy="2620.62" r="9.32" style="fill:none;stroke:#535154;stroke-width:16.20"/>
	<circle cx="913.03" cy="2610.22" r="17.42" style="fill:#535154"/>
	<circle cx="913.03" cy="2610.22" r="9.32" style="fill:none;stroke:#535154;stroke-width:16.20"/>
	<circle cx="1028.46" cy="2597.94" r="17.42" style="fill:#535154"/>
	<circle cx="1028.46" cy="2597.94" r="9.32" style="fill:none;stroke:#535154;stroke-width:16.20"/>
	<circle cx="1143.88" cy="2588.89" r="17.42" style="fill:#535154"/>
	<circle cx="1143.88" cy="2588.89" r="9.32" style="fill:none;stroke:#535154;stroke-width:16.20"/>
	<circle cx="1259.31" cy="2555.55" r="17.42" style="fill:#535154"/>
	<circle cx="1259.31" cy="2555.55" r="9.32" style="fill:none;stroke:#535154;stroke-width:16.20"/>
	<circle cx="1374.74" cy="2530.85" r="17.42" style="fill:#535154"/>
	<circle cx="1374.74" cy="2530.85" r="9.32" style="fill:none;stroke:#535154;stroke-width:16.20"/>
	<circle cx="1490.03" cy="2488.99" r="17.42" style="fill:#535154"/>
	<circle cx="1490.03" cy="2488.99" r="9.32" style="fill:none;stroke:#535154;stroke-width:16.20"/>
	<circle cx="1605.46" cy="2439.72" r="17.42" style="fill:#535154"/>
	<circle cx="1605.46" cy="2439.72" r="9.32" style="fill:none;stroke:#535154;stroke-width:16.20"/>
	<circle cx="1720.89" cy="2392.20" r="17.42" style="fill:#535154"/>
	<circle cx="1720.89" cy="2392.20" r="9.32" style="fill:none;stroke:#535154;stroke-width:16.20"/>
	<circle cx="1836.32" cy="2328.89" r="17.42" style="fill:#535154"/>
	<circle cx="1836.32" cy="2328.89" r="9.32" style="fill:none;stroke:#535154;stroke-width:16.20"/>
	<circle cx="1951.74" cy="2285.55" r="17.42" style="fill:#535154"/>
	<circle cx="1951.74" cy="2285.55" r="9.32" style="fill:none;stroke:#535154;stroke-width:16.20"/>
	<circle cx="2067.17" cy="2192.53" r="17.42" style="fill:#535154"/>
	<circle cx="2067.17" cy="2192.53" r="9.32" style="fill:none;stroke:#535154;stroke-width:16.20"/>
	<circle cx="2182.60" cy="2105.32" r="17.42" style="fill:#535154"/>
	<circle cx="2182.60" cy="2105.32" r="9.32" style="fill:none;stroke:#535154;stroke-width:16.20"/>
	<circle cx="2298.03" cy="2018.25" r="17.42" style="fill:#535154"/>
	<circle cx="2298.03" cy="2018.25" r="9.32" style="fill:none;stroke:#535154;stroke-width:16.20"/>
	<circle cx="2413.46" cy="1899.45" r="17.42" style="fill:#535154"/>
	<circle cx="2413.46" cy="1899.45" r="9.32" style="fill:none;stroke:#535154;stroke-width:16.20"/>
	<circle cx="2528.88" cy="1791.59" r="17.42" style="fill:#535154"/>
	<circle cx="2528.88" cy="1791.59" r="9.32" style="fill:none;stroke:#535154;stroke-width:16.20"/>
	<circle cx="2644.31" cy="1634.58" r="17.42" style="fill:#535154"/>
	<circle cx="2644.31" cy="1634.58" r="9.32" style="fill:none;stroke:#535154;stroke-width:16.20"/>
	<circle cx="2759.74" cy="1434.91" r="17.42" style="fill:#535154"/>
	<circle cx="2759.74" cy="1434.91" r="9.32" style="fill:none;stroke:#535154;stroke-width:16.20"/>
	<circle cx="2875.17" cy="1271.97" r="17.42" style="fill:#535154"/>
	<circle cx="2875.17" cy="1271.97" r="9.32" style="fill:none;stroke:#535154;stroke-width:16.20"/>
	<circle cx="2990.59" cy="1120.91" r="17.42" style="fill:#535154"/>
	<circle cx="2990.59" cy="1120.91" r="9.32" style="fill:none;stroke:#535154;stroke-width:16.20"/>
	<circle cx="3106.02" cy="934.34" r="17.42" style="fill:#535154"/>
	<circle cx="3106.02" cy="934.34" r="9.32" style="fill:none;stroke:#535154;stroke-width:16.20"/>
	<circle cx="3221.45" cy="762.21" r="17.42" style="fill:#535154"/>
	<circle cx="3221.45" cy="762.21" r="9.32" style="fill:none;stroke:#535154;stroke-width:16.20"/>
	<circle cx="3336.88" cy="596.43" r="17.42" style="fill:#535154"/>
	<circle cx="3336.88" cy="596.43" r="9.32" style="fill:none;stroke:#535154;stroke-width:16.20"/>
	<path d=" M682.17 2629.66 L797.60 2626.15 L913.03 2609.14 L1028.46 2595.91 L1143.88 2579.85 L1259.31 2553.12 L1374.74 2526.53 L1490.03 2488.18 L1605.46 2457.94 L1720.89 2401.92 L1836.32 2330.78 L1951.74 2261.39" stroke-linecap="round" stroke-linejoin="round" style="fill:none;stroke:#6B4C9A;stroke-width:16.20"/>
	<circle cx="682.17" cy="2629.66" r="17.42" style="fill:#6B4C9A"/>
	<circle cx="682.17" cy="2629.66" r="9.32" style="fill:none;stroke:#6B4C9A;stroke-width:16.20"/>
	<circle cx="797.60" cy="2626.15" r="17.42" style="fill:#6B4C9A"/>
	<circle cx="797.60" cy="2626.15" r="9.32" style="fill:none;stroke:#6B4C9A;stroke-width:16.20"/>
	<circle cx="913.03" cy="2609.14" r="17.42" style="fill:#6B4C9A"/>
	<circle cx="913.03" cy="2609.14" r="9.32" style="fill:none;stroke:#6B4C9A;stroke-width:16.20"/>
	<circle cx="1028.46" cy="2595.91" r="17.42" style="fill:#6B4C9A"/>
	<circle cx="1028.46" cy="2595.91" r="9.32" style="fill:none;stroke:#6B4C9A;stroke-width:16.20"/>
	<circle cx="1143.88" cy="2579.85" r="17.42" style="fill:#6B4C9A"/>
	<circle cx="1143.88" cy="2579.85" r="9.32" style="fill:none;stroke:#6B4C9A;stroke-width:16.20"/>
	<circle cx="1259.31" cy="2553.12" r="17.42" style="fill:#6B4C9A"/>
	<circle cx="1259.31" cy="2553.12" r="9.32" style="fill:none;stroke:#6B4C9A;stroke-width:16.20"/>
	<circle cx="1374.74" cy="2526.53" r="17.42" style="fill:#6B4C9A"/>
	<circle cx="1374.74" cy="2526.53" r="9.32" style="fill:none;stroke:#6B4C9A;stroke-width:16.20"/>
	<circle cx="1490.03" cy="2488.18" r="17.42" style="fill:#6B4C9A"/>
	<circle cx="1490.03" cy="2488.18" r="9.32" style="fill:none;stroke:#6B4C9A;stroke-width:16.20"/>
	<circle cx="1605.46" cy="2457.94" r="17.42" style="fill:#6B4C9A"/>
	<circle cx="1605.46" cy="2457.94" r="9.32" style="fill:none;stroke:#6B4C9A;stroke-width:16.20"/>
	<circle cx="1720.89" cy="2401.92" r="17.42" style="fill:#6B4C9A"/>
	<circle cx="1720.89" cy="2401.92" r="9.32" style="fill:none;stroke:#6B4C9A;stroke-width:16.20"/>
	<circle cx="1836.32" cy="2330.78" r="17.42" style="fill:#6B4C9A"/>
	<circle cx="1836.32" cy="2330.78" r="9.32" style="fill:none;stroke:#6B4C9A;stroke-width:16.20"/>
	<circle cx="1951.74" cy="2261.39" r="17.42" style="fill:#6B4C9A"/>
	<circle cx="1951.74" cy="2261.39" r="9.32" style="fill:none;stroke:#6B4C9A;stroke-width:16.20"/>
	<path d=" M682.17 2629.66 L797.60 2626.69 L913.03 2613.19 L1028.46 2598.35 L1143.88 2583.49 L1259.31 2558.25" stroke-linecap="round" stroke-linejoin="round" style="fill:none;stroke:#920328;stroke-width:16.20"/>
	<circle cx="682.17" cy="2629.66" r="17.42" style="fill:#920328"/>
	<circle cx="682.17" cy="2629.66" r="9.32" style="fill:none;stroke:#920328;stroke-width:16.20"/>
	<circle cx="797.60" cy="2626.69" r="17.42" style="fill:#920328"/>
	<circle cx="797.60" cy="2626.69" r="9.32" style="fill:none;stroke:#920328;stroke-width:16.20"/>
	<circle cx="913.03" cy="2613.19" r="17.42" style="fill:#920328"/>
	<circle cx="913.03" cy="2613.19" r="9.32" style="fill:none;stroke:#920328;stroke-width:16.20"/>
	<circle cx="1028.46" cy="2598.35" r="17.42" style="fill:#920328"/>
	<circle cx="1028.46" cy="2598.35" r="9.32" style="fill:none;stroke:#920328;stroke-width:16.20"/>
	<circle cx="1143.88" cy="2583.49" r="17.42" style="fill:#920328"/>
	<circle cx="1143.88" cy="2583.49" r="9.32" style="fill:none;stroke:#920328;stroke-width:16.20"/>
	<circle cx="1259.31" cy="2558.25" r="17.42" style="fill:#920328"/>
	<circle cx="1259.31" cy="2558.25" r="9.32" style="fill:none;stroke:#920328;stroke-width:16.20"/>
	<path d=" M682.17 2632.23 L797.60 2620.08 L913.03 2608.07 L1028.46 2603.20 L1143.88 2553.80 L1259.31 2546.91 L1374.74 2487.64 L1490.03 2452.82 L1605.46 2397.87 L1720.89 2321.32 L1836.32 2215.89 L1951.74 2087.64 L2067.17 1937.39 L2182.60 1770.12 L2298.03 1529.95 L2413.46 1316.79" stroke-linecap="round" stroke-linejoin="round" style="fill:none;stroke:#948BA1;stroke-width:16.20"/>
	<circle cx="682.17" cy="2632.23" r="17.42" style="fill:#948BA1"/>
	<circle cx="682.17" cy="2632.23" r="9.32" style="fill:none;stroke:#948BA1;stroke-width:16.20"/>
	<circle cx="797.60" cy="2620.08" r="17.42" style="fill:#948BA1"/>
	<circle cx="797.60" cy="2620.08" r="9.32" style="fill:none;stroke:#948BA1;stroke-width:16.20"/>
	<circle cx="913.03" cy="2608.07" r="17.42" style="fill:#948BA1"/>
	<circle cx="913.03" cy="2608.07" r="9.32" style="fill:none;stroke:#948BA1;stroke-width:16.20"/>
	<circle cx="1028.46" cy="2603.20" r="17.42" style="fill:#948BA1"/>
	<circle cx="1028.46" cy="2603.20" r="9.32" style="fill:none;stroke:#948BA1;stroke-width:16.20"/>
	<circle cx="1143.88" cy="2553.80" r="17.42" style="fill:#948BA1"/>
	<circle cx="1143.88" cy="2553.80" r="9.32" style="fill:none;stroke:#948BA1;stroke-width:16.20"/>
	<circle cx="1259.31" cy="2546.91" r="17.42" style="fill:#948BA1"/>
	<circle cx="1259.31" cy="2546.91" r="9.32" style="fill:none;stroke:#948BA1;stroke-width:16.20"/>
	<circle cx="1374.74" cy="2487.64" r="17.42" style="fill:#948BA1"/>
	<circle cx="1374.74" cy="2487.64" r="9.32" style="fill:none;stroke:#948BA1;stroke-width:16.20"/>
	<circle cx="1490.03" cy="2452.82" r="17.42" style="fill:#948BA1"/>
	<circle cx="1490.03" cy="2452.82" r="9.32" style="fill:none;stroke:#948BA1;stroke-width:16.20"/>
	<circle cx="1605.46" cy="2397.87" r="17.42" style="fill:#948BA1"/>
	<circle cx="1605.46" cy="2397.87" r="9.32" style="fill:none;stroke:#948BA1;stroke-width:16.20"/>
	<circle cx="1720.89" cy="2321.32" r="17.42" style="fill:#948BA1"/>
	<circle cx="1720.89" cy="2321.32" r="9.32" style="fill:none;stroke:#948BA1;stroke-width:16.20"/>
	<circle cx="1836.32" cy="2215.89" r="17.42" style="fill:#948BA1"/>
	<circle cx="1836.32" cy="2215.89" r="9.32" style="fill:none;stroke:#948BA1;stroke-width:16.20"/>
	<circle cx="1951.74" cy="2087.64" r="17.42" style="fill:#948BA1"/>
	<circle cx="1951.74" cy="2087.64" r="9.32" style="fill:none;stroke:#948BA1;stroke-width:16.20"/>
	<circle cx="2067.17" cy="1937.39" r="17.42" style="fill:#948BA1"/>
	<circle cx="2067.17" cy="1937.39" r="9.32" style="fill:none;stroke:#948BA1;stroke-width:16.20"/>
	<circle cx="2182.60" cy="1770.12" r="17.42" style="fill:#948BA1"/>
	<circle cx="2182.60" cy="1770.12" r="9.32" style="fill:none;stroke:#948BA1;stroke-width:16.20"/>
	<circle cx="2298.03" cy="1529.95" r="17.42" style="fill:#948BA1"/>
	<circle cx="2298.03" cy="1529.95" r="9.32" style="fill:none;stroke:#948BA1;stroke-width:16.20"/>
	<circle cx="2413.46" cy="1316.79" r="17.42" style="fill:#948BA1"/>
	<circle cx="2413.46" cy="1316.79" r="9.32" style="fill:none;stroke:#948BA1;stroke-width:16.20"/>
	<path d=" M682.17 2623.18 L797.60 2617.11 L913.03 2615.62 L1028.46 2609.55 L1143.88 2592.94 L1259.31 2583.77 L1374.74 2547.45" stroke-linecap="round" stroke-linejoin="round" style="fill:none;stroke:#7293CB;stroke-width:16.20"/>
	<circle cx="682.17" cy="2623.18" r="17.42" style="fill:#7293CB"/>
	<circle cx="682.17" cy="2623.18" r="9.32" style="fill:none;stroke:#7293CB;stroke-width:16.20"/>
	<circle cx="797.60" cy="2617.11" r="17.42" style="fill:#7293CB"/>
	<circle cx="797.60" cy="2617.11" r="9.32" style="fill:none;stroke:#7293CB;stroke-width:16.20"/>
	<circle cx="913.03" cy="2615.62" r="17.42" style="fill:#7293CB"/>
	<circle cx="913.03" cy="2615.62" r="9.32" style="fill:none;stroke:#7293CB;stroke-width:16.20"/>
	<circle cx="1028.46" cy="2609.55" r="17.42" style="fill:#7293CB"/>
	<circle cx="1028.46" cy="2609.55" r="9.32" style="fill:none;stroke:#7293CB;stroke-width:16.20"/>
	<circle cx="1143.88" cy="2592.94" r="17.42" style="fill:#7293CB"/>
	<circle cx="1143.88" cy="2592.94" r="9.32" style="fill:none;stroke:#7293CB;stroke-width:16.20"/>
	<circle cx="1259.31" cy="2583.77" r="17.42" style="fill:#7293CB"/>
	<circle cx="1259.31" cy="2583.77" r="9.32" style="fill:none;stroke:#7293CB;stroke-width:16.20"/>
	<circle cx="1374.74" cy="2547.45" r="17.42" style="fill:#7293CB"/>
	<circle cx="1374.74" cy="2547.45" r="9.32" style="fill:none;stroke:#7293CB;stroke-width:16.20"/>
	<path d=" M682.17 2624.27 L797.60 2615.09 L913.03 2607.66 L1028.46 2594.97 L1143.88 2584.17 L1259.31 2572.02 L1374.74 2552.44 L1490.03 2543.13 L1605.46 2517.35" stroke-linecap="round" stroke-linejoin="round" style="fill:none;stroke:#E1974C;stroke-width:16.20"/>
	<circle cx="682.17" cy="2624.27" r="17.42" style="fill:#E1974C"/>
	<circle cx="682.17" cy="2624.27" r="9.32" style="fill:none;stroke:#E1974C;stroke-width:16.20"/>
	<circle cx="797.60" cy="2615.09" r="17.42" style="fill:#E1974C"/>
	<circle cx="797.60" cy="2615.09" r="9.32" style="fill:none;stroke:#E1974C;stroke-width:16.20"/>
	<circle cx="913.03" cy="2607.66" r="17.42" style="fill:#E1974C"/>
	<circle cx="913.03" cy="2607.66" r="9.32" style="fill:none;stroke:#E1974C;stroke-width:16.20"/>
	<circle cx="1028.46" cy="2594.97" r="17.42" style="fill:#E1974C"/>
	<circle cx="1028.46" cy="2594.97" r="9.32" style="fill:none;stroke:#E1974C;stroke-width:16.20"/>
	<circle cx="1143.88" cy="2584.17" r="17.42" style="fill:#E1974C"/>
	<circle cx="1143.88" cy="2584.17" r="9.32" style="fill:none;stroke:#E1974C;stroke-width:16.20"/>
	<circle cx="1259.31" cy="2572.02" r="17.42" style="fill:#E1974C"/>
	<circle cx="1259.31" cy="2572.02" r="9.32" style="fill:none;stroke:#E1974C;stroke-width:16.20"/>
	<circle cx="1374.74" cy="2552.44" r="17.42" style="fill:#E1974C"/>
	<circle cx="1374.74" cy="2552.44" r="9.32" style="fill:none;stroke:#E1974C;stroke-width:16.20"/>
	<circle cx="1490.03" cy="2543.13" r="17.42" style="fill:#E1974C"/>
	<circle cx="1490.03" cy="2543.13" r="9.32" style="fill:none;stroke:#E1974C;stroke-width:16.20"/>
	<circle cx="1605.46" cy="2517.35" r="17.42" style="fill:#E1974C"/>
	<circle cx="1605.46" cy="2517.35" r="9.32" style="fill:none;stroke:#E1974C;stroke-width:16.20"/>
	<line x1="545.14" y1="2668.95" x2="545.14" y2="344.25" style="stroke:#000000;stroke-width:7.20"/>
	<line x1="545.14" y1="2647.35" x2="495.19" y2="2647.35" style="stroke:#000000;stroke-width:7.20"/>
	<text x="470.22" y="2691.14" style="font-family:'Helvetica';font-size:125.01px;fill:#000000" text-anchor="end">0</text>
	<line x1="545.14" y1="1886.89" x2="495.19" y2="1886.89" style="stroke:#000000;stroke-width:7.20"/>
	<text x="470.22" y="1930.68" style="font-family:'Helvetica';font-size:125.01px;fill:#000000" text-anchor="end">50</text>
	<line x1="545.14" y1="1126.44" x2="495.19" y2="1126.44" style="stroke:#000000;stroke-width:7.20"/>
	<text x="470.22" y="1170.23" style="font-family:'Helvetica';font-size:125.01px;fill:#000000" text-anchor="end">100</text>
	<line x1="545.14" y1="365.85" x2="495.19" y2="365.85" style="stroke:#000000;stroke-width:7.20"/>
	<text x="470.22" y="409.64" style="font-family:'Helvetica';font-size:125.01px;fill:#000000" text-anchor="end">150</text>
	<text x="238.38" y="1506.60" style="font-family:'Helvetica';font-size:125.01px;fill:#000000" transform="rotate(-90 238.38,1506.60)" text-anchor="middle">Number of deaths, per million inhabitants</text>
	<line x1="545.14" y1="2668.95" x2="3474.04" y2="2668.95" style="stroke:#000000;stroke-width:7.20"/>
	<line x1="566.74" y1="2668.95" x2="566.74" y2="2719.03" style="stroke:#000000;stroke-width:7.20"/>
	<text x="566.74" y="2831.45" style="font-family:'Helvetica';font-size:125.01px;fill:#000000" text-anchor="middle">0</text>
	<line x1="1143.88" y1="2668.95" x2="1143.88" y2="2719.03" style="stroke:#000000;stroke-width:7.20"/>
	<text x="1143.88" y="2831.45" style="font-family:'Helvetica';font-size:125.01px;fill:#000000" text-anchor="middle">5</text>
	<line x1="1721.02" y1="2668.95" x2="1721.02" y2="2719.03" style="stroke:#000000;stroke-width:7.20"/>
	<text x="1721.02" y="2831.45" style="font-family:'Helvetica';font-size:125.01px;fill:#000000" text-anchor="middle">10</text>
	<line x1="2298.16" y1="2668.95" x2="2298.16" y2="2719.03" style="stroke:#000000;stroke-width:7.20"/>
	<text x="2298.16" y="2831.45" style="font-family:'Helvetica';font-size:125.01px;fill:#000000" text-anchor="middle">15</text>
	<line x1="2875.30" y1="2668.95" x2="2875.30" y2="2719.03" style="stroke:#000000;stroke-width:7.20"/>
	<text x="2875.30" y="2831.45" style="font-family:'Helvetica';font-size:125.01px;fill:#000000" text-anchor="middle">20</text>
	<line x1="3452.44" y1="2668.95" x2="3452.44" y2="2719.03" style="stroke:#000000;stroke-width:7.20"/>
	<text x="3452.44" y="2831.45" style="font-family:'Helvetica';font-size:125.01px;fill:#000000" text-anchor="middle">25</text>
	<text x="2009.53" y="2968.88" style="font-family:'Helvetica';font-size:125.01px;fill:#000000" text-anchor="middle">Days since 1st death per million</text>
	<rect x="817.45" y="3074.62" width="2384.29" height="932.99" style="fill:#FFFFFF"/>
	<rect x="821.05" y="3078.22" width="2377.09" height="925.79" style="fill:none;stroke:#000000;stroke-width:7.20"/>
	<line x1="871.45" y1="3191.13" x2="1339.37" y2="3191.13" style="stroke:#396AB1;stroke-width:16.20"/>
	<circle cx="1105.41" cy="3191.13" r="17.42" style="fill:#396AB1"/>
	<circle cx="1105.41" cy="3191.13" r="9.32" style="fill:none;stroke:#396AB1;stroke-width:16.20"/>
	<line x1="2009.53" y1="3191.13" x2="2477.58" y2="3191.13" style="stroke:#DA7C30;stroke-width:16.20"/>
	<circle cx="2243.62" cy="3191.13" r="17.42" style="fill:#DA7C30"/>
	<circle cx="2243.62" cy="3191.13" r="9.32" style="fill:none;stroke:#DA7C30;stroke-width:16.20"/>
	<line x1="871.45" y1="3366.22" x2="1339.37" y2="3366.22" style="stroke:#3E9651;stroke-width:16.20"/>
	<circle cx="1105.41" cy="3366.22" r="17.42" style="fill:#3E9651"/>
	<circle cx="1105.41" cy="3366.22" r="9.32" style="fill:none;stroke:#3E9651;stroke-width:16.20"/>
	<line x1="2009.53" y1="3366.22" x2="2477.58" y2="3366.22" style="stroke:#CC2529;stroke-width:16.20"/>
	<circle cx="2243.62" cy="3366.22" r="17.42" style="fill:#CC2529"/>
	<circle cx="2243.62" cy="3366.22" r="9.32" style="fill:none;stroke:#CC2529;stroke-width:16.20"/>
	<line x1="871.45" y1="3541.18" x2="1339.37" y2="3541.18" style="stroke:#535154;stroke-width:16.20"/>
	<circle cx="1105.41" cy="3541.18" r="17.42" style="fill:#535154"/>
	<circle cx="1105.41" cy="3541.18" r="9.32" style="fill:none;stroke:#535154;stroke-width:16.20"/>
	<line x1="2009.53" y1="3541.18" x2="2477.58" y2="3541.18" style="stroke:#6B4C9A;stroke-width:16.20"/>
	<circle cx="2243.62" cy="3541.18" r="17.42" style="fill:#6B4C9A"/>
	<circle cx="2243.62" cy="3541.18" r="9.32" style="fill:none;stroke:#6B4C9A;stroke-width:16.20"/>
	<line x1="871.45" y1="3716.14" x2="1339.37" y2="3716.14" style="stroke:#920328;stroke-width:16.20"/>
	<circle cx="1105.41" cy="3716.14" r="17.42" style="fill:#920328"/>
	<circle cx="1105.41" cy="3716.14" r="9.32" style="fill:none;stroke:#920328;stroke-width:16.20"/>
	<line x1="2009.53" y1="3716.14" x2="2477.58" y2="3716.14" style="stroke:#948BA1;stroke-width:16.20"/>
	<circle cx="2243.62" cy="3716.14" r="17.42" style="fill:#948BA1"/>
	<circle cx="2243.62" cy="3716.14" r="9.32" style="fill:none;stroke:#948BA1;stroke-width:16.20"/>
	<line x1="871.45" y1="3891.11" x2="1339.37" y2="3891.11" style="stroke:#7293CB;stroke-width:16.20"/>
	<circle cx="1105.41" cy="3891.11" r="17.42" style="fill:#7293CB"/>
	<circle cx="1105.41" cy="3891.11" r="9.32" style="fill:none;stroke:#7293CB;stroke-width:16.20"/>
	<line x1="2009.53" y1="3891.11" x2="2477.58" y2="3891.11" style="stroke:#E1974C;stroke-width:16.20"/>
	<circle cx="2243.62" cy="3891.11" r="17.42" style="fill:#E1974C"/>
	<circle cx="2243.62" cy="3891.11" r="9.32" style="fill:none;stroke:#E1974C;stroke-width:16.20"/>
	<text x="1414.43" y="3226.18" style="font-family:'Helvetica';font-size:100.04px;fill:#000000"> Austria</text>
	<text x="2552.51" y="3226.18" style="font-family:'Helvetica';font-size:100.04px;fill:#000000"> Belgium</text>
	<text x="1414.43" y="3401.27" style="font-family:'Helvetica';font-size:100.04px;fill:#000000"> France</text>
	<text x="2552.51" y="3401.27" style="font-family:'Helvetica';font-size:100.04px;fill:#000000"> Germany</text>
	<text x="1414.43" y="3576.23" style="font-family:'Helvetica';font-size:100.04px;fill:#000000"> Italy</text>
	<text x="2552.51" y="3576.23" style="font-family:'Helvetica';font-size:100.04px;fill:#000000"> Netherlands</text>
	<text x="1414.43" y="3751.19" style="font-family:'Helvetica';font-size:100.04px;fill:#000000"> Portugal</text>
	<text x="2552.51" y="3751.19" style="font-family:'Helvetica';font-size:100.04px;fill:#000000"> Spain</text>
	<text x="1414.43" y="3926.15" style="font-family:'Helvetica';font-size:100.04px;fill:#000000"> Sweden</text>
	<text x="2552.51" y="3926.15" style="font-family:'Helvetica';font-size:100.04px;fill:#000000"> UK</text>
	<text x="566.74" y="4142.37" style="font-family:'Helvetica';font-size:100.04px;fill:#000000">Source: Learning from the curve. Data: ww.ecdc.europa.eu.</text>
	<text x="2009.53" y="270.09" style="font-family:'Helvetica';font-size:174.96px;fill:#000000" text-anchor="middle">Cumulative deaths, per million inhabitants</text>
</svg>
