<?xml version="1.0" encoding="UTF-8" standalone="no"?>
<!-- This is a Stata 15.1 generated SVG file (http://www.stata.com) -->

<svg version="1.1" width="5.50in" height="4.00in" viewBox="0 0 3960 2880" xmlns="http://www.w3.org/2000/svg" xmlns:xlink="http://www.w3.org/1999/xlink">
	<desc>Stata Graph - Graph</desc>
	<rect x="0" y="0" width="3960" height="2880" style="fill:#FFFFFF;stroke:none"/>
	<rect x="0.00" y="0.00" width="3959.88" height="2880.00" style="fill:#FFFFFF"/>
	<rect x="2.88" y="2.88" width="3954.12" height="2874.24" style="fill:none;stroke:#FFFFFF;stroke-width:5.76"/>
	<rect x="407.51" y="100.86" width="3451.51" height="2132.77" style="fill:#FFFFFF"/>
	<rect x="410.39" y="103.74" width="3445.75" height="2127.01" style="fill:none;stroke:#FFFFFF;stroke-width:5.76"/>
	<line x1="407.51" y1="2216.43" x2="3859.02" y2="2216.43" style="stroke:#FFFFFF;stroke-width:8.64"/>
	<line x1="407.51" y1="1796.78" x2="3859.02" y2="1796.78" style="stroke:#FFFFFF;stroke-width:8.64"/>
	<line x1="407.51" y1="1377.13" x2="3859.02" y2="1377.13" style="stroke:#FFFFFF;stroke-width:8.64"/>
	<line x1="407.51" y1="957.36" x2="3859.02" y2="957.36" style="stroke:#FFFFFF;stroke-width:8.64"/>
	<line x1="407.51" y1="537.71" x2="3859.02" y2="537.71" style="stroke:#FFFFFF;stroke-width:8.64"/>
	<line x1="407.51" y1="118.06" x2="3859.02" y2="118.06" style="stroke:#FFFFFF;stroke-width:8.64"/>
	<line x1="1449.86" y1="2206.28" x2="2304.10" y2="2014.84" stroke-linecap="round" style="stroke:#396AB1;stroke-width:12.96"/>
	<line x1="2304.10" y1="2014.84" x2="2731.16" y2="1629.34" stroke-linecap="round" style="stroke:#396AB1;stroke-width:12.96"/>
	<line x1="2731.16" y1="1629.34" x2="3158.35" y2="906.87" stroke-linecap="round" style="stroke:#396AB1;stroke-width:12.96"/>
	<line x1="3158.35" y1="906.87" x2="3585.41" y2="118.18" stroke-linecap="round" style="stroke:#396AB1;stroke-width:12.96"/>
	<line x1="595.61" y1="2197.25" x2="1449.86" y2="2160.12" stroke-linecap="round" style="stroke:#DA7C30;stroke-width:12.96"/>
	<line x1="1449.86" y1="2160.12" x2="2304.10" y2="1963.60" stroke-linecap="round" style="stroke:#DA7C30;stroke-width:12.96"/>
	<line x1="2304.10" y1="1963.60" x2="2731.16" y2="1645.68" stroke-linecap="round" style="stroke:#DA7C30;stroke-width:12.96"/>
	<line x1="2731.16" y1="1645.68" x2="2773.98" y2="1601.25" stroke-linecap="round" style="stroke:#DA7C30;stroke-width:12.96"/>
	<line x1="2773.98" y1="1601.25" x2="2816.67" y2="1554.35" stroke-linecap="round" style="stroke:#DA7C30;stroke-width:12.96"/>
	<line x1="2816.67" y1="1554.35" x2="2859.37" y2="1504.23" stroke-linecap="round" style="stroke:#DA7C30;stroke-width:12.96"/>
	<line x1="2859.37" y1="1504.23" x2="2902.06" y2="1447.55" stroke-linecap="round" style="stroke:#DA7C30;stroke-width:12.96"/>
	<line x1="2902.06" y1="1447.55" x2="2944.76" y2="1390.00" stroke-linecap="round" style="stroke:#DA7C30;stroke-width:12.96"/>
	<line x1="2944.76" y1="1390.00" x2="2987.45" y2="1327.88" stroke-linecap="round" style="stroke:#DA7C30;stroke-width:12.96"/>
	<line x1="2987.45" y1="1327.88" x2="3030.14" y2="1263.16" stroke-linecap="round" style="stroke:#DA7C30;stroke-width:12.96"/>
	<line x1="3030.14" y1="1263.16" x2="3072.96" y2="1192.74" stroke-linecap="round" style="stroke:#DA7C30;stroke-width:12.96"/>
	<line x1="3072.96" y1="1192.74" x2="3115.65" y2="1119.11" stroke-linecap="round" style="stroke:#DA7C30;stroke-width:12.96"/>
	<line x1="3115.65" y1="1119.11" x2="3158.35" y2="298.62" stroke-linecap="round" style="stroke:#DA7C30;stroke-width:12.96"/>
	<line x1="3158.35" y1="298.62" x2="3585.41" y2="118.80" stroke-linecap="round" style="stroke:#DA7C30;stroke-width:12.96"/>
	<line x1="407.51" y1="2233.63" x2="407.51" y2="100.86" style="stroke:#000000;stroke-width:5.76"/>
	<line x1="407.51" y1="2216.43" x2="367.54" y2="2216.43" style="stroke:#000000;stroke-width:5.76"/>
	<text x="347.49" y="2251.46" style="font-family:'Helvetica';font-size:99.99px;fill:#000000" text-anchor="end">0</text>
	<line x1="407.51" y1="1796.78" x2="367.54" y2="1796.78" style="stroke:#000000;stroke-width:5.76"/>
	<text x="347.49" y="1831.81" style="font-family:'Helvetica';font-size:99.99px;fill:#000000" text-anchor="end">.2</text>
	<line x1="407.51" y1="1377.13" x2="367.54" y2="1377.13" style="stroke:#000000;stroke-width:5.76"/>
	<text x="347.49" y="1412.16" style="font-family:'Helvetica';font-size:99.99px;fill:#000000" text-anchor="end">.4</text>
	<line x1="407.51" y1="957.36" x2="367.54" y2="957.36" style="stroke:#000000;stroke-width:5.76"/>
	<text x="347.49" y="992.39" style="font-family:'Helvetica';font-size:99.99px;fill:#000000" text-anchor="end">.6</text>
	<line x1="407.51" y1="537.71" x2="367.54" y2="537.71" style="stroke:#000000;stroke-width:5.76"/>
	<text x="347.49" y="572.74" style="font-family:'Helvetica';font-size:99.99px;fill:#000000" text-anchor="end">.8</text>
	<line x1="407.51" y1="118.06" x2="367.54" y2="118.06" style="stroke:#000000;stroke-width:5.76"/>
	<text x="347.49" y="153.09" style="font-family:'Helvetica';font-size:99.99px;fill:#000000" text-anchor="end">1</text>
	<text x="190.71" y="1167.25" style="font-family:'Helvetica';font-size:99.99px;fill:#000000" transform="rotate(-90 190.71,1167.25)" text-anchor="middle">probability of death</text>
	<line x1="407.51" y1="2233.63" x2="3859.02" y2="2233.63" style="stroke:#000000;stroke-width:5.76"/>
	<line x1="424.83" y1="2233.63" x2="424.83" y2="2273.73" style="stroke:#000000;stroke-width:5.76"/>
	<text x="424.83" y="2363.59" style="font-family:'Helvetica';font-size:99.99px;fill:#000000" text-anchor="middle">20</text>
	<line x1="1279.08" y1="2233.63" x2="1279.08" y2="2273.73" style="stroke:#000000;stroke-width:5.76"/>
	<text x="1279.08" y="2363.59" style="font-family:'Helvetica';font-size:99.99px;fill:#000000" text-anchor="middle">40</text>
	<line x1="2133.33" y1="2233.63" x2="2133.33" y2="2273.73" style="stroke:#000000;stroke-width:5.76"/>
	<text x="2133.33" y="2363.59" style="font-family:'Helvetica';font-size:99.99px;fill:#000000" text-anchor="middle">60</text>
	<line x1="2987.57" y1="2233.63" x2="2987.57" y2="2273.73" style="stroke:#000000;stroke-width:5.76"/>
	<text x="2987.57" y="2363.59" style="font-family:'Helvetica';font-size:99.99px;fill:#000000" text-anchor="middle">80</text>
	<line x1="3841.82" y1="2233.63" x2="3841.82" y2="2273.73" style="stroke:#000000;stroke-width:5.76"/>
	<text x="3841.82" y="2363.59" style="font-family:'Helvetica';font-size:99.99px;fill:#000000" text-anchor="middle">100</text>
	<text x="2133.33" y="2473.60" style="font-family:'Helvetica';font-size:99.99px;fill:#000000" text-anchor="middle">age</text>
	<rect x="526.56" y="2558.24" width="3213.42" height="186.37" style="fill:#FFFFFF"/>
	<rect x="529.44" y="2561.12" width="3207.66" height="180.61" style="fill:none;stroke:#000000;stroke-width:5.76"/>
	<line x1="569.75" y1="2651.43" x2="944.21" y2="2651.43" style="stroke:#396AB1;stroke-width:12.96"/>
	<line x1="2229.60" y1="2651.43" x2="2604.07" y2="2651.43" style="stroke:#DA7C30;stroke-width:12.96"/>
	<text x="1004.23" y="2686.46" style="font-family:'Helvetica';font-size:99.99px;fill:#000000"> Life expectancy (male)</text>
	<text x="2663.97" y="2686.46" style="font-family:'Helvetica';font-size:99.99px;fill:#000000"> COVID deaths (male)</text>
</svg>
