<?xml version="1.0" encoding="UTF-8" standalone="no"?>
<!-- This is a Stata 15.1 generated SVG file (http://www.stata.com) -->

<svg version="1.1" width="5.50in" height="4.00in" viewBox="0 0 3960 2880" xmlns="http://www.w3.org/2000/svg" xmlns:xlink="http://www.w3.org/1999/xlink">
	<desc>Stata Graph - Graph</desc>
	<rect x="0" y="0" width="3960" height="2880" style="fill:#FFFFFF;stroke:none"/>
	<rect x="0.00" y="0.00" width="3959.88" height="2880.00" style="fill:#FFFFFF"/>
	<rect x="2.88" y="2.88" width="3954.12" height="2874.24" style="fill:none;stroke:#FFFFFF;stroke-width:5.76"/>
	<rect x="407.01" y="100.86" width="3452.01" height="2132.77" style="fill:#FFFFFF"/>
	<rect x="409.89" y="103.74" width="3446.25" height="2127.01" style="fill:none;stroke:#FFFFFF;stroke-width:5.76"/>
	<line x1="407.01" y1="2216.43" x2="3859.02" y2="2216.43" style="stroke:#FFFFFF;stroke-width:8.64"/>
	<line x1="407.01" y1="1796.78" x2="3859.02" y2="1796.78" style="stroke:#FFFFFF;stroke-width:8.64"/>
	<line x1="407.01" y1="1377.13" x2="3859.02" y2="1377.13" style="stroke:#FFFFFF;stroke-width:8.64"/>
	<line x1="407.01" y1="957.36" x2="3859.02" y2="957.36" style="stroke:#FFFFFF;stroke-width:8.64"/>
	<line x1="407.01" y1="537.71" x2="3859.02" y2="537.71" style="stroke:#FFFFFF;stroke-width:8.64"/>
	<line x1="407.01" y1="118.06" x2="3859.02" y2="118.06" style="stroke:#FFFFFF;stroke-width:8.64"/>
	<line x1="595.11" y1="2212.97" x2="1449.48" y2="2195.15" stroke-linecap="round" style="stroke:#396AB1;stroke-width:12.96"/>
	<line x1="1449.48" y1="2195.15" x2="2303.85" y2="2092.18" stroke-linecap="round" style="stroke:#396AB1;stroke-width:12.96"/>
	<line x1="2303.85" y1="2092.18" x2="2731.04" y2="1861.38" stroke-linecap="round" style="stroke:#396AB1;stroke-width:12.96"/>
	<line x1="2731.04" y1="1861.38" x2="3158.22" y2="1158.46" stroke-linecap="round" style="stroke:#396AB1;stroke-width:12.96"/>
	<line x1="3158.22" y1="1158.46" x2="3585.41" y2="118.18" stroke-linecap="round" style="stroke:#396AB1;stroke-width:12.96"/>
	<line x1="595.11" y1="2203.81" x2="1449.48" y2="2183.64" stroke-linecap="round" style="stroke:#DA7C30;stroke-width:12.96"/>
	<line x1="1449.48" y1="2183.64" x2="2303.85" y2="2056.91" stroke-linecap="round" style="stroke:#DA7C30;stroke-width:12.96"/>
	<line x1="2303.85" y1="2056.91" x2="2731.04" y2="1859.15" stroke-linecap="round" style="stroke:#DA7C30;stroke-width:12.96"/>
	<line x1="2731.04" y1="1859.15" x2="2773.73" y2="1829.21" stroke-linecap="round" style="stroke:#DA7C30;stroke-width:12.96"/>
	<line x1="2773.73" y1="1829.21" x2="2816.55" y2="1796.78" stroke-linecap="round" style="stroke:#DA7C30;stroke-width:12.96"/>
	<line x1="2816.55" y1="1796.78" x2="2859.24" y2="1762.63" stroke-linecap="round" style="stroke:#DA7C30;stroke-width:12.96"/>
	<line x1="2859.24" y1="1762.63" x2="2901.94" y2="1726.49" stroke-linecap="round" style="stroke:#DA7C30;stroke-width:12.96"/>
	<line x1="2901.94" y1="1726.49" x2="2944.63" y2="1681.57" stroke-linecap="round" style="stroke:#DA7C30;stroke-width:12.96"/>
	<line x1="2944.63" y1="1681.57" x2="2987.32" y2="1634.91" stroke-linecap="round" style="stroke:#DA7C30;stroke-width:12.96"/>
	<line x1="2987.32" y1="1634.91" x2="3030.14" y2="1582.44" stroke-linecap="round" style="stroke:#DA7C30;stroke-width:12.96"/>
	<line x1="3030.14" y1="1582.44" x2="3072.84" y2="1525.89" stroke-linecap="round" style="stroke:#DA7C30;stroke-width:12.96"/>
	<line x1="3072.84" y1="1525.89" x2="3115.53" y2="1466.73" stroke-linecap="round" style="stroke:#DA7C30;stroke-width:12.96"/>
	<line x1="3115.53" y1="1466.73" x2="3158.22" y2="482.39" stroke-linecap="round" style="stroke:#DA7C30;stroke-width:12.96"/>
	<line x1="3158.22" y1="482.39" x2="3585.41" y2="122.15" stroke-linecap="round" style="stroke:#DA7C30;stroke-width:12.96"/>
	<line x1="407.01" y1="2233.63" x2="407.01" y2="100.86" style="stroke:#000000;stroke-width:5.76"/>
	<line x1="407.01" y1="2216.43" x2="367.04" y2="2216.43" style="stroke:#000000;stroke-width:5.76"/>
	<text x="347.00" y="2251.46" style="font-family:'Helvetica';font-size:99.99px;fill:#000000" text-anchor="end">0</text>
	<line x1="407.01" y1="1796.78" x2="367.04" y2="1796.78" style="stroke:#000000;stroke-width:5.76"/>
	<text x="347.00" y="1831.81" style="font-family:'Helvetica';font-size:99.99px;fill:#000000" text-anchor="end">.2</text>
	<line x1="407.01" y1="1377.13" x2="367.04" y2="1377.13" style="stroke:#000000;stroke-width:5.76"/>
	<text x="347.00" y="1412.16" style="font-family:'Helvetica';font-size:99.99px;fill:#000000" text-anchor="end">.4</text>
	<line x1="407.01" y1="957.36" x2="367.04" y2="957.36" style="stroke:#000000;stroke-width:5.76"/>
	<text x="347.00" y="992.39" style="font-family:'Helvetica';font-size:99.99px;fill:#000000" text-anchor="end">.6</text>
	<line x1="407.01" y1="537.71" x2="367.04" y2="537.71" style="stroke:#000000;stroke-width:5.76"/>
	<text x="347.00" y="572.74" style="font-family:'Helvetica';font-size:99.99px;fill:#000000" text-anchor="end">.8</text>
	<line x1="407.01" y1="118.06" x2="367.04" y2="118.06" style="stroke:#000000;stroke-width:5.76"/>
	<text x="347.00" y="153.09" style="font-family:'Helvetica';font-size:99.99px;fill:#000000" text-anchor="end">1</text>
	<text x="190.71" y="1167.25" style="font-family:'Helvetica';font-size:99.99px;fill:#000000" transform="rotate(-90 190.71,1167.25)" text-anchor="middle">probability of death</text>
	<line x1="407.01" y1="2233.63" x2="3859.02" y2="2233.63" style="stroke:#000000;stroke-width:5.76"/>
	<line x1="424.34" y1="2233.63" x2="424.34" y2="2273.73" style="stroke:#000000;stroke-width:5.76"/>
	<text x="424.34" y="2363.59" style="font-family:'Helvetica';font-size:99.99px;fill:#000000" text-anchor="middle">20</text>
	<line x1="1278.71" y1="2233.63" x2="1278.71" y2="2273.73" style="stroke:#000000;stroke-width:5.76"/>
	<text x="1278.71" y="2363.59" style="font-family:'Helvetica';font-size:99.99px;fill:#000000" text-anchor="middle">40</text>
	<line x1="2133.08" y1="2233.63" x2="2133.08" y2="2273.73" style="stroke:#000000;stroke-width:5.76"/>
	<text x="2133.08" y="2363.59" style="font-family:'Helvetica';font-size:99.99px;fill:#000000" text-anchor="middle">60</text>
	<line x1="2987.45" y1="2233.63" x2="2987.45" y2="2273.73" style="stroke:#000000;stroke-width:5.76"/>
	<text x="2987.45" y="2363.59" style="font-family:'Helvetica';font-size:99.99px;fill:#000000" text-anchor="middle">80</text>
	<line x1="3841.82" y1="2233.63" x2="3841.82" y2="2273.73" style="stroke:#000000;stroke-width:5.76"/>
	<text x="3841.82" y="2363.59" style="font-family:'Helvetica';font-size:99.99px;fill:#000000" text-anchor="middle">100</text>
	<text x="2133.08" y="2473.60" style="font-family:'Helvetica';font-size:99.99px;fill:#000000" text-anchor="middle">age</text>
	<rect x="441.54" y="2558.24" width="3382.95" height="186.37" style="fill:#FFFFFF"/>
	<rect x="444.42" y="2561.12" width="3377.19" height="180.61" style="fill:none;stroke:#000000;stroke-width:5.76"/>
	<line x1="484.73" y1="2651.43" x2="858.58" y2="2651.43" style="stroke:#396AB1;stroke-width:12.96"/>
	<line x1="2229.23" y1="2651.43" x2="2602.96" y2="2651.43" style="stroke:#DA7C30;stroke-width:12.96"/>
	<text x="918.47" y="2686.46" style="font-family:'Helvetica';font-size:99.99px;fill:#000000"> Life expectancy (female)</text>
	<text x="2662.85" y="2686.46" style="font-family:'Helvetica';font-size:99.99px;fill:#000000"> COVID deaths (female)</text>
</svg>
