<?xml version="1.0" encoding="UTF-8" standalone="no"?>
<!-- This is a Stata 15.1 generated SVG file (http://www.stata.com) -->

<svg version="1.1" width="5.50in" height="4.00in" viewBox="0 0 3960 2880" xmlns="http://www.w3.org/2000/svg" xmlns:xlink="http://www.w3.org/1999/xlink">
	<desc>Stata Graph - Graph</desc>
	<rect x="0" y="0" width="3960" height="2880" style="fill:#FFFFFF;stroke:none"/>
	<rect x="0.00" y="0.00" width="3959.88" height="2880.00" style="fill:#FFFFFF"/>
	<rect x="2.88" y="2.88" width="3954.12" height="2874.24" style="fill:none;stroke:#FFFFFF;stroke-width:5.76"/>
	<rect x="407.51" y="100.86" width="3451.51" height="1992.81" style="fill:#FFFFFF"/>
	<rect x="410.39" y="103.74" width="3445.75" height="1987.05" style="fill:none;stroke:#FFFFFF;stroke-width:5.76"/>
	<line x1="407.51" y1="2076.47" x2="3859.02" y2="2076.47" style="stroke:#FFFFFF;stroke-width:8.64"/>
	<line x1="407.51" y1="1684.79" x2="3859.02" y2="1684.79" style="stroke:#FFFFFF;stroke-width:8.64"/>
	<line x1="407.51" y1="1293.10" x2="3859.02" y2="1293.10" style="stroke:#FFFFFF;stroke-width:8.64"/>
	<line x1="407.51" y1="901.42" x2="3859.02" y2="901.42" style="stroke:#FFFFFF;stroke-width:8.64"/>
	<line x1="407.51" y1="509.74" x2="3859.02" y2="509.74" style="stroke:#FFFFFF;stroke-width:8.64"/>
	<line x1="407.51" y1="118.06" x2="3859.02" y2="118.06" style="stroke:#FFFFFF;stroke-width:8.64"/>
	<line x1="424.71" y1="2076.47" x2="457.26" y2="2068.42" stroke-linecap="round" style="stroke:#396AB1;stroke-width:12.96"/>
	<line x1="457.26" y1="2068.42" x2="489.80" y2="2067.93" stroke-linecap="round" style="stroke:#396AB1;stroke-width:12.96"/>
	<line x1="489.80" y1="2067.93" x2="522.35" y2="2067.43" stroke-linecap="round" style="stroke:#396AB1;stroke-width:12.96"/>
	<line x1="522.35" y1="2067.43" x2="554.89" y2="2067.18" stroke-linecap="round" style="stroke:#396AB1;stroke-width:12.96"/>
	<line x1="554.89" y1="2067.18" x2="587.44" y2="2067.06" stroke-linecap="round" style="stroke:#396AB1;stroke-width:12.96"/>
	<line x1="587.44" y1="2067.06" x2="619.99" y2="2067.06" stroke-linecap="round" style="stroke:#396AB1;stroke-width:12.96"/>
	<line x1="619.99" y1="2067.06" x2="652.53" y2="2066.69" stroke-linecap="round" style="stroke:#396AB1;stroke-width:12.96"/>
	<line x1="652.53" y1="2066.69" x2="685.08" y2="2066.44" stroke-linecap="round" style="stroke:#396AB1;stroke-width:12.96"/>
	<line x1="685.08" y1="2066.44" x2="717.63" y2="2066.32" stroke-linecap="round" style="stroke:#396AB1;stroke-width:12.96"/>
	<line x1="717.63" y1="2066.32" x2="750.17" y2="2066.19" stroke-linecap="round" style="stroke:#396AB1;stroke-width:12.96"/>
	<line x1="750.17" y1="2066.19" x2="782.72" y2="2065.95" stroke-linecap="round" style="stroke:#396AB1;stroke-width:12.96"/>
	<line x1="782.72" y1="2065.95" x2="815.26" y2="2065.70" stroke-linecap="round" style="stroke:#396AB1;stroke-width:12.96"/>
	<line x1="815.26" y1="2065.70" x2="847.81" y2="2065.58" stroke-linecap="round" style="stroke:#396AB1;stroke-width:12.96"/>
	<line x1="847.81" y1="2065.58" x2="880.36" y2="2065.45" stroke-linecap="round" style="stroke:#396AB1;stroke-width:12.96"/>
	<line x1="880.36" y1="2065.45" x2="912.90" y2="2065.20" stroke-linecap="round" style="stroke:#396AB1;stroke-width:12.96"/>
	<line x1="912.90" y1="2065.20" x2="945.45" y2="2064.83" stroke-linecap="round" style="stroke:#396AB1;stroke-width:12.96"/>
	<line x1="945.45" y1="2064.83" x2="978.00" y2="2064.46" stroke-linecap="round" style="stroke:#396AB1;stroke-width:12.96"/>
	<line x1="978.00" y1="2064.46" x2="1010.54" y2="2064.09" stroke-linecap="round" style="stroke:#396AB1;stroke-width:12.96"/>
	<line x1="1010.54" y1="2064.09" x2="1043.09" y2="2063.72" stroke-linecap="round" style="stroke:#396AB1;stroke-width:12.96"/>
	<line x1="1043.09" y1="2063.72" x2="1075.63" y2="2062.61" stroke-linecap="round" style="stroke:#396AB1;stroke-width:12.96"/>
	<line x1="1075.63" y1="2062.61" x2="1108.18" y2="2061.37" stroke-linecap="round" style="stroke:#396AB1;stroke-width:12.96"/>
	<line x1="1108.18" y1="2061.37" x2="1140.73" y2="2060.63" stroke-linecap="round" style="stroke:#396AB1;stroke-width:12.96"/>
	<line x1="1140.73" y1="2060.63" x2="1173.27" y2="2059.51" stroke-linecap="round" style="stroke:#396AB1;stroke-width:12.96"/>
	<line x1="1173.27" y1="2059.51" x2="1205.82" y2="2058.52" stroke-linecap="round" style="stroke:#396AB1;stroke-width:12.96"/>
	<line x1="1205.82" y1="2058.52" x2="1238.37" y2="2057.28" stroke-linecap="round" style="stroke:#396AB1;stroke-width:12.96"/>
	<line x1="1238.37" y1="2057.28" x2="1270.91" y2="2056.29" stroke-linecap="round" style="stroke:#396AB1;stroke-width:12.96"/>
	<line x1="1270.91" y1="2056.29" x2="1303.34" y2="2055.06" stroke-linecap="round" style="stroke:#396AB1;stroke-width:12.96"/>
	<line x1="1303.34" y1="2055.06" x2="1335.88" y2="2053.94" stroke-linecap="round" style="stroke:#396AB1;stroke-width:12.96"/>
	<line x1="1335.88" y1="2053.94" x2="1368.43" y2="2052.83" stroke-linecap="round" style="stroke:#396AB1;stroke-width:12.96"/>
	<line x1="1368.43" y1="2052.83" x2="1400.97" y2="2051.84" stroke-linecap="round" style="stroke:#396AB1;stroke-width:12.96"/>
	<line x1="1400.97" y1="2051.84" x2="1433.52" y2="2050.23" stroke-linecap="round" style="stroke:#396AB1;stroke-width:12.96"/>
	<line x1="1433.52" y1="2050.23" x2="1466.07" y2="2048.62" stroke-linecap="round" style="stroke:#396AB1;stroke-width:12.96"/>
	<line x1="1466.07" y1="2048.62" x2="1498.61" y2="2047.14" stroke-linecap="round" style="stroke:#396AB1;stroke-width:12.96"/>
	<line x1="1498.61" y1="2047.14" x2="1531.16" y2="2045.90" stroke-linecap="round" style="stroke:#396AB1;stroke-width:12.96"/>
	<line x1="1531.16" y1="2045.90" x2="1563.70" y2="2044.54" stroke-linecap="round" style="stroke:#396AB1;stroke-width:12.96"/>
	<line x1="1563.70" y1="2044.54" x2="1596.25" y2="2042.93" stroke-linecap="round" style="stroke:#396AB1;stroke-width:12.96"/>
	<line x1="1596.25" y1="2042.93" x2="1628.80" y2="2040.83" stroke-linecap="round" style="stroke:#396AB1;stroke-width:12.96"/>
	<line x1="1628.80" y1="2040.83" x2="1661.34" y2="2038.97" stroke-linecap="round" style="stroke:#396AB1;stroke-width:12.96"/>
	<line x1="1661.34" y1="2038.97" x2="1693.89" y2="2036.74" stroke-linecap="round" style="stroke:#396AB1;stroke-width:12.96"/>
	<line x1="1693.89" y1="2036.74" x2="1726.44" y2="2034.27" stroke-linecap="round" style="stroke:#396AB1;stroke-width:12.96"/>
	<line x1="1726.44" y1="2034.27" x2="1758.98" y2="2032.04" stroke-linecap="round" style="stroke:#396AB1;stroke-width:12.96"/>
	<line x1="1758.98" y1="2032.04" x2="1791.53" y2="2029.81" stroke-linecap="round" style="stroke:#396AB1;stroke-width:12.96"/>
	<line x1="1791.53" y1="2029.81" x2="1824.08" y2="2026.72" stroke-linecap="round" style="stroke:#396AB1;stroke-width:12.96"/>
	<line x1="1824.08" y1="2026.72" x2="1856.62" y2="2023.87" stroke-linecap="round" style="stroke:#396AB1;stroke-width:12.96"/>
	<line x1="1856.62" y1="2023.87" x2="1889.17" y2="2020.65" stroke-linecap="round" style="stroke:#396AB1;stroke-width:12.96"/>
	<line x1="1889.17" y1="2020.65" x2="1921.71" y2="2017.31" stroke-linecap="round" style="stroke:#396AB1;stroke-width:12.96"/>
	<line x1="1921.71" y1="2017.31" x2="1954.26" y2="2013.48" stroke-linecap="round" style="stroke:#396AB1;stroke-width:12.96"/>
	<line x1="1954.26" y1="2013.48" x2="1986.81" y2="2009.02" stroke-linecap="round" style="stroke:#396AB1;stroke-width:12.96"/>
	<line x1="1986.81" y1="2009.02" x2="2019.35" y2="2003.95" stroke-linecap="round" style="stroke:#396AB1;stroke-width:12.96"/>
	<line x1="2019.35" y1="2003.95" x2="2051.90" y2="1998.50" stroke-linecap="round" style="stroke:#396AB1;stroke-width:12.96"/>
	<line x1="2051.90" y1="1998.50" x2="2084.45" y2="1993.30" stroke-linecap="round" style="stroke:#396AB1;stroke-width:12.96"/>
	<line x1="2084.45" y1="1993.30" x2="2116.99" y2="1986.87" stroke-linecap="round" style="stroke:#396AB1;stroke-width:12.96"/>
	<line x1="2116.99" y1="1986.87" x2="2149.54" y2="1980.43" stroke-linecap="round" style="stroke:#396AB1;stroke-width:12.96"/>
	<line x1="2149.54" y1="1980.43" x2="2182.08" y2="1973.38" stroke-linecap="round" style="stroke:#396AB1;stroke-width:12.96"/>
	<line x1="2182.08" y1="1973.38" x2="2214.63" y2="1964.72" stroke-linecap="round" style="stroke:#396AB1;stroke-width:12.96"/>
	<line x1="2214.63" y1="1964.72" x2="2247.18" y2="1955.43" stroke-linecap="round" style="stroke:#396AB1;stroke-width:12.96"/>
	<line x1="2247.18" y1="1955.43" x2="2279.72" y2="1945.29" stroke-linecap="round" style="stroke:#396AB1;stroke-width:12.96"/>
	<line x1="2279.72" y1="1945.29" x2="2312.27" y2="1933.90" stroke-linecap="round" style="stroke:#396AB1;stroke-width:12.96"/>
	<line x1="2312.27" y1="1933.90" x2="2344.82" y2="1921.65" stroke-linecap="round" style="stroke:#396AB1;stroke-width:12.96"/>
	<line x1="2344.82" y1="1921.65" x2="2377.36" y2="1908.66" stroke-linecap="round" style="stroke:#396AB1;stroke-width:12.96"/>
	<line x1="2377.36" y1="1908.66" x2="2409.91" y2="1893.81" stroke-linecap="round" style="stroke:#396AB1;stroke-width:12.96"/>
	<line x1="2409.91" y1="1893.81" x2="2442.45" y2="1877.72" stroke-linecap="round" style="stroke:#396AB1;stroke-width:12.96"/>
	<line x1="2442.45" y1="1877.72" x2="2474.88" y2="1859.40" stroke-linecap="round" style="stroke:#396AB1;stroke-width:12.96"/>
	<line x1="2474.88" y1="1859.40" x2="2507.42" y2="1840.47" stroke-linecap="round" style="stroke:#396AB1;stroke-width:12.96"/>
	<line x1="2507.42" y1="1840.47" x2="2539.97" y2="1818.44" stroke-linecap="round" style="stroke:#396AB1;stroke-width:12.96"/>
	<line x1="2539.97" y1="1818.44" x2="2572.51" y2="1795.05" stroke-linecap="round" style="stroke:#396AB1;stroke-width:12.96"/>
	<line x1="2572.51" y1="1795.05" x2="2605.06" y2="1771.29" stroke-linecap="round" style="stroke:#396AB1;stroke-width:12.96"/>
	<line x1="2605.06" y1="1771.29" x2="2637.61" y2="1744.31" stroke-linecap="round" style="stroke:#396AB1;stroke-width:12.96"/>
	<line x1="2637.61" y1="1744.31" x2="2670.15" y2="1715.23" stroke-linecap="round" style="stroke:#396AB1;stroke-width:12.96"/>
	<line x1="2670.15" y1="1715.23" x2="2702.70" y2="1685.90" stroke-linecap="round" style="stroke:#396AB1;stroke-width:12.96"/>
	<line x1="2702.70" y1="1685.90" x2="2735.25" y2="1653.10" stroke-linecap="round" style="stroke:#396AB1;stroke-width:12.96"/>
	<line x1="2735.25" y1="1653.10" x2="2767.79" y2="1618.70" stroke-linecap="round" style="stroke:#396AB1;stroke-width:12.96"/>
	<line x1="2767.79" y1="1618.70" x2="2800.34" y2="1582.94" stroke-linecap="round" style="stroke:#396AB1;stroke-width:12.96"/>
	<line x1="2800.34" y1="1582.94" x2="2832.89" y2="1543.71" stroke-linecap="round" style="stroke:#396AB1;stroke-width:12.96"/>
	<line x1="2832.89" y1="1543.71" x2="2865.43" y2="1502.25" stroke-linecap="round" style="stroke:#396AB1;stroke-width:12.96"/>
	<line x1="2865.43" y1="1502.25" x2="2897.98" y2="1458.56" stroke-linecap="round" style="stroke:#396AB1;stroke-width:12.96"/>
	<line x1="2897.98" y1="1458.56" x2="2930.52" y2="1411.78" stroke-linecap="round" style="stroke:#396AB1;stroke-width:12.96"/>
	<line x1="2930.52" y1="1411.78" x2="2963.07" y2="1358.82" stroke-linecap="round" style="stroke:#396AB1;stroke-width:12.96"/>
	<line x1="2963.07" y1="1358.82" x2="2995.62" y2="1305.11" stroke-linecap="round" style="stroke:#396AB1;stroke-width:12.96"/>
	<line x1="2995.62" y1="1305.11" x2="3028.16" y2="1247.19" stroke-linecap="round" style="stroke:#396AB1;stroke-width:12.96"/>
	<line x1="3028.16" y1="1247.19" x2="3060.71" y2="1186.80" stroke-linecap="round" style="stroke:#396AB1;stroke-width:12.96"/>
	<line x1="3060.71" y1="1186.80" x2="3093.26" y2="1121.09" stroke-linecap="round" style="stroke:#396AB1;stroke-width:12.96"/>
	<line x1="3093.26" y1="1121.09" x2="3125.80" y2="1052.28" stroke-linecap="round" style="stroke:#396AB1;stroke-width:12.96"/>
	<line x1="3125.80" y1="1052.28" x2="3158.35" y2="982.61" stroke-linecap="round" style="stroke:#396AB1;stroke-width:12.96"/>
	<line x1="3158.35" y1="982.61" x2="3190.89" y2="907.49" stroke-linecap="round" style="stroke:#396AB1;stroke-width:12.96"/>
	<line x1="3190.89" y1="907.49" x2="3223.44" y2="831.38" stroke-linecap="round" style="stroke:#396AB1;stroke-width:12.96"/>
	<line x1="3223.44" y1="831.38" x2="3255.99" y2="753.78" stroke-linecap="round" style="stroke:#396AB1;stroke-width:12.96"/>
	<line x1="3255.99" y1="753.78" x2="3288.53" y2="675.08" stroke-linecap="round" style="stroke:#396AB1;stroke-width:12.96"/>
	<line x1="3288.53" y1="675.08" x2="3321.08" y2="596.62" stroke-linecap="round" style="stroke:#396AB1;stroke-width:12.96"/>
	<line x1="3321.08" y1="596.62" x2="3353.62" y2="523.23" stroke-linecap="round" style="stroke:#396AB1;stroke-width:12.96"/>
	<line x1="3353.62" y1="523.23" x2="3386.17" y2="455.91" stroke-linecap="round" style="stroke:#396AB1;stroke-width:12.96"/>
	<line x1="3386.17" y1="455.91" x2="3418.72" y2="392.92" stroke-linecap="round" style="stroke:#396AB1;stroke-width:12.96"/>
	<line x1="3418.72" y1="392.92" x2="3451.26" y2="334.88" stroke-linecap="round" style="stroke:#396AB1;stroke-width:12.96"/>
	<line x1="3451.26" y1="334.88" x2="3483.81" y2="286.61" stroke-linecap="round" style="stroke:#396AB1;stroke-width:12.96"/>
	<line x1="3483.81" y1="286.61" x2="3516.36" y2="245.28" stroke-linecap="round" style="stroke:#396AB1;stroke-width:12.96"/>
	<line x1="3516.36" y1="245.28" x2="3548.90" y2="205.80" stroke-linecap="round" style="stroke:#396AB1;stroke-width:12.96"/>
	<line x1="3548.90" y1="205.80" x2="3581.45" y2="179.20" stroke-linecap="round" style="stroke:#396AB1;stroke-width:12.96"/>
	<line x1="3581.45" y1="179.20" x2="3613.99" y2="159.52" stroke-linecap="round" style="stroke:#396AB1;stroke-width:12.96"/>
	<line x1="3613.99" y1="159.52" x2="3646.54" y2="145.41" stroke-linecap="round" style="stroke:#396AB1;stroke-width:12.96"/>
	<line x1="3646.54" y1="145.41" x2="3678.96" y2="134.40" stroke-linecap="round" style="stroke:#396AB1;stroke-width:12.96"/>
	<line x1="3678.96" y1="134.40" x2="3711.51" y2="126.60" stroke-linecap="round" style="stroke:#396AB1;stroke-width:12.96"/>
	<line x1="3711.51" y1="126.60" x2="3744.06" y2="122.76" stroke-linecap="round" style="stroke:#396AB1;stroke-width:12.96"/>
	<line x1="3744.06" y1="122.76" x2="3776.60" y2="120.66" stroke-linecap="round" style="stroke:#396AB1;stroke-width:12.96"/>
	<line x1="3776.60" y1="120.66" x2="3809.15" y2="119.42" stroke-linecap="round" style="stroke:#396AB1;stroke-width:12.96"/>
	<line x1="3809.15" y1="119.42" x2="3841.70" y2="118.68" stroke-linecap="round" style="stroke:#396AB1;stroke-width:12.96"/>
	<line x1="424.71" y1="2076.47" x2="457.26" y2="2069.91" stroke-linecap="round" style="stroke:#DA7C30;stroke-width:12.96"/>
	<line x1="457.26" y1="2069.91" x2="489.80" y2="2069.54" stroke-linecap="round" style="stroke:#DA7C30;stroke-width:12.96"/>
	<line x1="489.80" y1="2069.54" x2="522.35" y2="2069.29" stroke-linecap="round" style="stroke:#DA7C30;stroke-width:12.96"/>
	<line x1="522.35" y1="2069.29" x2="554.89" y2="2069.04" stroke-linecap="round" style="stroke:#DA7C30;stroke-width:12.96"/>
	<line x1="554.89" y1="2069.04" x2="587.44" y2="2068.79" stroke-linecap="round" style="stroke:#DA7C30;stroke-width:12.96"/>
	<line x1="587.44" y1="2068.79" x2="619.99" y2="2068.67" stroke-linecap="round" style="stroke:#DA7C30;stroke-width:12.96"/>
	<line x1="619.99" y1="2068.67" x2="652.53" y2="2068.42" stroke-linecap="round" style="stroke:#DA7C30;stroke-width:12.96"/>
	<line x1="652.53" y1="2068.42" x2="685.08" y2="2068.42" stroke-linecap="round" style="stroke:#DA7C30;stroke-width:12.96"/>
	<line x1="685.08" y1="2068.42" x2="717.63" y2="2068.17" stroke-linecap="round" style="stroke:#DA7C30;stroke-width:12.96"/>
	<line x1="717.63" y1="2068.17" x2="750.17" y2="2068.05" stroke-linecap="round" style="stroke:#DA7C30;stroke-width:12.96"/>
	<line x1="750.17" y1="2068.05" x2="782.72" y2="2068.05" stroke-linecap="round" style="stroke:#DA7C30;stroke-width:12.96"/>
	<line x1="782.72" y1="2068.05" x2="815.26" y2="2067.93" stroke-linecap="round" style="stroke:#DA7C30;stroke-width:12.96"/>
	<line x1="815.26" y1="2067.93" x2="847.81" y2="2067.93" stroke-linecap="round" style="stroke:#DA7C30;stroke-width:12.96"/>
	<line x1="847.81" y1="2067.93" x2="880.36" y2="2067.56" stroke-linecap="round" style="stroke:#DA7C30;stroke-width:12.96"/>
	<line x1="880.36" y1="2067.56" x2="912.90" y2="2067.43" stroke-linecap="round" style="stroke:#DA7C30;stroke-width:12.96"/>
	<line x1="912.90" y1="2067.43" x2="945.45" y2="2067.31" stroke-linecap="round" style="stroke:#DA7C30;stroke-width:12.96"/>
	<line x1="945.45" y1="2067.31" x2="978.00" y2="2067.06" stroke-linecap="round" style="stroke:#DA7C30;stroke-width:12.96"/>
	<line x1="978.00" y1="2067.06" x2="1010.54" y2="2066.81" stroke-linecap="round" style="stroke:#DA7C30;stroke-width:12.96"/>
	<line x1="1010.54" y1="2066.81" x2="1043.09" y2="2066.44" stroke-linecap="round" style="stroke:#DA7C30;stroke-width:12.96"/>
	<line x1="1043.09" y1="2066.44" x2="1075.63" y2="2066.07" stroke-linecap="round" style="stroke:#DA7C30;stroke-width:12.96"/>
	<line x1="1075.63" y1="2066.07" x2="1108.18" y2="2065.82" stroke-linecap="round" style="stroke:#DA7C30;stroke-width:12.96"/>
	<line x1="1108.18" y1="2065.82" x2="1140.73" y2="2065.45" stroke-linecap="round" style="stroke:#DA7C30;stroke-width:12.96"/>
	<line x1="1140.73" y1="2065.45" x2="1173.27" y2="2064.96" stroke-linecap="round" style="stroke:#DA7C30;stroke-width:12.96"/>
	<line x1="1173.27" y1="2064.96" x2="1205.82" y2="2064.59" stroke-linecap="round" style="stroke:#DA7C30;stroke-width:12.96"/>
	<line x1="1205.82" y1="2064.59" x2="1238.37" y2="2064.09" stroke-linecap="round" style="stroke:#DA7C30;stroke-width:12.96"/>
	<line x1="1238.37" y1="2064.09" x2="1270.91" y2="2063.60" stroke-linecap="round" style="stroke:#DA7C30;stroke-width:12.96"/>
	<line x1="1270.91" y1="2063.60" x2="1303.34" y2="2063.22" stroke-linecap="round" style="stroke:#DA7C30;stroke-width:12.96"/>
	<line x1="1303.34" y1="2063.22" x2="1335.88" y2="2062.73" stroke-linecap="round" style="stroke:#DA7C30;stroke-width:12.96"/>
	<line x1="1335.88" y1="2062.73" x2="1368.43" y2="2062.23" stroke-linecap="round" style="stroke:#DA7C30;stroke-width:12.96"/>
	<line x1="1368.43" y1="2062.23" x2="1400.97" y2="2061.74" stroke-linecap="round" style="stroke:#DA7C30;stroke-width:12.96"/>
	<line x1="1400.97" y1="2061.74" x2="1433.52" y2="2061.37" stroke-linecap="round" style="stroke:#DA7C30;stroke-width:12.96"/>
	<line x1="1433.52" y1="2061.37" x2="1466.07" y2="2060.75" stroke-linecap="round" style="stroke:#DA7C30;stroke-width:12.96"/>
	<line x1="1466.07" y1="2060.75" x2="1498.61" y2="2060.01" stroke-linecap="round" style="stroke:#DA7C30;stroke-width:12.96"/>
	<line x1="1498.61" y1="2060.01" x2="1531.16" y2="2058.89" stroke-linecap="round" style="stroke:#DA7C30;stroke-width:12.96"/>
	<line x1="1531.16" y1="2058.89" x2="1563.70" y2="2058.03" stroke-linecap="round" style="stroke:#DA7C30;stroke-width:12.96"/>
	<line x1="1563.70" y1="2058.03" x2="1596.25" y2="2057.16" stroke-linecap="round" style="stroke:#DA7C30;stroke-width:12.96"/>
	<line x1="1596.25" y1="2057.16" x2="1628.80" y2="2055.92" stroke-linecap="round" style="stroke:#DA7C30;stroke-width:12.96"/>
	<line x1="1628.80" y1="2055.92" x2="1661.34" y2="2054.93" stroke-linecap="round" style="stroke:#DA7C30;stroke-width:12.96"/>
	<line x1="1661.34" y1="2054.93" x2="1693.89" y2="2053.94" stroke-linecap="round" style="stroke:#DA7C30;stroke-width:12.96"/>
	<line x1="1693.89" y1="2053.94" x2="1726.44" y2="2052.46" stroke-linecap="round" style="stroke:#DA7C30;stroke-width:12.96"/>
	<line x1="1726.44" y1="2052.46" x2="1758.98" y2="2051.10" stroke-linecap="round" style="stroke:#DA7C30;stroke-width:12.96"/>
	<line x1="1758.98" y1="2051.10" x2="1791.53" y2="2049.36" stroke-linecap="round" style="stroke:#DA7C30;stroke-width:12.96"/>
	<line x1="1791.53" y1="2049.36" x2="1824.08" y2="2047.51" stroke-linecap="round" style="stroke:#DA7C30;stroke-width:12.96"/>
	<line x1="1824.08" y1="2047.51" x2="1856.62" y2="2045.90" stroke-linecap="round" style="stroke:#DA7C30;stroke-width:12.96"/>
	<line x1="1856.62" y1="2045.90" x2="1889.17" y2="2043.30" stroke-linecap="round" style="stroke:#DA7C30;stroke-width:12.96"/>
	<line x1="1889.17" y1="2043.30" x2="1921.71" y2="2040.70" stroke-linecap="round" style="stroke:#DA7C30;stroke-width:12.96"/>
	<line x1="1921.71" y1="2040.70" x2="1954.26" y2="2037.73" stroke-linecap="round" style="stroke:#DA7C30;stroke-width:12.96"/>
	<line x1="1954.26" y1="2037.73" x2="1986.81" y2="2035.13" stroke-linecap="round" style="stroke:#DA7C30;stroke-width:12.96"/>
	<line x1="1986.81" y1="2035.13" x2="2019.35" y2="2032.16" stroke-linecap="round" style="stroke:#DA7C30;stroke-width:12.96"/>
	<line x1="2019.35" y1="2032.16" x2="2051.90" y2="2028.94" stroke-linecap="round" style="stroke:#DA7C30;stroke-width:12.96"/>
	<line x1="2051.90" y1="2028.94" x2="2084.45" y2="2024.86" stroke-linecap="round" style="stroke:#DA7C30;stroke-width:12.96"/>
	<line x1="2084.45" y1="2024.86" x2="2116.99" y2="2020.90" stroke-linecap="round" style="stroke:#DA7C30;stroke-width:12.96"/>
	<line x1="2116.99" y1="2020.90" x2="2149.54" y2="2016.94" stroke-linecap="round" style="stroke:#DA7C30;stroke-width:12.96"/>
	<line x1="2149.54" y1="2016.94" x2="2182.08" y2="2011.74" stroke-linecap="round" style="stroke:#DA7C30;stroke-width:12.96"/>
	<line x1="2182.08" y1="2011.74" x2="2214.63" y2="2006.67" stroke-linecap="round" style="stroke:#DA7C30;stroke-width:12.96"/>
	<line x1="2214.63" y1="2006.67" x2="2247.18" y2="2001.35" stroke-linecap="round" style="stroke:#DA7C30;stroke-width:12.96"/>
	<line x1="2247.18" y1="2001.35" x2="2279.72" y2="1995.16" stroke-linecap="round" style="stroke:#DA7C30;stroke-width:12.96"/>
	<line x1="2279.72" y1="1995.16" x2="2312.27" y2="1987.73" stroke-linecap="round" style="stroke:#DA7C30;stroke-width:12.96"/>
	<line x1="2312.27" y1="1987.73" x2="2344.82" y2="1980.43" stroke-linecap="round" style="stroke:#DA7C30;stroke-width:12.96"/>
	<line x1="2344.82" y1="1980.43" x2="2377.36" y2="1971.52" stroke-linecap="round" style="stroke:#DA7C30;stroke-width:12.96"/>
	<line x1="2377.36" y1="1971.52" x2="2409.91" y2="1962.37" stroke-linecap="round" style="stroke:#DA7C30;stroke-width:12.96"/>
	<line x1="2409.91" y1="1962.37" x2="2442.45" y2="1951.97" stroke-linecap="round" style="stroke:#DA7C30;stroke-width:12.96"/>
	<line x1="2442.45" y1="1951.97" x2="2474.88" y2="1940.21" stroke-linecap="round" style="stroke:#DA7C30;stroke-width:12.96"/>
	<line x1="2474.88" y1="1940.21" x2="2507.42" y2="1927.47" stroke-linecap="round" style="stroke:#DA7C30;stroke-width:12.96"/>
	<line x1="2507.42" y1="1927.47" x2="2539.97" y2="1913.48" stroke-linecap="round" style="stroke:#DA7C30;stroke-width:12.96"/>
	<line x1="2539.97" y1="1913.48" x2="2572.51" y2="1899.37" stroke-linecap="round" style="stroke:#DA7C30;stroke-width:12.96"/>
	<line x1="2572.51" y1="1899.37" x2="2605.06" y2="1883.91" stroke-linecap="round" style="stroke:#DA7C30;stroke-width:12.96"/>
	<line x1="2605.06" y1="1883.91" x2="2637.61" y2="1867.32" stroke-linecap="round" style="stroke:#DA7C30;stroke-width:12.96"/>
	<line x1="2637.61" y1="1867.32" x2="2670.15" y2="1851.36" stroke-linecap="round" style="stroke:#DA7C30;stroke-width:12.96"/>
	<line x1="2670.15" y1="1851.36" x2="2702.70" y2="1833.17" stroke-linecap="round" style="stroke:#DA7C30;stroke-width:12.96"/>
	<line x1="2702.70" y1="1833.17" x2="2735.25" y2="1813.24" stroke-linecap="round" style="stroke:#DA7C30;stroke-width:12.96"/>
	<line x1="2735.25" y1="1813.24" x2="2767.79" y2="1793.56" stroke-linecap="round" style="stroke:#DA7C30;stroke-width:12.96"/>
	<line x1="2767.79" y1="1793.56" x2="2800.34" y2="1770.79" stroke-linecap="round" style="stroke:#DA7C30;stroke-width:12.96"/>
	<line x1="2800.34" y1="1770.79" x2="2832.89" y2="1742.95" stroke-linecap="round" style="stroke:#DA7C30;stroke-width:12.96"/>
	<line x1="2832.89" y1="1742.95" x2="2865.43" y2="1714.98" stroke-linecap="round" style="stroke:#DA7C30;stroke-width:12.96"/>
	<line x1="2865.43" y1="1714.98" x2="2897.98" y2="1684.79" stroke-linecap="round" style="stroke:#DA7C30;stroke-width:12.96"/>
	<line x1="2897.98" y1="1684.79" x2="2930.52" y2="1652.98" stroke-linecap="round" style="stroke:#DA7C30;stroke-width:12.96"/>
	<line x1="2930.52" y1="1652.98" x2="2963.07" y2="1619.20" stroke-linecap="round" style="stroke:#DA7C30;stroke-width:12.96"/>
	<line x1="2963.07" y1="1619.20" x2="2995.62" y2="1577.24" stroke-linecap="round" style="stroke:#DA7C30;stroke-width:12.96"/>
	<line x1="2995.62" y1="1577.24" x2="3028.16" y2="1533.81" stroke-linecap="round" style="stroke:#DA7C30;stroke-width:12.96"/>
	<line x1="3028.16" y1="1533.81" x2="3060.71" y2="1484.80" stroke-linecap="round" style="stroke:#DA7C30;stroke-width:12.96"/>
	<line x1="3060.71" y1="1484.80" x2="3093.26" y2="1431.96" stroke-linecap="round" style="stroke:#DA7C30;stroke-width:12.96"/>
	<line x1="3093.26" y1="1431.96" x2="3125.80" y2="1376.76" stroke-linecap="round" style="stroke:#DA7C30;stroke-width:12.96"/>
	<line x1="3125.80" y1="1376.76" x2="3158.35" y2="1311.17" stroke-linecap="round" style="stroke:#DA7C30;stroke-width:12.96"/>
	<line x1="3158.35" y1="1311.17" x2="3190.89" y2="1240.01" stroke-linecap="round" style="stroke:#DA7C30;stroke-width:12.96"/>
	<line x1="3190.89" y1="1240.01" x2="3223.44" y2="1166.50" stroke-linecap="round" style="stroke:#DA7C30;stroke-width:12.96"/>
	<line x1="3223.44" y1="1166.50" x2="3255.99" y2="1081.61" stroke-linecap="round" style="stroke:#DA7C30;stroke-width:12.96"/>
	<line x1="3255.99" y1="1081.61" x2="3288.53" y2="996.96" stroke-linecap="round" style="stroke:#DA7C30;stroke-width:12.96"/>
	<line x1="3288.53" y1="996.96" x2="3321.08" y2="908.60" stroke-linecap="round" style="stroke:#DA7C30;stroke-width:12.96"/>
	<line x1="3321.08" y1="908.60" x2="3353.62" y2="812.82" stroke-linecap="round" style="stroke:#DA7C30;stroke-width:12.96"/>
	<line x1="3353.62" y1="812.82" x2="3386.17" y2="717.77" stroke-linecap="round" style="stroke:#DA7C30;stroke-width:12.96"/>
	<line x1="3386.17" y1="717.77" x2="3418.72" y2="627.80" stroke-linecap="round" style="stroke:#DA7C30;stroke-width:12.96"/>
	<line x1="3418.72" y1="627.80" x2="3451.26" y2="540.19" stroke-linecap="round" style="stroke:#DA7C30;stroke-width:12.96"/>
	<line x1="3451.26" y1="540.19" x2="3483.81" y2="458.14" stroke-linecap="round" style="stroke:#DA7C30;stroke-width:12.96"/>
	<line x1="3483.81" y1="458.14" x2="3516.36" y2="383.51" stroke-linecap="round" style="stroke:#DA7C30;stroke-width:12.96"/>
	<line x1="3516.36" y1="383.51" x2="3548.90" y2="319.16" stroke-linecap="round" style="stroke:#DA7C30;stroke-width:12.96"/>
	<line x1="3548.90" y1="319.16" x2="3581.45" y2="267.43" stroke-linecap="round" style="stroke:#DA7C30;stroke-width:12.96"/>
	<line x1="3581.45" y1="267.43" x2="3613.99" y2="224.74" stroke-linecap="round" style="stroke:#DA7C30;stroke-width:12.96"/>
	<line x1="3613.99" y1="224.74" x2="3646.54" y2="194.05" stroke-linecap="round" style="stroke:#DA7C30;stroke-width:12.96"/>
	<line x1="3646.54" y1="194.05" x2="3678.96" y2="167.93" stroke-linecap="round" style="stroke:#DA7C30;stroke-width:12.96"/>
	<line x1="3678.96" y1="167.93" x2="3711.51" y2="148.75" stroke-linecap="round" style="stroke:#DA7C30;stroke-width:12.96"/>
	<line x1="3711.51" y1="148.75" x2="3744.06" y2="138.60" stroke-linecap="round" style="stroke:#DA7C30;stroke-width:12.96"/>
	<line x1="3744.06" y1="138.60" x2="3776.60" y2="130.44" stroke-linecap="round" style="stroke:#DA7C30;stroke-width:12.96"/>
	<line x1="3776.60" y1="130.44" x2="3809.15" y2="124.99" stroke-linecap="round" style="stroke:#DA7C30;stroke-width:12.96"/>
	<line x1="3809.15" y1="124.99" x2="3841.70" y2="121.90" stroke-linecap="round" style="stroke:#DA7C30;stroke-width:12.96"/>
	<line x1="424.71" y1="2076.47" x2="457.26" y2="2069.16" stroke-linecap="round" style="stroke:#3E9651;stroke-width:12.96"/>
	<line x1="457.26" y1="2069.16" x2="489.80" y2="2068.67" stroke-linecap="round" style="stroke:#3E9651;stroke-width:12.96"/>
	<line x1="489.80" y1="2068.67" x2="522.35" y2="2068.30" stroke-linecap="round" style="stroke:#3E9651;stroke-width:12.96"/>
	<line x1="522.35" y1="2068.30" x2="554.89" y2="2068.05" stroke-linecap="round" style="stroke:#3E9651;stroke-width:12.96"/>
	<line x1="554.89" y1="2068.05" x2="587.44" y2="2067.93" stroke-linecap="round" style="stroke:#3E9651;stroke-width:12.96"/>
	<line x1="587.44" y1="2067.93" x2="619.99" y2="2067.80" stroke-linecap="round" style="stroke:#3E9651;stroke-width:12.96"/>
	<line x1="619.99" y1="2067.80" x2="652.53" y2="2067.56" stroke-linecap="round" style="stroke:#3E9651;stroke-width:12.96"/>
	<line x1="652.53" y1="2067.56" x2="685.08" y2="2067.43" stroke-linecap="round" style="stroke:#3E9651;stroke-width:12.96"/>
	<line x1="685.08" y1="2067.43" x2="717.63" y2="2067.31" stroke-linecap="round" style="stroke:#3E9651;stroke-width:12.96"/>
	<line x1="717.63" y1="2067.31" x2="750.17" y2="2067.18" stroke-linecap="round" style="stroke:#3E9651;stroke-width:12.96"/>
	<line x1="750.17" y1="2067.18" x2="782.72" y2="2067.06" stroke-linecap="round" style="stroke:#3E9651;stroke-width:12.96"/>
	<line x1="782.72" y1="2067.06" x2="815.26" y2="2066.81" stroke-linecap="round" style="stroke:#3E9651;stroke-width:12.96"/>
	<line x1="815.26" y1="2066.81" x2="847.81" y2="2066.69" stroke-linecap="round" style="stroke:#3E9651;stroke-width:12.96"/>
	<line x1="847.81" y1="2066.69" x2="880.36" y2="2066.44" stroke-linecap="round" style="stroke:#3E9651;stroke-width:12.96"/>
	<line x1="880.36" y1="2066.44" x2="912.90" y2="2066.32" stroke-linecap="round" style="stroke:#3E9651;stroke-width:12.96"/>
	<line x1="912.90" y1="2066.32" x2="945.45" y2="2066.07" stroke-linecap="round" style="stroke:#3E9651;stroke-width:12.96"/>
	<line x1="945.45" y1="2066.07" x2="978.00" y2="2065.70" stroke-linecap="round" style="stroke:#3E9651;stroke-width:12.96"/>
	<line x1="978.00" y1="2065.70" x2="1010.54" y2="2065.45" stroke-linecap="round" style="stroke:#3E9651;stroke-width:12.96"/>
	<line x1="1010.54" y1="2065.45" x2="1043.09" y2="2065.08" stroke-linecap="round" style="stroke:#3E9651;stroke-width:12.96"/>
	<line x1="1043.09" y1="2065.08" x2="1075.63" y2="2064.34" stroke-linecap="round" style="stroke:#3E9651;stroke-width:12.96"/>
	<line x1="1075.63" y1="2064.34" x2="1108.18" y2="2063.60" stroke-linecap="round" style="stroke:#3E9651;stroke-width:12.96"/>
	<line x1="1108.18" y1="2063.60" x2="1140.73" y2="2062.98" stroke-linecap="round" style="stroke:#3E9651;stroke-width:12.96"/>
	<line x1="1140.73" y1="2062.98" x2="1173.27" y2="2062.11" stroke-linecap="round" style="stroke:#3E9651;stroke-width:12.96"/>
	<line x1="1173.27" y1="2062.11" x2="1205.82" y2="2061.49" stroke-linecap="round" style="stroke:#3E9651;stroke-width:12.96"/>
	<line x1="1205.82" y1="2061.49" x2="1238.37" y2="2060.63" stroke-linecap="round" style="stroke:#3E9651;stroke-width:12.96"/>
	<line x1="1238.37" y1="2060.63" x2="1270.91" y2="2059.88" stroke-linecap="round" style="stroke:#3E9651;stroke-width:12.96"/>
	<line x1="1270.91" y1="2059.88" x2="1303.34" y2="2059.02" stroke-linecap="round" style="stroke:#3E9651;stroke-width:12.96"/>
	<line x1="1303.34" y1="2059.02" x2="1335.88" y2="2058.27" stroke-linecap="round" style="stroke:#3E9651;stroke-width:12.96"/>
	<line x1="1335.88" y1="2058.27" x2="1368.43" y2="2057.53" stroke-linecap="round" style="stroke:#3E9651;stroke-width:12.96"/>
	<line x1="1368.43" y1="2057.53" x2="1400.97" y2="2056.79" stroke-linecap="round" style="stroke:#3E9651;stroke-width:12.96"/>
	<line x1="1400.97" y1="2056.79" x2="1433.52" y2="2055.68" stroke-linecap="round" style="stroke:#3E9651;stroke-width:12.96"/>
	<line x1="1433.52" y1="2055.68" x2="1466.07" y2="2054.69" stroke-linecap="round" style="stroke:#3E9651;stroke-width:12.96"/>
	<line x1="1466.07" y1="2054.69" x2="1498.61" y2="2053.45" stroke-linecap="round" style="stroke:#3E9651;stroke-width:12.96"/>
	<line x1="1498.61" y1="2053.45" x2="1531.16" y2="2052.33" stroke-linecap="round" style="stroke:#3E9651;stroke-width:12.96"/>
	<line x1="1531.16" y1="2052.33" x2="1563.70" y2="2051.22" stroke-linecap="round" style="stroke:#3E9651;stroke-width:12.96"/>
	<line x1="1563.70" y1="2051.22" x2="1596.25" y2="2049.98" stroke-linecap="round" style="stroke:#3E9651;stroke-width:12.96"/>
	<line x1="1596.25" y1="2049.98" x2="1628.80" y2="2048.37" stroke-linecap="round" style="stroke:#3E9651;stroke-width:12.96"/>
	<line x1="1628.80" y1="2048.37" x2="1661.34" y2="2046.77" stroke-linecap="round" style="stroke:#3E9651;stroke-width:12.96"/>
	<line x1="1661.34" y1="2046.77" x2="1693.89" y2="2045.28" stroke-linecap="round" style="stroke:#3E9651;stroke-width:12.96"/>
	<line x1="1693.89" y1="2045.28" x2="1726.44" y2="2043.30" stroke-linecap="round" style="stroke:#3E9651;stroke-width:12.96"/>
	<line x1="1726.44" y1="2043.30" x2="1758.98" y2="2041.44" stroke-linecap="round" style="stroke:#3E9651;stroke-width:12.96"/>
	<line x1="1758.98" y1="2041.44" x2="1791.53" y2="2039.46" stroke-linecap="round" style="stroke:#3E9651;stroke-width:12.96"/>
	<line x1="1791.53" y1="2039.46" x2="1824.08" y2="2036.99" stroke-linecap="round" style="stroke:#3E9651;stroke-width:12.96"/>
	<line x1="1824.08" y1="2036.99" x2="1856.62" y2="2034.76" stroke-linecap="round" style="stroke:#3E9651;stroke-width:12.96"/>
	<line x1="1856.62" y1="2034.76" x2="1889.17" y2="2031.91" stroke-linecap="round" style="stroke:#3E9651;stroke-width:12.96"/>
	<line x1="1889.17" y1="2031.91" x2="1921.71" y2="2028.94" stroke-linecap="round" style="stroke:#3E9651;stroke-width:12.96"/>
	<line x1="1921.71" y1="2028.94" x2="1954.26" y2="2025.48" stroke-linecap="round" style="stroke:#3E9651;stroke-width:12.96"/>
	<line x1="1954.26" y1="2025.48" x2="1986.81" y2="2021.89" stroke-linecap="round" style="stroke:#3E9651;stroke-width:12.96"/>
	<line x1="1986.81" y1="2021.89" x2="2019.35" y2="2017.93" stroke-linecap="round" style="stroke:#3E9651;stroke-width:12.96"/>
	<line x1="2019.35" y1="2017.93" x2="2051.90" y2="2013.48" stroke-linecap="round" style="stroke:#3E9651;stroke-width:12.96"/>
	<line x1="2051.90" y1="2013.48" x2="2084.45" y2="2008.90" stroke-linecap="round" style="stroke:#3E9651;stroke-width:12.96"/>
	<line x1="2084.45" y1="2008.90" x2="2116.99" y2="2003.70" stroke-linecap="round" style="stroke:#3E9651;stroke-width:12.96"/>
	<line x1="2116.99" y1="2003.70" x2="2149.54" y2="1998.38" stroke-linecap="round" style="stroke:#3E9651;stroke-width:12.96"/>
	<line x1="2149.54" y1="1998.38" x2="2182.08" y2="1992.31" stroke-linecap="round" style="stroke:#3E9651;stroke-width:12.96"/>
	<line x1="2182.08" y1="1992.31" x2="2214.63" y2="1985.38" stroke-linecap="round" style="stroke:#3E9651;stroke-width:12.96"/>
	<line x1="2214.63" y1="1985.38" x2="2247.18" y2="1978.08" stroke-linecap="round" style="stroke:#3E9651;stroke-width:12.96"/>
	<line x1="2247.18" y1="1978.08" x2="2279.72" y2="1969.79" stroke-linecap="round" style="stroke:#3E9651;stroke-width:12.96"/>
	<line x1="2279.72" y1="1969.79" x2="2312.27" y2="1960.39" stroke-linecap="round" style="stroke:#3E9651;stroke-width:12.96"/>
	<line x1="2312.27" y1="1960.39" x2="2344.82" y2="1950.61" stroke-linecap="round" style="stroke:#3E9651;stroke-width:12.96"/>
	<line x1="2344.82" y1="1950.61" x2="2377.36" y2="1939.59" stroke-linecap="round" style="stroke:#3E9651;stroke-width:12.96"/>
	<line x1="2377.36" y1="1939.59" x2="2409.91" y2="1927.59" stroke-linecap="round" style="stroke:#3E9651;stroke-width:12.96"/>
	<line x1="2409.91" y1="1927.59" x2="2442.45" y2="1914.35" stroke-linecap="round" style="stroke:#3E9651;stroke-width:12.96"/>
	<line x1="2442.45" y1="1914.35" x2="2474.88" y2="1899.25" stroke-linecap="round" style="stroke:#3E9651;stroke-width:12.96"/>
	<line x1="2474.88" y1="1899.25" x2="2507.42" y2="1883.53" stroke-linecap="round" style="stroke:#3E9651;stroke-width:12.96"/>
	<line x1="2507.42" y1="1883.53" x2="2539.97" y2="1865.47" stroke-linecap="round" style="stroke:#3E9651;stroke-width:12.96"/>
	<line x1="2539.97" y1="1865.47" x2="2572.51" y2="1846.66" stroke-linecap="round" style="stroke:#3E9651;stroke-width:12.96"/>
	<line x1="2572.51" y1="1846.66" x2="2605.06" y2="1826.98" stroke-linecap="round" style="stroke:#3E9651;stroke-width:12.96"/>
	<line x1="2605.06" y1="1826.98" x2="2637.61" y2="1805.20" stroke-linecap="round" style="stroke:#3E9651;stroke-width:12.96"/>
	<line x1="2637.61" y1="1805.20" x2="2670.15" y2="1782.67" stroke-linecap="round" style="stroke:#3E9651;stroke-width:12.96"/>
	<line x1="2670.15" y1="1782.67" x2="2702.70" y2="1758.91" stroke-linecap="round" style="stroke:#3E9651;stroke-width:12.96"/>
	<line x1="2702.70" y1="1758.91" x2="2735.25" y2="1732.55" stroke-linecap="round" style="stroke:#3E9651;stroke-width:12.96"/>
	<line x1="2735.25" y1="1732.55" x2="2767.79" y2="1705.45" stroke-linecap="round" style="stroke:#3E9651;stroke-width:12.96"/>
	<line x1="2767.79" y1="1705.45" x2="2800.34" y2="1676.25" stroke-linecap="round" style="stroke:#3E9651;stroke-width:12.96"/>
	<line x1="2800.34" y1="1676.25" x2="2832.89" y2="1642.83" stroke-linecap="round" style="stroke:#3E9651;stroke-width:12.96"/>
	<line x1="2832.89" y1="1642.83" x2="2865.43" y2="1608.18" stroke-linecap="round" style="stroke:#3E9651;stroke-width:12.96"/>
	<line x1="2865.43" y1="1608.18" x2="2897.98" y2="1571.43" stroke-linecap="round" style="stroke:#3E9651;stroke-width:12.96"/>
	<line x1="2897.98" y1="1571.43" x2="2930.52" y2="1532.20" stroke-linecap="round" style="stroke:#3E9651;stroke-width:12.96"/>
	<line x1="2930.52" y1="1532.20" x2="2963.07" y2="1489.13" stroke-linecap="round" style="stroke:#3E9651;stroke-width:12.96"/>
	<line x1="2963.07" y1="1489.13" x2="2995.62" y2="1441.61" stroke-linecap="round" style="stroke:#3E9651;stroke-width:12.96"/>
	<line x1="2995.62" y1="1441.61" x2="3028.16" y2="1391.36" stroke-linecap="round" style="stroke:#3E9651;stroke-width:12.96"/>
	<line x1="3028.16" y1="1391.36" x2="3060.71" y2="1336.91" stroke-linecap="round" style="stroke:#3E9651;stroke-width:12.96"/>
	<line x1="3060.71" y1="1336.91" x2="3093.26" y2="1278.13" stroke-linecap="round" style="stroke:#3E9651;stroke-width:12.96"/>
	<line x1="3093.26" y1="1278.13" x2="3125.80" y2="1216.75" stroke-linecap="round" style="stroke:#3E9651;stroke-width:12.96"/>
	<line x1="3125.80" y1="1216.75" x2="3158.35" y2="1149.55" stroke-linecap="round" style="stroke:#3E9651;stroke-width:12.96"/>
	<line x1="3158.35" y1="1149.55" x2="3190.89" y2="1077.03" stroke-linecap="round" style="stroke:#3E9651;stroke-width:12.96"/>
	<line x1="3190.89" y1="1077.03" x2="3223.44" y2="1002.90" stroke-linecap="round" style="stroke:#3E9651;stroke-width:12.96"/>
	<line x1="3223.44" y1="1002.90" x2="3255.99" y2="922.09" stroke-linecap="round" style="stroke:#3E9651;stroke-width:12.96"/>
	<line x1="3255.99" y1="922.09" x2="3288.53" y2="841.28" stroke-linecap="round" style="stroke:#3E9651;stroke-width:12.96"/>
	<line x1="3288.53" y1="841.28" x2="3321.08" y2="758.49" stroke-linecap="round" style="stroke:#3E9651;stroke-width:12.96"/>
	<line x1="3321.08" y1="758.49" x2="3353.62" y2="674.21" stroke-linecap="round" style="stroke:#3E9651;stroke-width:12.96"/>
	<line x1="3353.62" y1="674.21" x2="3386.17" y2="593.03" stroke-linecap="round" style="stroke:#3E9651;stroke-width:12.96"/>
	<line x1="3386.17" y1="593.03" x2="3418.72" y2="516.67" stroke-linecap="round" style="stroke:#3E9651;stroke-width:12.96"/>
	<line x1="3418.72" y1="516.67" x2="3451.26" y2="443.66" stroke-linecap="round" style="stroke:#3E9651;stroke-width:12.96"/>
	<line x1="3451.26" y1="443.66" x2="3483.81" y2="377.82" stroke-linecap="round" style="stroke:#3E9651;stroke-width:12.96"/>
	<line x1="3483.81" y1="377.82" x2="3516.36" y2="319.16" stroke-linecap="round" style="stroke:#3E9651;stroke-width:12.96"/>
	<line x1="3516.36" y1="319.16" x2="3548.90" y2="266.94" stroke-linecap="round" style="stroke:#3E9651;stroke-width:12.96"/>
	<line x1="3548.90" y1="266.94" x2="3581.45" y2="227.21" stroke-linecap="round" style="stroke:#3E9651;stroke-width:12.96"/>
	<line x1="3581.45" y1="227.21" x2="3613.99" y2="195.16" stroke-linecap="round" style="stroke:#3E9651;stroke-width:12.96"/>
	<line x1="3613.99" y1="195.16" x2="3646.54" y2="172.27" stroke-linecap="round" style="stroke:#3E9651;stroke-width:12.96"/>
	<line x1="3646.54" y1="172.27" x2="3678.96" y2="152.96" stroke-linecap="round" style="stroke:#3E9651;stroke-width:12.96"/>
	<line x1="3678.96" y1="152.96" x2="3711.51" y2="138.98" stroke-linecap="round" style="stroke:#3E9651;stroke-width:12.96"/>
	<line x1="3711.51" y1="138.98" x2="3744.06" y2="131.80" stroke-linecap="round" style="stroke:#3E9651;stroke-width:12.96"/>
	<line x1="3744.06" y1="131.80" x2="3776.60" y2="126.23" stroke-linecap="round" style="stroke:#3E9651;stroke-width:12.96"/>
	<line x1="3776.60" y1="126.23" x2="3809.15" y2="122.52" stroke-linecap="round" style="stroke:#3E9651;stroke-width:12.96"/>
	<line x1="3809.15" y1="122.52" x2="3841.70" y2="120.54" stroke-linecap="round" style="stroke:#3E9651;stroke-width:12.96"/>
	<line x1="407.51" y1="2093.67" x2="407.51" y2="100.86" style="stroke:#000000;stroke-width:5.76"/>
	<line x1="407.51" y1="2076.47" x2="367.54" y2="2076.47" style="stroke:#000000;stroke-width:5.76"/>
	<text x="347.49" y="2111.49" style="font-family:'Helvetica';font-size:99.99px;fill:#000000" text-anchor="end">0</text>
	<line x1="407.51" y1="1684.79" x2="367.54" y2="1684.79" style="stroke:#000000;stroke-width:5.76"/>
	<text x="347.49" y="1719.81" style="font-family:'Helvetica';font-size:99.99px;fill:#000000" text-anchor="end">.2</text>
	<line x1="407.51" y1="1293.10" x2="367.54" y2="1293.10" style="stroke:#000000;stroke-width:5.76"/>
	<text x="347.49" y="1328.13" style="font-family:'Helvetica';font-size:99.99px;fill:#000000" text-anchor="end">.4</text>
	<line x1="407.51" y1="901.42" x2="367.54" y2="901.42" style="stroke:#000000;stroke-width:5.76"/>
	<text x="347.49" y="936.45" style="font-family:'Helvetica';font-size:99.99px;fill:#000000" text-anchor="end">.6</text>
	<line x1="407.51" y1="509.74" x2="367.54" y2="509.74" style="stroke:#000000;stroke-width:5.76"/>
	<text x="347.49" y="544.77" style="font-family:'Helvetica';font-size:99.99px;fill:#000000" text-anchor="end">.8</text>
	<line x1="407.51" y1="118.06" x2="367.54" y2="118.06" style="stroke:#000000;stroke-width:5.76"/>
	<text x="347.49" y="153.09" style="font-family:'Helvetica';font-size:99.99px;fill:#000000" text-anchor="end">1</text>
	<text x="190.71" y="1097.20" style="font-family:'Helvetica';font-size:99.99px;fill:#000000" transform="rotate(-90 190.71,1097.20)" text-anchor="middle">probability of death</text>
	<line x1="407.51" y1="2093.67" x2="3859.02" y2="2093.67" style="stroke:#000000;stroke-width:5.76"/>
	<line x1="424.83" y1="2093.67" x2="424.83" y2="2133.64" style="stroke:#000000;stroke-width:5.76"/>
	<text x="424.83" y="2223.62" style="font-family:'Helvetica';font-size:99.99px;fill:#000000" text-anchor="middle">0</text>
	<line x1="1075.63" y1="2093.67" x2="1075.63" y2="2133.64" style="stroke:#000000;stroke-width:5.76"/>
	<text x="1075.63" y="2223.62" style="font-family:'Helvetica';font-size:99.99px;fill:#000000" text-anchor="middle">20</text>
	<line x1="1726.56" y1="2093.67" x2="1726.56" y2="2133.64" style="stroke:#000000;stroke-width:5.76"/>
	<text x="1726.56" y="2223.62" style="font-family:'Helvetica';font-size:99.99px;fill:#000000" text-anchor="middle">40</text>
	<line x1="2377.36" y1="2093.67" x2="2377.36" y2="2133.64" style="stroke:#000000;stroke-width:5.76"/>
	<text x="2377.36" y="2223.62" style="font-family:'Helvetica';font-size:99.99px;fill:#000000" text-anchor="middle">60</text>
	<line x1="3028.29" y1="2093.67" x2="3028.29" y2="2133.64" style="stroke:#000000;stroke-width:5.76"/>
	<text x="3028.29" y="2223.62" style="font-family:'Helvetica';font-size:99.99px;fill:#000000" text-anchor="middle">80</text>
	<line x1="3679.09" y1="2093.67" x2="3679.09" y2="2133.64" style="stroke:#000000;stroke-width:5.76"/>
	<text x="3679.09" y="2223.62" style="font-family:'Helvetica';font-size:99.99px;fill:#000000" text-anchor="middle">100</text>
	<text x="2133.33" y="2333.64" style="font-family:'Helvetica';font-size:99.99px;fill:#000000" text-anchor="middle">age</text>
	<rect x="1285.14" y="2418.27" width="1696.24" height="326.34" style="fill:#FFFFFF"/>
	<rect x="1288.02" y="2421.15" width="1690.48" height="320.58" style="fill:none;stroke:#000000;stroke-width:5.76"/>
	<line x1="1328.33" y1="2511.46" x2="1702.80" y2="2511.46" style="stroke:#396AB1;stroke-width:12.96"/>
	<line x1="2159.56" y1="2511.46" x2="2533.91" y2="2511.46" style="stroke:#DA7C30;stroke-width:12.96"/>
	<line x1="1328.33" y1="2651.43" x2="1702.80" y2="2651.43" style="stroke:#3E9651;stroke-width:12.96"/>
	<text x="1762.82" y="2546.49" style="font-family:'Helvetica';font-size:99.99px;fill:#000000"> male</text>
	<text x="2593.92" y="2546.49" style="font-family:'Helvetica';font-size:99.99px;fill:#000000"> female</text>
	<text x="1762.82" y="2686.46" style="font-family:'Helvetica';font-size:99.99px;fill:#000000"> both</text>
</svg>
