<?xml version="1.0" encoding="UTF-8" standalone="no"?>
<!-- This is a Stata 15.1 generated SVG file (http://www.stata.com) -->

<svg version="1.1" width="5.50in" height="4.00in" viewBox="0 0 3960 2880" xmlns="http://www.w3.org/2000/svg" xmlns:xlink="http://www.w3.org/1999/xlink">
	<desc>Stata Graph - Graph</desc>
	<rect x="0" y="0" width="3960" height="2880" style="fill:#FFFFFF;stroke:none"/>
	<rect x="0.00" y="0.00" width="3959.88" height="2880.00" style="fill:#FFFFFF"/>
	<rect x="2.88" y="2.88" width="3954.12" height="2874.24" style="fill:none;stroke:#FFFFFF;stroke-width:5.76"/>
	<rect x="407.51" y="100.86" width="3451.51" height="1992.81" style="fill:#FFFFFF"/>
	<rect x="410.39" y="103.74" width="3445.75" height="1987.05" style="fill:none;stroke:#FFFFFF;stroke-width:5.76"/>
	<line x1="407.51" y1="2076.47" x2="3859.02" y2="2076.47" style="stroke:#FFFFFF;stroke-width:8.64"/>
	<line x1="407.51" y1="1684.79" x2="3859.02" y2="1684.79" style="stroke:#FFFFFF;stroke-width:8.64"/>
	<line x1="407.51" y1="1293.10" x2="3859.02" y2="1293.10" style="stroke:#FFFFFF;stroke-width:8.64"/>
	<line x1="407.51" y1="901.42" x2="3859.02" y2="901.42" style="stroke:#FFFFFF;stroke-width:8.64"/>
	<line x1="407.51" y1="509.74" x2="3859.02" y2="509.74" style="stroke:#FFFFFF;stroke-width:8.64"/>
	<line x1="407.51" y1="118.06" x2="3859.02" y2="118.06" style="stroke:#FFFFFF;stroke-width:8.64"/>
	<line x1="1449.86" y1="2061.74" x2="2304.10" y2="1907.17" stroke-linecap="round" style="stroke:#396AB1;stroke-width:12.96"/>
	<line x1="2304.10" y1="1907.17" x2="2731.16" y2="1583.18" stroke-linecap="round" style="stroke:#396AB1;stroke-width:12.96"/>
	<line x1="2731.16" y1="1583.18" x2="3158.35" y2="957.48" stroke-linecap="round" style="stroke:#396AB1;stroke-width:12.96"/>
	<line x1="3158.35" y1="957.48" x2="3585.41" y2="118.18" stroke-linecap="round" style="stroke:#396AB1;stroke-width:12.96"/>
	<line x1="595.61" y1="2073.00" x2="1449.86" y2="2066.19" stroke-linecap="round" style="stroke:#DA7C30;stroke-width:12.96"/>
	<line x1="1449.86" y1="2066.19" x2="2304.10" y2="1939.35" stroke-linecap="round" style="stroke:#DA7C30;stroke-width:12.96"/>
	<line x1="2304.10" y1="1939.35" x2="2731.16" y2="1668.33" stroke-linecap="round" style="stroke:#DA7C30;stroke-width:12.96"/>
	<line x1="2731.16" y1="1668.33" x2="3158.35" y2="906.99" stroke-linecap="round" style="stroke:#DA7C30;stroke-width:12.96"/>
	<line x1="3158.35" y1="906.99" x2="3585.41" y2="118.18" stroke-linecap="round" style="stroke:#DA7C30;stroke-width:12.96"/>
	<line x1="1449.86" y1="2066.57" x2="2304.10" y2="1913.85" stroke-linecap="round" style="stroke:#3E9651;stroke-width:12.96"/>
	<line x1="2304.10" y1="1913.85" x2="2731.16" y2="1591.85" stroke-linecap="round" style="stroke:#3E9651;stroke-width:12.96"/>
	<line x1="2731.16" y1="1591.85" x2="3158.35" y2="1001.05" stroke-linecap="round" style="stroke:#3E9651;stroke-width:12.96"/>
	<line x1="3158.35" y1="1001.05" x2="3585.41" y2="118.18" stroke-linecap="round" style="stroke:#3E9651;stroke-width:12.96"/>
	<line x1="407.51" y1="2093.67" x2="407.51" y2="100.86" style="stroke:#000000;stroke-width:5.76"/>
	<line x1="407.51" y1="2076.47" x2="367.54" y2="2076.47" style="stroke:#000000;stroke-width:5.76"/>
	<text x="347.49" y="2111.49" style="font-family:'Helvetica';font-size:99.99px;fill:#000000" text-anchor="end">0</text>
	<line x1="407.51" y1="1684.79" x2="367.54" y2="1684.79" style="stroke:#000000;stroke-width:5.76"/>
	<text x="347.49" y="1719.81" style="font-family:'Helvetica';font-size:99.99px;fill:#000000" text-anchor="end">.2</text>
	<line x1="407.51" y1="1293.10" x2="367.54" y2="1293.10" style="stroke:#000000;stroke-width:5.76"/>
	<text x="347.49" y="1328.13" style="font-family:'Helvetica';font-size:99.99px;fill:#000000" text-anchor="end">.4</text>
	<line x1="407.51" y1="901.42" x2="367.54" y2="901.42" style="stroke:#000000;stroke-width:5.76"/>
	<text x="347.49" y="936.45" style="font-family:'Helvetica';font-size:99.99px;fill:#000000" text-anchor="end">.6</text>
	<line x1="407.51" y1="509.74" x2="367.54" y2="509.74" style="stroke:#000000;stroke-width:5.76"/>
	<text x="347.49" y="544.77" style="font-family:'Helvetica';font-size:99.99px;fill:#000000" text-anchor="end">.8</text>
	<line x1="407.51" y1="118.06" x2="367.54" y2="118.06" style="stroke:#000000;stroke-width:5.76"/>
	<text x="347.49" y="153.09" style="font-family:'Helvetica';font-size:99.99px;fill:#000000" text-anchor="end">1</text>
	<text x="190.71" y="1097.20" style="font-family:'Helvetica';font-size:99.99px;fill:#000000" transform="rotate(-90 190.71,1097.20)" text-anchor="middle">probability of death</text>
	<line x1="407.51" y1="2093.67" x2="3859.02" y2="2093.67" style="stroke:#000000;stroke-width:5.76"/>
	<line x1="424.83" y1="2093.67" x2="424.83" y2="2133.64" style="stroke:#000000;stroke-width:5.76"/>
	<text x="424.83" y="2223.62" style="font-family:'Helvetica';font-size:99.99px;fill:#000000" text-anchor="middle">20</text>
	<line x1="1279.08" y1="2093.67" x2="1279.08" y2="2133.64" style="stroke:#000000;stroke-width:5.76"/>
	<text x="1279.08" y="2223.62" style="font-family:'Helvetica';font-size:99.99px;fill:#000000" text-anchor="middle">40</text>
	<line x1="2133.33" y1="2093.67" x2="2133.33" y2="2133.64" style="stroke:#000000;stroke-width:5.76"/>
	<text x="2133.33" y="2223.62" style="font-family:'Helvetica';font-size:99.99px;fill:#000000" text-anchor="middle">60</text>
	<line x1="2987.57" y1="2093.67" x2="2987.57" y2="2133.64" style="stroke:#000000;stroke-width:5.76"/>
	<text x="2987.57" y="2223.62" style="font-family:'Helvetica';font-size:99.99px;fill:#000000" text-anchor="middle">80</text>
	<line x1="3841.82" y1="2093.67" x2="3841.82" y2="2133.64" style="stroke:#000000;stroke-width:5.76"/>
	<text x="3841.82" y="2223.62" style="font-family:'Helvetica';font-size:99.99px;fill:#000000" text-anchor="middle">100</text>
	<text x="2133.33" y="2333.64" style="font-family:'Helvetica';font-size:99.99px;fill:#000000" text-anchor="middle">age</text>
	<rect x="1151.00" y="2418.27" width="1964.65" height="326.34" style="fill:#FFFFFF"/>
	<rect x="1153.88" y="2421.15" width="1958.90" height="320.58" style="fill:none;stroke:#000000;stroke-width:5.76"/>
	<line x1="1194.19" y1="2511.46" x2="1568.53" y2="2511.46" style="stroke:#396AB1;stroke-width:12.96"/>
	<line x1="2200.40" y1="2511.46" x2="2574.74" y2="2511.46" style="stroke:#DA7C30;stroke-width:12.96"/>
	<line x1="1194.19" y1="2651.43" x2="1568.53" y2="2651.43" style="stroke:#3E9651;stroke-width:12.96"/>
	<text x="1628.55" y="2546.49" style="font-family:'Helvetica';font-size:99.99px;fill:#000000"> Brussels</text>
	<text x="2634.76" y="2546.49" style="font-family:'Helvetica';font-size:99.99px;fill:#000000"> Flanders</text>
	<text x="1628.55" y="2686.46" style="font-family:'Helvetica';font-size:99.99px;fill:#000000"> Wallonia</text>
</svg>
