<?xml version="1.0" encoding="UTF-8" standalone="no"?>
<!-- This is a Stata 15.1 generated SVG file (http://www.stata.com) -->

<svg version="1.1" width="5.50in" height="4.00in" viewBox="0 0 3960 2880" xmlns="http://www.w3.org/2000/svg" xmlns:xlink="http://www.w3.org/1999/xlink">
	<desc>Stata Graph - Graph</desc>
	<rect x="0" y="0" width="3960" height="2880" style="fill:#FFFFFF;stroke:none"/>
	<rect x="0.00" y="0.00" width="3959.88" height="2880.00" style="fill:#FFFFFF"/>
	<rect x="2.88" y="2.88" width="3954.12" height="2874.24" style="fill:none;stroke:#FFFFFF;stroke-width:5.76"/>
	<rect x="407.51" y="100.86" width="3451.51" height="2132.77" style="fill:#FFFFFF"/>
	<rect x="410.39" y="103.74" width="3445.75" height="2127.01" style="fill:none;stroke:#FFFFFF;stroke-width:5.76"/>
	<line x1="407.51" y1="2216.43" x2="3859.02" y2="2216.43" style="stroke:#FFFFFF;stroke-width:8.64"/>
	<line x1="407.51" y1="1796.78" x2="3859.02" y2="1796.78" style="stroke:#FFFFFF;stroke-width:8.64"/>
	<line x1="407.51" y1="1377.13" x2="3859.02" y2="1377.13" style="stroke:#FFFFFF;stroke-width:8.64"/>
	<line x1="407.51" y1="957.36" x2="3859.02" y2="957.36" style="stroke:#FFFFFF;stroke-width:8.64"/>
	<line x1="407.51" y1="537.71" x2="3859.02" y2="537.71" style="stroke:#FFFFFF;stroke-width:8.64"/>
	<line x1="407.51" y1="118.06" x2="3859.02" y2="118.06" style="stroke:#FFFFFF;stroke-width:8.64"/>
	<line x1="595.61" y1="2185.99" x2="1449.86" y2="2175.84" stroke-linecap="round" style="stroke:#396AB1;stroke-width:12.96"/>
	<line x1="1449.86" y1="2175.84" x2="2304.10" y2="2025.11" stroke-linecap="round" style="stroke:#396AB1;stroke-width:12.96"/>
	<line x1="2304.10" y1="2025.11" x2="2731.16" y2="1706.07" stroke-linecap="round" style="stroke:#396AB1;stroke-width:12.96"/>
	<line x1="2731.16" y1="1706.07" x2="3158.35" y2="1002.78" stroke-linecap="round" style="stroke:#396AB1;stroke-width:12.96"/>
	<line x1="3158.35" y1="1002.78" x2="3585.41" y2="118.18" stroke-linecap="round" style="stroke:#396AB1;stroke-width:12.96"/>
	<line x1="595.61" y1="2200.47" x2="1449.86" y2="2171.76" stroke-linecap="round" style="stroke:#DA7C30;stroke-width:12.96"/>
	<line x1="1449.86" y1="2171.76" x2="2304.10" y2="2009.64" stroke-linecap="round" style="stroke:#DA7C30;stroke-width:12.96"/>
	<line x1="2304.10" y1="2009.64" x2="2731.16" y2="1751.86" stroke-linecap="round" style="stroke:#DA7C30;stroke-width:12.96"/>
	<line x1="2731.16" y1="1751.86" x2="2773.98" y2="1714.73" stroke-linecap="round" style="stroke:#DA7C30;stroke-width:12.96"/>
	<line x1="2773.98" y1="1714.73" x2="2816.67" y2="1675.26" stroke-linecap="round" style="stroke:#DA7C30;stroke-width:12.96"/>
	<line x1="2816.67" y1="1675.26" x2="2859.37" y2="1633.18" stroke-linecap="round" style="stroke:#DA7C30;stroke-width:12.96"/>
	<line x1="2859.37" y1="1633.18" x2="2902.06" y2="1587.14" stroke-linecap="round" style="stroke:#DA7C30;stroke-width:12.96"/>
	<line x1="2902.06" y1="1587.14" x2="2944.76" y2="1536.28" stroke-linecap="round" style="stroke:#DA7C30;stroke-width:12.96"/>
	<line x1="2944.76" y1="1536.28" x2="2987.45" y2="1482.32" stroke-linecap="round" style="stroke:#DA7C30;stroke-width:12.96"/>
	<line x1="2987.45" y1="1482.32" x2="3030.14" y2="1424.04" stroke-linecap="round" style="stroke:#DA7C30;stroke-width:12.96"/>
	<line x1="3030.14" y1="1424.04" x2="3072.96" y2="1361.05" stroke-linecap="round" style="stroke:#DA7C30;stroke-width:12.96"/>
	<line x1="3072.96" y1="1361.05" x2="3115.65" y2="1295.33" stroke-linecap="round" style="stroke:#DA7C30;stroke-width:12.96"/>
	<line x1="3115.65" y1="1295.33" x2="3158.35" y2="396.38" stroke-linecap="round" style="stroke:#DA7C30;stroke-width:12.96"/>
	<line x1="3158.35" y1="396.38" x2="3585.41" y2="120.66" stroke-linecap="round" style="stroke:#DA7C30;stroke-width:12.96"/>
	<line x1="407.51" y1="2233.63" x2="407.51" y2="100.86" style="stroke:#000000;stroke-width:5.76"/>
	<line x1="407.51" y1="2216.43" x2="367.54" y2="2216.43" style="stroke:#000000;stroke-width:5.76"/>
	<text x="347.49" y="2251.46" style="font-family:'Helvetica';font-size:99.99px;fill:#000000" text-anchor="end">0</text>
	<line x1="407.51" y1="1796.78" x2="367.54" y2="1796.78" style="stroke:#000000;stroke-width:5.76"/>
	<text x="347.49" y="1831.81" style="font-family:'Helvetica';font-size:99.99px;fill:#000000" text-anchor="end">.2</text>
	<line x1="407.51" y1="1377.13" x2="367.54" y2="1377.13" style="stroke:#000000;stroke-width:5.76"/>
	<text x="347.49" y="1412.16" style="font-family:'Helvetica';font-size:99.99px;fill:#000000" text-anchor="end">.4</text>
	<line x1="407.51" y1="957.36" x2="367.54" y2="957.36" style="stroke:#000000;stroke-width:5.76"/>
	<text x="347.49" y="992.39" style="font-family:'Helvetica';font-size:99.99px;fill:#000000" text-anchor="end">.6</text>
	<line x1="407.51" y1="537.71" x2="367.54" y2="537.71" style="stroke:#000000;stroke-width:5.76"/>
	<text x="347.49" y="572.74" style="font-family:'Helvetica';font-size:99.99px;fill:#000000" text-anchor="end">.8</text>
	<line x1="407.51" y1="118.06" x2="367.54" y2="118.06" style="stroke:#000000;stroke-width:5.76"/>
	<text x="347.49" y="153.09" style="font-family:'Helvetica';font-size:99.99px;fill:#000000" text-anchor="end">1</text>
	<text x="190.71" y="1167.25" style="font-family:'Helvetica';font-size:99.99px;fill:#000000" transform="rotate(-90 190.71,1167.25)" text-anchor="middle">probability of death</text>
	<line x1="407.51" y1="2233.63" x2="3859.02" y2="2233.63" style="stroke:#000000;stroke-width:5.76"/>
	<line x1="424.83" y1="2233.63" x2="424.83" y2="2273.73" style="stroke:#000000;stroke-width:5.76"/>
	<text x="424.83" y="2363.59" style="font-family:'Helvetica';font-size:99.99px;fill:#000000" text-anchor="middle">20</text>
	<line x1="1279.08" y1="2233.63" x2="1279.08" y2="2273.73" style="stroke:#000000;stroke-width:5.76"/>
	<text x="1279.08" y="2363.59" style="font-family:'Helvetica';font-size:99.99px;fill:#000000" text-anchor="middle">40</text>
	<line x1="2133.33" y1="2233.63" x2="2133.33" y2="2273.73" style="stroke:#000000;stroke-width:5.76"/>
	<text x="2133.33" y="2363.59" style="font-family:'Helvetica';font-size:99.99px;fill:#000000" text-anchor="middle">60</text>
	<line x1="2987.57" y1="2233.63" x2="2987.57" y2="2273.73" style="stroke:#000000;stroke-width:5.76"/>
	<text x="2987.57" y="2363.59" style="font-family:'Helvetica';font-size:99.99px;fill:#000000" text-anchor="middle">80</text>
	<line x1="3841.82" y1="2233.63" x2="3841.82" y2="2273.73" style="stroke:#000000;stroke-width:5.76"/>
	<text x="3841.82" y="2363.59" style="font-family:'Helvetica';font-size:99.99px;fill:#000000" text-anchor="middle">100</text>
	<text x="2133.33" y="2473.60" style="font-family:'Helvetica';font-size:99.99px;fill:#000000" text-anchor="middle">age</text>
	<rect x="649.19" y="2558.24" width="2968.27" height="186.37" style="fill:#FFFFFF"/>
	<rect x="652.07" y="2561.12" width="2962.51" height="180.61" style="fill:none;stroke:#000000;stroke-width:5.76"/>
	<line x1="692.38" y1="2651.43" x2="1066.72" y2="2651.43" style="stroke:#396AB1;stroke-width:12.96"/>
	<line x1="2229.60" y1="2651.43" x2="2604.07" y2="2651.43" style="stroke:#DA7C30;stroke-width:12.96"/>
	<text x="1126.74" y="2686.46" style="font-family:'Helvetica';font-size:99.99px;fill:#000000"> Life expectancy (all)</text>
	<text x="2663.97" y="2686.46" style="font-family:'Helvetica';font-size:99.99px;fill:#000000"> COVID deaths (all)</text>
</svg>
